SplineFontDB: 3.2
FontName: RisingSun-ExtraBold
FullName: Rising Sun ExtraBold
FamilyName: Rising Sun ExtraBold
Weight: Heavy
Copyright: Copyright (c) 2012, The Raleway Project Authors (matt@pixelspread.com)
Version: 4.321
ItalicAngle: 0
UnderlinePosition: -125
UnderlineWidth: 50
Ascent: 800
Descent: 200
InvalidEm: 0
sfntRevision: 0x0004526e
LayerCount: 2
Layer: 0 1 "Back" 1
Layer: 1 1 "Fore" 0
XUID: [1021 158 994486733 16099703]
StyleMap: 0x0040
FSType: 0
OS2Version: 4
OS2_WeightWidthSlopeOnly: 0
OS2_UseTypoMetrics: 1
CreationTime: 1683072783
ModificationTime: 1710185495
PfmFamily: 81
TTFWeight: 800
TTFWidth: 5
LineGap: 21
VLineGap: 0
Panose: 0 0 0 0 0 0 0 0 0 0
OS2TypoAscent: 923
OS2TypoAOffset: 0
OS2TypoDescent: -213
OS2TypoDOffset: 0
OS2TypoLinegap: 21
OS2WinAscent: 944
OS2WinAOffset: 0
OS2WinDescent: 234
OS2WinDOffset: 0
HheadAscent: 923
HheadAOffset: 0
HheadDescent: -213
HheadDOffset: 0
OS2SubXSize: 650
OS2SubYSize: 600
OS2SubXOff: 0
OS2SubYOff: 75
OS2SupXSize: 650
OS2SupYSize: 600
OS2SupXOff: 0
OS2SupYOff: 350
OS2StrikeYSize: 50
OS2StrikeYPos: 300
OS2CapHeight: 710
OS2XHeight: 525
OS2Vendor: '    '
OS2CodePages: 2000019f.00000000
OS2UnicodeRanges: a00002ff.4000205b.00000000.00000000
Lookup: 1 0 0 "'aalt' Access All Alternates lookup 0" { "'aalt' Access All Alternates lookup 0 subtable"  } ['aalt' ('DFLT' <'dflt' > 'cyrl' <'BGR ' 'SRB ' 'dflt' > 'latn' <'AZE ' 'CAT ' 'CRT ' 'KAZ ' 'MOL ' 'ROM ' 'TAT ' 'TRK ' 'dflt' > ) ]
Lookup: 3 0 0 "'aalt' Access All Alternates lookup 1" { "'aalt' Access All Alternates lookup 1 subtable"  } ['aalt' ('DFLT' <'dflt' > 'cyrl' <'BGR ' 'SRB ' 'dflt' > 'latn' <'AZE ' 'CAT ' 'CRT ' 'KAZ ' 'MOL ' 'ROM ' 'TAT ' 'TRK ' 'dflt' > ) ]

StartChar: .notdef
Encoding: 65536 -1 0
Width: 608
GlyphClass: 1
Flags: W
LayerCount: 2
Fore
SplineSet
558 689 m 2,0,1
 558 699 558 699 553 704.5 c 128,-1,2
 548 710 548 710 540 710 c 2,3,-1
 69 710 l 2,4,5
 61 710 61 710 55.5 704 c 128,-1,6
 50 698 50 698 50 687 c 2,7,-1
 50 25 l 2,8,9
 50 12 50 12 55.5 6 c 128,-1,10
 61 0 61 0 77 0 c 2,11,-1
 525 0 l 2,12,13
 542 0 542 0 550 6.5 c 128,-1,14
 558 13 558 13 558 29 c 2,15,-1
 558 689 l 2,0,1
506 74 m 2,16,17
 506 61 506 61 499 55.5 c 128,-1,18
 492 50 492 50 478 50 c 2,19,-1
 125 50 l 2,20,21
 111 50 111 50 106.5 55 c 128,-1,22
 102 60 102 60 102 71 c 2,23,-1
 102 641 l 2,24,25
 102 650 102 650 106.5 655 c 128,-1,26
 111 660 111 660 118 660 c 2,27,-1
 491 660 l 2,28,29
 498 660 498 660 502 655 c 128,-1,30
 506 650 506 650 506 642 c 2,31,-1
 506 74 l 2,16,17
538 33 m 1,32,-1
 123 696 l 1,33,-1
 71 669 l 1,34,-1
 478 28 l 1,35,-1
 538 33 l 1,32,-1
EndSplineSet
EndChar

StartChar: exclam
Encoding: 33 33 4
Width: 342
GlyphClass: 1
Flags: W
LayerCount: 2
Fore
SplineSet
68 93 m 256,0,1
 68 72 68 72 76.5 53.5 c 128,-1,2
 85 35 85 35 99 20.5 c 128,-1,3
 113 6 113 6 131.5 -2 c 128,-1,4
 150 -10 150 -10 171 -10 c 256,5,6
 192 -10 192 -10 210.5 -2 c 128,-1,7
 229 6 229 6 243 20.5 c 128,-1,8
 257 35 257 35 265.5 53.5 c 128,-1,9
 274 72 274 72 274 93 c 256,10,11
 274 114 274 114 265.5 132.5 c 128,-1,12
 257 151 257 151 243 165 c 128,-1,13
 229 179 229 179 210.5 187 c 128,-1,14
 192 195 192 195 171 195 c 256,15,16
 150 195 150 195 131.5 187 c 128,-1,17
 113 179 113 179 99 165 c 128,-1,18
 85 151 85 151 76.5 132.5 c 128,-1,19
 68 114 68 114 68 93 c 256,0,1
221 288 m 1,20,-1
 256 540 l 1,21,-1
 256 717 l 1,22,-1
 86 717 l 1,23,-1
 86 540 l 1,24,-1
 121 288 l 1,25,-1
 221 288 l 1,20,-1
EndSplineSet
EndChar

StartChar: numbersign
Encoding: 35 35 6
Width: 744
GlyphClass: 1
Flags: W
LayerCount: 2
Fore
SplineSet
708 524 m 1,0,-1
 583 524 l 1,1,-1
 629 710 l 1,2,-1
 494 710 l 1,3,-1
 448 524 l 1,4,-1
 367 524 l 1,5,-1
 413 710 l 1,6,-1
 278 710 l 1,7,-1
 232 524 l 1,8,-1
 86 524 l 1,9,-1
 86 407 l 1,10,-1
 203 407 l 1,11,-1
 179 302 l 1,12,-1
 36 302 l 1,13,-1
 36 176 l 1,14,-1
 148 176 l 1,15,-1
 105 0 l 1,16,-1
 240 0 l 1,17,-1
 283 176 l 1,18,-1
 364 176 l 1,19,-1
 321 0 l 1,20,-1
 456 0 l 1,21,-1
 499 176 l 1,22,-1
 658 176 l 1,23,-1
 658 302 l 1,24,-1
 529 302 l 1,25,-1
 554 407 l 1,26,-1
 708 407 l 1,27,-1
 708 524 l 1,0,-1
313 302 m 1,28,-1
 338 407 l 1,29,-1
 419 407 l 1,30,-1
 395 302 l 1,31,-1
 313 302 l 1,28,-1
EndSplineSet
EndChar

StartChar: dollar
Encoding: 36 36 7
Width: 644
GlyphClass: 1
Flags: W
LayerCount: 2
Fore
SplineSet
290 -125 m 1,0,-1
 365 -125 l 1,1,-1
 365 84 l 1,2,-1
 290 84 l 1,3,-1
 290 -125 l 1,0,-1
353 102 m 1,4,-1
 353 616 l 1,5,-1
 302 603 l 1,6,-1
 302 104 l 1,7,-1
 353 102 l 1,4,-1
290 620 m 1,8,-1
 365 633 l 1,9,-1
 365 815 l 1,10,-1
 290 815 l 1,11,-1
 290 620 l 1,8,-1
585 638 m 1,12,13
 562 651 562 651 532.5 665 c 128,-1,14
 503 679 503 679 469.5 690 c 128,-1,15
 436 701 436 701 400 708.5 c 128,-1,16
 364 716 364 716 326 716 c 0,17,18
 273 716 273 716 225.5 701 c 128,-1,19
 178 686 178 686 141.5 656.5 c 128,-1,20
 105 627 105 627 84 583 c 128,-1,21
 63 539 63 539 63 482 c 0,22,23
 63 442 63 442 74 412 c 128,-1,24
 85 382 85 382 108 359 c 128,-1,25
 131 336 131 336 166.5 318.5 c 128,-1,26
 202 301 202 301 251 285 c 0,27,28
 286 274 286 274 316.5 265.5 c 128,-1,29
 347 257 347 257 370 247.5 c 128,-1,30
 393 238 393 238 405.5 225.5 c 128,-1,31
 418 213 418 213 418 195 c 0,32,33
 418 173 418 173 399.5 160.5 c 128,-1,34
 381 148 381 148 340 148 c 0,35,36
 300 148 300 148 260 159.5 c 128,-1,37
 220 171 220 171 187.5 185.5 c 128,-1,38
 155 200 155 200 133.5 213 c 128,-1,39
 112 226 112 226 108 230 c 1,40,-1
 33 78 l 1,41,42
 64 58 64 58 101 42 c 128,-1,43
 138 26 138 26 177.5 15 c 128,-1,44
 217 4 217 4 257.5 -2.5 c 128,-1,45
 298 -9 298 -9 338 -9 c 0,46,47
 389 -9 389 -9 436.5 2.5 c 128,-1,48
 484 14 484 14 522 40 c 128,-1,49
 560 66 560 66 582.5 108 c 128,-1,50
 605 150 605 150 605 212 c 0,51,52
 605 261 605 261 590 296 c 128,-1,53
 575 331 575 331 546 355 c 128,-1,54
 517 379 517 379 476.5 396.5 c 128,-1,55
 436 414 436 414 386 428 c 0,56,57
 352 439 352 439 325 446.5 c 128,-1,58
 298 454 298 454 280 462.5 c 128,-1,59
 262 471 262 471 252.5 482 c 128,-1,60
 243 493 243 493 243 510 c 0,61,62
 243 536 243 536 263.5 548.5 c 128,-1,63
 284 561 284 561 321 561 c 0,64,65
 353 561 353 561 385.5 552 c 128,-1,66
 418 543 418 543 444.5 531 c 128,-1,67
 471 519 471 519 489 508 c 128,-1,68
 507 497 507 497 510 495 c 1,69,-1
 585 638 l 1,12,13
EndSplineSet
EndChar

StartChar: percent
Encoding: 37 37 8
Width: 827
GlyphClass: 1
Flags: W
LayerCount: 2
Fore
SplineSet
207 409 m 0,0,1
 244 409 244 409 275.5 421 c 128,-1,2
 307 433 307 433 330.5 454 c 128,-1,3
 354 475 354 475 367 503.5 c 128,-1,4
 380 532 380 532 380 564 c 0,5,6
 380 597 380 597 367 625.5 c 128,-1,7
 354 654 354 654 330.5 674.5 c 128,-1,8
 307 695 307 695 275.5 707.5 c 128,-1,9
 244 720 244 720 207 720 c 0,10,11
 171 720 171 720 139.5 708 c 128,-1,12
 108 696 108 696 84.5 675 c 128,-1,13
 61 654 61 654 47.5 625.5 c 128,-1,14
 34 597 34 597 34 564 c 0,15,16
 34 532 34 532 47.5 503.5 c 128,-1,17
 61 475 61 475 84.5 454 c 128,-1,18
 108 433 108 433 139.5 421 c 128,-1,19
 171 409 171 409 207 409 c 0,0,1
207 490 m 256,20,21
 195 490 195 490 185 496 c 128,-1,22
 175 502 175 502 167.5 512 c 128,-1,23
 160 522 160 522 155.5 535.5 c 128,-1,24
 151 549 151 549 151 564 c 0,25,26
 151 580 151 580 155.5 593.5 c 128,-1,27
 160 607 160 607 167.5 617 c 128,-1,28
 175 627 175 627 185 632.5 c 128,-1,29
 195 638 195 638 207 638 c 256,30,31
 219 638 219 638 229 632.5 c 128,-1,32
 239 627 239 627 246.5 616.5 c 128,-1,33
 254 606 254 606 258.5 593 c 128,-1,34
 263 580 263 580 263 564 c 0,35,36
 263 550 263 550 258.5 536 c 128,-1,37
 254 522 254 522 246.5 512 c 128,-1,38
 239 502 239 502 229 496 c 128,-1,39
 219 490 219 490 207 490 c 256,20,21
621 -10 m 0,40,41
 657 -10 657 -10 688.5 2.5 c 128,-1,42
 720 15 720 15 743.5 35.5 c 128,-1,43
 767 56 767 56 780.5 84.5 c 128,-1,44
 794 113 794 113 794 146 c 0,45,46
 794 178 794 178 780.5 206.5 c 128,-1,47
 767 235 767 235 743.5 256 c 128,-1,48
 720 277 720 277 688.5 289 c 128,-1,49
 657 301 657 301 621 301 c 0,50,51
 584 301 584 301 552.5 289 c 128,-1,52
 521 277 521 277 497.5 256 c 128,-1,53
 474 235 474 235 460.5 206.5 c 128,-1,54
 447 178 447 178 447 146 c 0,55,56
 447 113 447 113 460.5 84.5 c 128,-1,57
 474 56 474 56 497.5 35 c 128,-1,58
 521 14 521 14 552.5 2 c 128,-1,59
 584 -10 584 -10 621 -10 c 0,40,41
620 72 m 0,60,61
 609 72 609 72 599 77.5 c 128,-1,62
 589 83 589 83 581 93 c 128,-1,63
 573 103 573 103 568.5 116.5 c 128,-1,64
 564 130 564 130 564 146 c 0,65,66
 564 161 564 161 568.5 174.5 c 128,-1,67
 573 188 573 188 580.5 198 c 128,-1,68
 588 208 588 208 598.5 214 c 128,-1,69
 609 220 609 220 621 220 c 0,70,71
 632 220 632 220 642 214 c 128,-1,72
 652 208 652 208 659.5 198 c 128,-1,73
 667 188 667 188 672 174.5 c 128,-1,74
 677 161 677 161 677 145 c 0,75,76
 677 130 677 130 672.5 116.5 c 128,-1,77
 668 103 668 103 660.5 93 c 128,-1,78
 653 83 653 83 642.5 77.5 c 128,-1,79
 632 72 632 72 620 72 c 0,60,61
183 -9 m 1,80,-1
 447 338 l 1,81,-1
 720 652 l 1,82,-1
 645 720 l 1,83,-1
 390 381 l 1,84,-1
 108 59 l 1,85,-1
 183 -9 l 1,80,-1
EndSplineSet
EndChar

StartChar: ampersand
Encoding: 38 38 9
Width: 735
GlyphClass: 1
Flags: W
LayerCount: 2
Fore
SplineSet
739 0 m 1,0,-1
 328 433 l 2,1,2
 301 462 301 462 283 479.5 c 128,-1,3
 265 497 265 497 254.5 508.5 c 128,-1,4
 244 520 244 520 239.5 528.5 c 128,-1,5
 235 537 235 537 235 547 c 0,6,7
 235 558 235 558 238.5 566.5 c 128,-1,8
 242 575 242 575 248 581.5 c 128,-1,9
 254 588 254 588 263 591.5 c 128,-1,10
 272 595 272 595 284 595 c 0,11,12
 305 595 305 595 317.5 583.5 c 128,-1,13
 330 572 330 572 330 551 c 0,14,15
 330 536 330 536 322.5 525 c 128,-1,16
 315 514 315 514 300 501.5 c 128,-1,17
 285 489 285 489 262 475 c 128,-1,18
 239 461 239 461 206 441 c 0,19,20
 177 423 177 423 147 400.5 c 128,-1,21
 117 378 117 378 92.5 350 c 128,-1,22
 68 322 68 322 52.5 287.5 c 128,-1,23
 37 253 37 253 37 210 c 0,24,25
 37 169 37 169 53.5 129.5 c 128,-1,26
 70 90 70 90 101 59 c 128,-1,27
 132 28 132 28 178 9 c 128,-1,28
 224 -10 224 -10 283 -10 c 0,29,30
 350 -10 350 -10 415 16 c 128,-1,31
 480 42 480 42 531.5 94 c 128,-1,32
 583 146 583 146 615 224 c 128,-1,33
 647 302 647 302 648 406 c 1,34,-1
 511 406 l 1,35,36
 511 338 511 338 492 285 c 128,-1,37
 473 232 473 232 443 196 c 128,-1,38
 413 160 413 160 375 141 c 128,-1,39
 337 122 337 122 301 122 c 0,40,41
 276 122 276 122 256.5 130.5 c 128,-1,42
 237 139 237 139 224.5 152 c 128,-1,43
 212 165 212 165 206 180.5 c 128,-1,44
 200 196 200 196 200 210 c 0,45,46
 200 228 200 228 208.5 242.5 c 128,-1,47
 217 257 217 257 232.5 271.5 c 128,-1,48
 248 286 248 286 270 300.5 c 128,-1,49
 292 315 292 315 317 330 c 0,50,51
 353 351 353 351 383.5 375 c 128,-1,52
 414 399 414 399 437 426 c 128,-1,53
 460 453 460 453 473 485 c 128,-1,54
 486 517 486 517 486 553 c 0,55,56
 486 597 486 597 468.5 628 c 128,-1,57
 451 659 451 659 423 679.5 c 128,-1,58
 395 700 395 700 358.5 709.5 c 128,-1,59
 322 719 322 719 284 719 c 0,60,61
 240 719 240 719 203 706.5 c 128,-1,62
 166 694 166 694 139 671.5 c 128,-1,63
 112 649 112 649 96.5 616 c 128,-1,64
 81 583 81 583 81 541 c 0,65,66
 81 516 81 516 87 495.5 c 128,-1,67
 93 475 93 475 106 452.5 c 128,-1,68
 119 430 119 430 141 404 c 128,-1,69
 163 378 163 378 194 344 c 2,70,-1
 517 0 l 1,71,-1
 739 0 l 1,0,-1
EndSplineSet
EndChar

StartChar: quotesingle
Encoding: 39 39 10
Width: 255
GlyphClass: 1
Flags: W
LayerCount: 2
Fore
SplineSet
111 498 m 1,0,-1
 228 727 l 1,1,-1
 86 727 l 1,2,-1
 36 498 l 1,3,-1
 111 498 l 1,0,-1
EndSplineSet
EndChar

StartChar: parenleft
Encoding: 40 40 11
Width: 330
GlyphClass: 1
Flags: W
LayerCount: 2
Fore
SplineSet
28 348 m 0,0,1
 28 295 28 295 40.5 242 c 128,-1,2
 53 189 53 189 74.5 137 c 128,-1,3
 96 85 96 85 124 35 c 128,-1,4
 152 -15 152 -15 183 -61 c 1,5,-1
 307 -1 l 1,6,7
 281 46 281 46 259 90.5 c 128,-1,8
 237 135 237 135 220.5 178 c 128,-1,9
 204 221 204 221 195 262.5 c 128,-1,10
 186 304 186 304 186 345 c 0,11,12
 186 398 186 398 201 454.5 c 128,-1,13
 216 511 216 511 236 562 c 128,-1,14
 256 613 256 613 277 653 c 128,-1,15
 298 693 298 693 311 714 c 1,16,-1
 182 766 l 1,17,18
 149 712 149 712 121 658.5 c 128,-1,19
 93 605 93 605 72.5 553 c 128,-1,20
 52 501 52 501 40 450 c 128,-1,21
 28 399 28 399 28 348 c 0,0,1
EndSplineSet
EndChar

StartChar: parenright
Encoding: 41 41 12
Width: 329
GlyphClass: 1
Flags: W
LayerCount: 2
Fore
SplineSet
301 348 m 0,0,1
 301 399 301 399 289 450 c 128,-1,2
 277 501 277 501 256.5 553 c 128,-1,3
 236 605 236 605 208 658.5 c 128,-1,4
 180 712 180 712 148 766 c 1,5,-1
 18 714 l 1,6,7
 32 693 32 693 52.5 653 c 128,-1,8
 73 613 73 613 93.5 562 c 128,-1,9
 114 511 114 511 128.5 454.5 c 128,-1,10
 143 398 143 398 143 345 c 0,11,12
 143 304 143 304 134 262.5 c 128,-1,13
 125 221 125 221 109 178 c 128,-1,14
 93 135 93 135 70.5 90.5 c 128,-1,15
 48 46 48 46 23 -1 c 1,16,-1
 146 -61 l 1,17,18
 177 -15 177 -15 205 35 c 128,-1,19
 233 85 233 85 254.5 137 c 128,-1,20
 276 189 276 189 288.5 242 c 128,-1,21
 301 295 301 295 301 348 c 0,0,1
EndSplineSet
EndChar

StartChar: asterisk
Encoding: 42 42 13
Width: 357
GlyphClass: 1
Flags: W
LayerCount: 2
Fore
SplineSet
131 466 m 1,0,-1
 179 546 l 1,1,-1
 226 466 l 1,2,-1
 288 507 l 1,3,-1
 240 582 l 1,4,-1
 312 603 l 1,5,-1
 290 673 l 1,6,-1
 216 639 l 1,7,-1
 222 720 l 1,8,-1
 135 720 l 1,9,-1
 141 639 l 1,10,-1
 67 673 l 1,11,-1
 45 603 l 1,12,-1
 117 582 l 1,13,-1
 69 507 l 1,14,-1
 131 466 l 1,0,-1
EndSplineSet
EndChar

StartChar: plus
Encoding: 43 43 14
Width: 426
GlyphClass: 1
Flags: W
LayerCount: 2
Fore
SplineSet
289 422 m 1,0,-1
 289 524 l 1,1,-1
 137 524 l 1,2,-1
 137 422 l 1,3,-1
 45 422 l 1,4,-1
 45 288 l 1,5,-1
 137 288 l 1,6,-1
 137 186 l 1,7,-1
 289 186 l 1,8,-1
 289 288 l 1,9,-1
 380 288 l 1,10,-1
 380 422 l 1,11,-1
 289 422 l 1,0,-1
EndSplineSet
EndChar

StartChar: comma
Encoding: 44 44 15
Width: 248
GlyphClass: 1
Flags: W
LayerCount: 2
Fore
SplineSet
87 -160 m 1,0,-1
 212 100 l 1,1,-1
 70 100 l 1,2,-1
 13 -160 l 1,3,-1
 87 -160 l 1,0,-1
EndSplineSet
EndChar

StartChar: hyphen
Encoding: 45 45 16
Width: 415
GlyphClass: 1
Flags: W
LayerCount: 2
Fore
SplineSet
362 199 m 1,0,-1
 362 351 l 1,1,-1
 53 351 l 1,2,-1
 53 199 l 1,3,-1
 362 199 l 1,0,-1
EndSplineSet
EndChar

StartChar: period
Encoding: 46 46 17
Width: 244
GlyphClass: 1
Flags: W
LayerCount: 2
Fore
SplineSet
35 76 m 0,0,1
 35 41 35 41 60.5 15.5 c 128,-1,2
 86 -10 86 -10 122 -10 c 0,3,4
 157 -10 157 -10 182.5 15.5 c 128,-1,5
 208 41 208 41 208 76 c 0,6,7
 208 112 208 112 182.5 137.5 c 128,-1,8
 157 163 157 163 122 163 c 0,9,10
 86 163 86 163 60.5 137.5 c 128,-1,11
 35 112 35 112 35 76 c 0,0,1
EndSplineSet
EndChar

StartChar: slash
Encoding: 47 47 18
Width: 748
GlyphClass: 1
Flags: W
LayerCount: 2
Fore
SplineSet
534 710 m 1,0,-1
 26 0 l 1,1,-1
 213 0 l 1,2,-1
 722 710 l 1,3,-1
 534 710 l 1,0,-1
EndSplineSet
Substitution2: "'frac' Diagonal Fractions lookup 21 subtable" fraction
Substitution2: "'aalt' Access All Alternates lookup 0 subtable" fraction
EndChar

StartChar: zero
Encoding: 48 48 19
Width: 709
GlyphClass: 1
Flags: W
LayerCount: 2
Fore
SplineSet
355 -10 m 0,0,1
 428 -10 428 -10 487 22 c 128,-1,2
 546 54 546 54 587 105 c 128,-1,3
 628 156 628 156 650 220.5 c 128,-1,4
 672 285 672 285 672 350 c 0,5,6
 672 408 672 408 651.5 471.5 c 128,-1,7
 631 535 631 535 591.5 588 c 128,-1,8
 552 641 552 641 492.5 675.5 c 128,-1,9
 433 710 433 710 355 710 c 0,10,11
 281 710 281 710 222.5 678 c 128,-1,12
 164 646 164 646 123 594.5 c 128,-1,13
 82 543 82 543 59.5 478.5 c 128,-1,14
 37 414 37 414 37 350 c 0,15,16
 37 290 37 290 57.5 226.5 c 128,-1,17
 78 163 78 163 118 110.5 c 128,-1,18
 158 58 158 58 217.5 24 c 128,-1,19
 277 -10 277 -10 355 -10 c 0,0,1
214 350 m 0,20,21
 214 383 214 383 221.5 418.5 c 128,-1,22
 229 454 229 454 246 485 c 128,-1,23
 263 516 263 516 290 535.5 c 128,-1,24
 317 555 317 555 355 555 c 0,25,26
 391 555 391 555 417.5 536.5 c 128,-1,27
 444 518 444 518 461 488.5 c 128,-1,28
 478 459 478 459 486.5 422.5 c 128,-1,29
 495 386 495 386 495 350 c 0,30,31
 495 317 495 317 487.5 281.5 c 128,-1,32
 480 246 480 246 463 215 c 128,-1,33
 446 184 446 184 419.5 164.5 c 128,-1,34
 393 145 393 145 355 145 c 0,35,36
 318 145 318 145 291.5 163.5 c 128,-1,37
 265 182 265 182 248 211.5 c 128,-1,38
 231 241 231 241 222.5 277.5 c 128,-1,39
 214 314 214 314 214 350 c 0,20,21
EndSplineSet
Substitution2: "'tnum' Tabular Numbers lookup 41 subtable" zero.tnum
Substitution2: "'frac' Diagonal Fractions lookup 22 subtable" zero.numr
Substitution2: "'dnom' Denominators lookup 20 subtable" zero.dnom
Substitution2: "'numr' Numerators lookup 19 subtable" zero.numr
Substitution2: "'sups' Superscript lookup 18 subtable" uni2070
Substitution2: "'sinf' Scientific Inferiors lookup 17 subtable" zero.subs
Substitution2: "'subs' Subscript lookup 16 subtable" uni2080
AlternateSubs2: "'aalt' Access All Alternates lookup 1 subtable" uni2080 zero.subs uni2070 zero.numr zero.dnom
EndChar

StartChar: one
Encoding: 49 49 20
Width: 469
GlyphClass: 1
Flags: W
LayerCount: 2
Fore
SplineSet
379 716 m 1,0,-1
 206 716 l 2,1,2
 205 715 205 715 189.5 699.5 c 128,-1,3
 174 684 174 684 150.5 666.5 c 128,-1,4
 127 649 127 649 98 634.5 c 128,-1,5
 69 620 69 620 42 620 c 1,6,-1
 42 465 l 1,7,8
 62 465 62 465 87.5 474 c 128,-1,9
 113 483 113 483 136.5 496.5 c 128,-1,10
 160 510 160 510 179 524.5 c 128,-1,11
 198 539 198 539 206 551 c 1,12,-1
 206 0 l 1,13,-1
 379 0 l 1,14,-1
 379 716 l 1,0,-1
EndSplineSet
Substitution2: "'tnum' Tabular Numbers lookup 41 subtable" one.tnum
Substitution2: "'frac' Diagonal Fractions lookup 22 subtable" one.numr
Substitution2: "'dnom' Denominators lookup 20 subtable" one.dnom
Substitution2: "'numr' Numerators lookup 19 subtable" one.numr
Substitution2: "'sups' Superscript lookup 18 subtable" onesuperior
Substitution2: "'sinf' Scientific Inferiors lookup 17 subtable" one.subs
Substitution2: "'subs' Subscript lookup 16 subtable" uni2081
AlternateSubs2: "'aalt' Access All Alternates lookup 1 subtable" uni2081 one.subs onesuperior one.numr one.dnom
EndChar

StartChar: two
Encoding: 50 50 21
Width: 623
GlyphClass: 1
Flags: W
LayerCount: 2
Fore
SplineSet
574 0 m 1,0,-1
 574 152 l 1,1,-1
 250 152 l 1,2,3
 261 165 261 165 272.5 177 c 128,-1,4
 284 189 284 189 302.5 203 c 128,-1,5
 321 217 321 217 348.5 235.5 c 128,-1,6
 376 254 376 254 419 279 c 0,7,8
 452 299 452 299 480 321 c 128,-1,9
 508 343 508 343 528.5 370.5 c 128,-1,10
 549 398 549 398 561 430.5 c 128,-1,11
 573 463 573 463 573 504 c 0,12,13
 573 552 573 552 556.5 592 c 128,-1,14
 540 632 540 632 508 660 c 128,-1,15
 476 688 476 688 429.5 703 c 128,-1,16
 383 718 383 718 323 718 c 0,17,18
 273 718 273 718 229 708 c 128,-1,19
 185 698 185 698 148.5 681 c 128,-1,20
 112 664 112 664 84.5 644 c 128,-1,21
 57 624 57 624 39 604 c 1,22,-1
 144 491 l 1,23,24
 158 505 158 505 175.5 518.5 c 128,-1,25
 193 532 193 532 213 543 c 128,-1,26
 233 554 233 554 255.5 560.5 c 128,-1,27
 278 567 278 567 300 567 c 0,28,29
 317 567 317 567 331.5 563 c 128,-1,30
 346 559 346 559 356.5 549.5 c 128,-1,31
 367 540 367 540 373 526 c 128,-1,32
 379 512 379 512 379 493 c 0,33,34
 379 459 379 459 359.5 433 c 128,-1,35
 340 407 340 407 310.5 386 c 128,-1,36
 281 365 281 365 245.5 347 c 128,-1,37
 210 329 210 329 178 310 c 0,38,39
 135 283 135 283 107.5 254.5 c 128,-1,40
 80 226 80 226 64.5 190.5 c 128,-1,41
 49 155 49 155 43.5 108.5 c 128,-1,42
 38 62 38 62 38 0 c 1,43,-1
 574 0 l 1,0,-1
EndSplineSet
Substitution2: "'tnum' Tabular Numbers lookup 41 subtable" two.tnum
Substitution2: "'frac' Diagonal Fractions lookup 22 subtable" two.numr
Substitution2: "'dnom' Denominators lookup 20 subtable" two.dnom
Substitution2: "'numr' Numerators lookup 19 subtable" two.numr
Substitution2: "'sups' Superscript lookup 18 subtable" twosuperior
Substitution2: "'sinf' Scientific Inferiors lookup 17 subtable" two.subs
Substitution2: "'subs' Subscript lookup 16 subtable" uni2082
AlternateSubs2: "'aalt' Access All Alternates lookup 1 subtable" uni2082 two.subs twosuperior two.numr two.dnom
EndChar

StartChar: three
Encoding: 51 51 22
Width: 586
GlyphClass: 1
Flags: W
LayerCount: 2
Fore
SplineSet
264 -6 m 0,0,1
 327 -6 327 -6 378.5 8 c 128,-1,2
 430 22 430 22 466.5 48 c 128,-1,3
 503 74 503 74 523.5 112 c 128,-1,4
 544 150 544 150 544 196 c 0,5,6
 544 231 544 231 533.5 261 c 128,-1,7
 523 291 523 291 504 315 c 128,-1,8
 485 339 485 339 459 355 c 128,-1,9
 433 371 433 371 401 377 c 1,10,11
 430 382 430 382 454 397 c 128,-1,12
 478 412 478 412 495.5 433.5 c 128,-1,13
 513 455 513 455 522.5 481.5 c 128,-1,14
 532 508 532 508 532 538 c 0,15,16
 532 579 532 579 514 612 c 128,-1,17
 496 645 496 645 464 668.5 c 128,-1,18
 432 692 432 692 386.5 705 c 128,-1,19
 341 718 341 718 286 718 c 0,20,21
 247 718 247 718 208.5 711.5 c 128,-1,22
 170 705 170 705 136.5 692.5 c 128,-1,23
 103 680 103 680 76 662.5 c 128,-1,24
 49 645 49 645 31 624 c 1,25,-1
 139 499 l 1,26,27
 161 534 161 534 194.5 554 c 128,-1,28
 228 574 228 574 269 574 c 0,29,30
 286 574 286 574 301.5 569.5 c 128,-1,31
 317 565 317 565 327.5 556.5 c 128,-1,32
 338 548 338 548 344 536 c 128,-1,33
 350 524 350 524 350 509 c 0,34,35
 350 471 350 471 316 450.5 c 128,-1,36
 282 430 282 430 225 430 c 2,37,-1
 190 430 l 1,38,-1
 190 309 l 1,39,-1
 221 309 l 2,40,41
 259 309 259 309 286.5 304 c 128,-1,42
 314 299 314 299 332 289 c 128,-1,43
 350 279 350 279 359 263.5 c 128,-1,44
 368 248 368 248 368 227 c 0,45,46
 368 207 368 207 361 193 c 128,-1,47
 354 179 354 179 339.5 169 c 128,-1,48
 325 159 325 159 304.5 154 c 128,-1,49
 284 149 284 149 256 149 c 0,50,51
 233 149 233 149 212.5 152.5 c 128,-1,52
 192 156 192 156 174.5 162.5 c 128,-1,53
 157 169 157 169 141 179 c 128,-1,54
 125 189 125 189 112 202 c 1,55,-1
 22 80 l 1,56,57
 45 59 45 59 71 43 c 128,-1,58
 97 27 97 27 127 16 c 128,-1,59
 157 5 157 5 191.5 -0.5 c 128,-1,60
 226 -6 226 -6 264 -6 c 0,0,1
EndSplineSet
Substitution2: "'tnum' Tabular Numbers lookup 41 subtable" three.tnum
Substitution2: "'frac' Diagonal Fractions lookup 22 subtable" three.numr
Substitution2: "'dnom' Denominators lookup 20 subtable" three.dnom
Substitution2: "'numr' Numerators lookup 19 subtable" three.numr
Substitution2: "'sups' Superscript lookup 18 subtable" threesuperior
Substitution2: "'sinf' Scientific Inferiors lookup 17 subtable" three.subs
Substitution2: "'subs' Subscript lookup 16 subtable" uni2083
AlternateSubs2: "'aalt' Access All Alternates lookup 1 subtable" uni2083 three.subs threesuperior three.numr three.dnom
EndChar

StartChar: four
Encoding: 52 52 23
Width: 593
GlyphClass: 1
Flags: W
LayerCount: 2
Fore
SplineSet
467 1 m 1,0,-1
 467 146 l 1,1,-1
 555 146 l 1,2,-1
 555 298 l 1,3,-1
 467 298 l 1,4,-1
 467 711 l 1,5,-1
 351 711 l 1,6,-1
 25 298 l 1,7,-1
 25 146 l 1,8,-1
 298 146 l 1,9,-1
 298 1 l 1,10,-1
 467 1 l 1,0,-1
317 457 m 1,11,-1
 317 298 l 1,12,-1
 193 298 l 1,13,-1
 317 457 l 1,11,-1
EndSplineSet
Substitution2: "'tnum' Tabular Numbers lookup 41 subtable" four.tnum
Substitution2: "'frac' Diagonal Fractions lookup 22 subtable" four.numr
Substitution2: "'dnom' Denominators lookup 20 subtable" four.dnom
Substitution2: "'numr' Numerators lookup 19 subtable" four.numr
Substitution2: "'sups' Superscript lookup 18 subtable" uni2074
Substitution2: "'sinf' Scientific Inferiors lookup 17 subtable" four.subs
Substitution2: "'subs' Subscript lookup 16 subtable" uni2084
AlternateSubs2: "'aalt' Access All Alternates lookup 1 subtable" uni2084 four.subs uni2074 four.numr four.dnom
EndChar

StartChar: five
Encoding: 53 53 24
Width: 577
GlyphClass: 1
Flags: W
LayerCount: 2
Fore
SplineSet
270 -9 m 0,0,1
 330 -9 330 -9 379.5 8.5 c 128,-1,2
 429 26 429 26 465 58 c 128,-1,3
 501 90 501 90 520.5 135 c 128,-1,4
 540 180 540 180 540 233 c 0,5,6
 540 284 540 284 522.5 326.5 c 128,-1,7
 505 369 505 369 473.5 399.5 c 128,-1,8
 442 430 442 430 399.5 446.5 c 128,-1,9
 357 463 357 463 305 463 c 0,10,11
 278 463 278 463 262.5 458.5 c 128,-1,12
 247 454 247 454 242 449 c 1,13,-1
 260 556 l 1,14,-1
 491 556 l 1,15,-1
 491 711 l 1,16,-1
 137 711 l 1,17,-1
 54 276 l 1,18,-1
 200 276 l 1,19,20
 212 296 212 296 233.5 307.5 c 128,-1,21
 255 319 255 319 281 319 c 0,22,23
 299 319 299 319 315 312.5 c 128,-1,24
 331 306 331 306 342.5 294 c 128,-1,25
 354 282 354 282 360 266 c 128,-1,26
 366 250 366 250 366 230 c 0,27,28
 366 209 366 209 359.5 192.5 c 128,-1,29
 353 176 353 176 340.5 164 c 128,-1,30
 328 152 328 152 310 145.5 c 128,-1,31
 292 139 292 139 271 139 c 0,32,33
 233 139 233 139 195.5 158.5 c 128,-1,34
 158 178 158 178 129 213 c 1,35,-1
 35 107 l 1,36,37
 68 52 68 52 130.5 21.5 c 128,-1,38
 193 -9 193 -9 270 -9 c 0,0,1
EndSplineSet
Substitution2: "'tnum' Tabular Numbers lookup 41 subtable" five.tnum
Substitution2: "'frac' Diagonal Fractions lookup 22 subtable" five.numr
Substitution2: "'dnom' Denominators lookup 20 subtable" five.dnom
Substitution2: "'numr' Numerators lookup 19 subtable" five.numr
Substitution2: "'sups' Superscript lookup 18 subtable" uni2075
Substitution2: "'sinf' Scientific Inferiors lookup 17 subtable" five.subs
Substitution2: "'subs' Subscript lookup 16 subtable" uni2085
AlternateSubs2: "'aalt' Access All Alternates lookup 1 subtable" uni2085 five.subs uni2075 five.numr five.dnom
EndChar

StartChar: six
Encoding: 54 54 25
Width: 608
GlyphClass: 1
Flags: W
LayerCount: 2
Fore
SplineSet
570 239 m 0,0,1
 570 187 570 187 550 141.5 c 128,-1,2
 530 96 530 96 494.5 62.5 c 128,-1,3
 459 29 459 29 411 9.5 c 128,-1,4
 363 -10 363 -10 306 -10 c 0,5,6
 244 -10 244 -10 195 13 c 128,-1,7
 146 36 146 36 112 80 c 128,-1,8
 78 124 78 124 59.5 187 c 128,-1,9
 41 250 41 250 41 331 c 0,10,11
 41 423 41 423 60.5 494 c 128,-1,12
 80 565 80 565 116.5 614.5 c 128,-1,13
 153 664 153 664 205.5 690 c 128,-1,14
 258 716 258 716 323 716 c 0,15,16
 389 716 389 716 445.5 690 c 128,-1,17
 502 664 502 664 547 614 c 1,18,-1
 452 506 l 1,19,20
 427 536 427 536 393 552.5 c 128,-1,21
 359 569 359 569 321 569 c 0,22,23
 293 569 293 569 271 559.5 c 128,-1,24
 249 550 249 550 233 531 c 128,-1,25
 217 512 217 512 208 485 c 128,-1,26
 199 458 199 458 198 423 c 1,27,28
 208 436 208 436 221 445 c 128,-1,29
 234 454 234 454 249.5 460.5 c 128,-1,30
 265 467 265 467 282.5 470 c 128,-1,31
 300 473 300 473 321 473 c 0,32,33
 374 473 374 473 419.5 455.5 c 128,-1,34
 465 438 465 438 498.5 406.5 c 128,-1,35
 532 375 532 375 551 332 c 128,-1,36
 570 289 570 289 570 239 c 0,0,1
307 132 m 0,37,38
 327 132 327 132 345.5 141 c 128,-1,39
 364 150 364 150 378 164.5 c 128,-1,40
 392 179 392 179 400 198.5 c 128,-1,41
 408 218 408 218 408 239 c 256,42,43
 408 260 408 260 400.5 278.5 c 128,-1,44
 393 297 393 297 379 310.5 c 128,-1,45
 365 324 365 324 346.5 332 c 128,-1,46
 328 340 328 340 307 340 c 0,47,48
 285 340 285 340 266.5 332 c 128,-1,49
 248 324 248 324 234.5 310.5 c 128,-1,50
 221 297 221 297 213 278.5 c 128,-1,51
 205 260 205 260 205 239 c 256,52,53
 205 218 205 218 213 198.5 c 128,-1,54
 221 179 221 179 235 164.5 c 128,-1,55
 249 150 249 150 267.5 141 c 128,-1,56
 286 132 286 132 307 132 c 0,37,38
EndSplineSet
Substitution2: "'tnum' Tabular Numbers lookup 41 subtable" six.tnum
Substitution2: "'frac' Diagonal Fractions lookup 22 subtable" six.numr
Substitution2: "'dnom' Denominators lookup 20 subtable" six.dnom
Substitution2: "'numr' Numerators lookup 19 subtable" six.numr
Substitution2: "'sups' Superscript lookup 18 subtable" uni2076
Substitution2: "'sinf' Scientific Inferiors lookup 17 subtable" six.subs
Substitution2: "'subs' Subscript lookup 16 subtable" uni2086
AlternateSubs2: "'aalt' Access All Alternates lookup 1 subtable" uni2086 six.subs uni2076 six.numr six.dnom
EndChar

StartChar: seven
Encoding: 55 55 26
Width: 585
GlyphClass: 1
Flags: W
LayerCount: 2
Fore
SplineSet
51 1 m 1,0,-1
 243 1 l 1,1,-1
 592 711 l 1,2,-1
 35 711 l 1,3,-1
 35 556 l 1,4,-1
 325 556 l 1,5,-1
 51 1 l 1,0,-1
EndSplineSet
Substitution2: "'tnum' Tabular Numbers lookup 41 subtable" seven.tnum
Substitution2: "'frac' Diagonal Fractions lookup 22 subtable" seven.numr
Substitution2: "'dnom' Denominators lookup 20 subtable" seven.dnom
Substitution2: "'numr' Numerators lookup 19 subtable" seven.numr
Substitution2: "'sups' Superscript lookup 18 subtable" uni2077
Substitution2: "'sinf' Scientific Inferiors lookup 17 subtable" seven.subs
Substitution2: "'subs' Subscript lookup 16 subtable" uni2087
AlternateSubs2: "'aalt' Access All Alternates lookup 1 subtable" uni2087 seven.subs uni2077 seven.numr seven.dnom
EndChar

StartChar: eight
Encoding: 56 56 27
Width: 608
GlyphClass: 1
Flags: W
LayerCount: 2
Fore
SplineSet
568 217 m 0,0,1
 568 246 568 246 559.5 271 c 128,-1,2
 551 296 551 296 538 316.5 c 128,-1,3
 525 337 525 337 507.5 352.5 c 128,-1,4
 490 368 490 368 473 379 c 1,5,6
 488 387 488 387 502 401.5 c 128,-1,7
 516 416 516 416 526.5 433 c 128,-1,8
 537 450 537 450 542.5 468.5 c 128,-1,9
 548 487 548 487 548 506 c 0,10,11
 548 556 548 556 525.5 594.5 c 128,-1,12
 503 633 503 633 467 658.5 c 128,-1,13
 431 684 431 684 388 697 c 128,-1,14
 345 710 345 710 304 710 c 256,15,16
 263 710 263 710 220 697 c 128,-1,17
 177 684 177 684 141.5 657.5 c 128,-1,18
 106 631 106 631 83 592.5 c 128,-1,19
 60 554 60 554 60 504 c 0,20,21
 60 485 60 485 66 466.5 c 128,-1,22
 72 448 72 448 82 431.5 c 128,-1,23
 92 415 92 415 105.5 401.5 c 128,-1,24
 119 388 119 388 135 379 c 1,25,26
 118 369 118 369 101 353.5 c 128,-1,27
 84 338 84 338 70.5 318.5 c 128,-1,28
 57 299 57 299 48 275 c 128,-1,29
 39 251 39 251 39 223 c 0,30,31
 39 170 39 170 60.5 127 c 128,-1,32
 82 84 82 84 118.5 53.5 c 128,-1,33
 155 23 155 23 202.5 6.5 c 128,-1,34
 250 -10 250 -10 303 -10 c 0,35,36
 358 -10 358 -10 406 6.5 c 128,-1,37
 454 23 454 23 490.5 52.5 c 128,-1,38
 527 82 527 82 547.5 124 c 128,-1,39
 568 166 568 166 568 217 c 0,0,1
396 227 m 0,40,41
 396 210 396 210 389 195 c 128,-1,42
 382 180 382 180 369.5 168.5 c 128,-1,43
 357 157 357 157 340.5 151 c 128,-1,44
 324 145 324 145 304 145 c 0,45,46
 285 145 285 145 268.5 151 c 128,-1,47
 252 157 252 157 239.5 167.5 c 128,-1,48
 227 178 227 178 219.5 193.5 c 128,-1,49
 212 209 212 209 212 227 c 0,50,51
 212 246 212 246 219 261 c 128,-1,52
 226 276 226 276 238.5 287 c 128,-1,53
 251 298 251 298 268 303.5 c 128,-1,54
 285 309 285 309 304 309 c 0,55,56
 322 309 322 309 339 304 c 128,-1,57
 356 299 356 299 368.5 288 c 128,-1,58
 381 277 381 277 388.5 262 c 128,-1,59
 396 247 396 247 396 227 c 0,40,41
232 500 m 0,60,61
 232 513 232 513 237.5 524 c 128,-1,62
 243 535 243 535 252.5 543 c 128,-1,63
 262 551 262 551 275.5 556 c 128,-1,64
 289 561 289 561 304 561 c 256,65,66
 319 561 319 561 332 556 c 128,-1,67
 345 551 345 551 355 543 c 128,-1,68
 365 535 365 535 370.5 524.5 c 128,-1,69
 376 514 376 514 376 501 c 0,70,71
 376 485 376 485 369.5 472.5 c 128,-1,72
 363 460 363 460 352.5 452 c 128,-1,73
 342 444 342 444 329.5 440 c 128,-1,74
 317 436 317 436 304 436 c 256,75,76
 291 436 291 436 278 439.5 c 128,-1,77
 265 443 265 443 255 451.5 c 128,-1,78
 245 460 245 460 238.5 472 c 128,-1,79
 232 484 232 484 232 500 c 0,60,61
EndSplineSet
Substitution2: "'tnum' Tabular Numbers lookup 41 subtable" eight.tnum
Substitution2: "'frac' Diagonal Fractions lookup 22 subtable" eight.numr
Substitution2: "'dnom' Denominators lookup 20 subtable" eight.dnom
Substitution2: "'numr' Numerators lookup 19 subtable" eight.numr
Substitution2: "'sups' Superscript lookup 18 subtable" uni2078
Substitution2: "'sinf' Scientific Inferiors lookup 17 subtable" eight.subs
Substitution2: "'subs' Subscript lookup 16 subtable" uni2088
AlternateSubs2: "'aalt' Access All Alternates lookup 1 subtable" uni2088 eight.subs uni2078 eight.numr eight.dnom
EndChar

StartChar: nine
Encoding: 57 57 28
Width: 608
GlyphClass: 1
Flags: W
LayerCount: 2
Fore
SplineSet
38 467 m 0,0,1
 38 519 38 519 57.5 564.5 c 128,-1,2
 77 610 77 610 113 643.5 c 128,-1,3
 149 677 149 677 197 696.5 c 128,-1,4
 245 716 245 716 301 716 c 0,5,6
 364 716 364 716 413 693 c 128,-1,7
 462 670 462 670 496 626 c 128,-1,8
 530 582 530 582 548 519 c 128,-1,9
 566 456 566 456 566 375 c 0,10,11
 566 283 566 283 546.5 212 c 128,-1,12
 527 141 527 141 490.5 91.5 c 128,-1,13
 454 42 454 42 402 16 c 128,-1,14
 350 -10 350 -10 284 -10 c 256,15,16
 218 -10 218 -10 161.5 16 c 128,-1,17
 105 42 105 42 61 92 c 1,18,-1
 155 200 l 1,19,20
 181 170 181 170 215 153.5 c 128,-1,21
 249 137 249 137 287 137 c 0,22,23
 314 137 314 137 336.5 146.5 c 128,-1,24
 359 156 359 156 375 175 c 128,-1,25
 391 194 391 194 400 221 c 128,-1,26
 409 248 409 248 410 283 c 1,27,28
 399 270 399 270 386.5 261 c 128,-1,29
 374 252 374 252 358.5 245.5 c 128,-1,30
 343 239 343 239 325 236 c 128,-1,31
 307 233 307 233 287 233 c 0,32,33
 233 233 233 233 187.5 250.5 c 128,-1,34
 142 268 142 268 109 299.5 c 128,-1,35
 76 331 76 331 57 374 c 128,-1,36
 38 417 38 417 38 467 c 0,0,1
301 574 m 0,37,38
 281 574 281 574 262 565 c 128,-1,39
 243 556 243 556 229.5 541.5 c 128,-1,40
 216 527 216 527 207.5 507.5 c 128,-1,41
 199 488 199 488 199 467 c 256,42,43
 199 446 199 446 207 427.5 c 128,-1,44
 215 409 215 409 229 395.5 c 128,-1,45
 243 382 243 382 261.5 374 c 128,-1,46
 280 366 280 366 301 366 c 0,47,48
 323 366 323 366 341.5 374 c 128,-1,49
 360 382 360 382 373.5 395.5 c 128,-1,50
 387 409 387 409 395 427.5 c 128,-1,51
 403 446 403 446 403 467 c 256,52,53
 403 488 403 488 394.5 507.5 c 128,-1,54
 386 527 386 527 372.5 541.5 c 128,-1,55
 359 556 359 556 340.5 565 c 128,-1,56
 322 574 322 574 301 574 c 0,37,38
EndSplineSet
Substitution2: "'tnum' Tabular Numbers lookup 41 subtable" nine.tnum
Substitution2: "'frac' Diagonal Fractions lookup 22 subtable" nine.numr
Substitution2: "'dnom' Denominators lookup 20 subtable" nine.dnom
Substitution2: "'numr' Numerators lookup 19 subtable" nine.numr
Substitution2: "'sups' Superscript lookup 18 subtable" uni2079
Substitution2: "'sinf' Scientific Inferiors lookup 17 subtable" nine.subs
Substitution2: "'subs' Subscript lookup 16 subtable" uni2089
AlternateSubs2: "'aalt' Access All Alternates lookup 1 subtable" uni2089 nine.subs uni2079 nine.numr nine.dnom
EndChar

StartChar: less
Encoding: 60 60 31
Width: 519
GlyphClass: 1
Flags: W
LayerCount: 2
Fore
SplineSet
31 215 m 1,0,-1
 455 -35 l 1,1,-1
 455 154 l 1,2,-1
 278 259 l 1,3,-1
 455 371 l 1,4,-1
 455 551 l 1,5,-1
 31 294 l 1,6,-1
 31 215 l 1,0,-1
EndSplineSet
EndChar

StartChar: equal
Encoding: 61 61 32
Width: 434
GlyphClass: 1
Flags: W
LayerCount: 2
Fore
SplineSet
377 117 m 1,0,-1
 377 225 l 1,1,-1
 57 225 l 1,2,-1
 57 117 l 1,3,-1
 377 117 l 1,0,-1
377 327 m 1,4,-1
 377 435 l 1,5,-1
 57 435 l 1,6,-1
 57 327 l 1,7,-1
 377 327 l 1,4,-1
EndSplineSet
EndChar

StartChar: greater
Encoding: 62 62 33
Width: 519
GlyphClass: 1
Flags: W
LayerCount: 2
Fore
SplineSet
487 294 m 1,0,-1
 64 551 l 1,1,-1
 64 371 l 1,2,-1
 241 259 l 1,3,-1
 64 154 l 1,4,-1
 64 -35 l 1,5,-1
 487 215 l 1,6,-1
 487 294 l 1,0,-1
EndSplineSet
EndChar

StartChar: question
Encoding: 63 63 34
Width: 492
GlyphClass: 1
Flags: W
LayerCount: 2
Fore
SplineSet
244 249 m 1,0,1
 244 270 244 270 255.5 283.5 c 128,-1,2
 267 297 267 297 285.5 309 c 128,-1,3
 304 321 304 321 326 332 c 128,-1,4
 348 343 348 343 369 357 c 0,5,6
 391 371 391 371 408 388 c 128,-1,7
 425 405 425 405 436 425 c 128,-1,8
 447 445 447 445 452.5 468 c 128,-1,9
 458 491 458 491 458 517 c 0,10,11
 458 572 458 572 439 610.5 c 128,-1,12
 420 649 420 649 389 673 c 128,-1,13
 358 697 358 697 320 708 c 128,-1,14
 282 719 282 719 244 719 c 0,15,16
 208 719 208 719 176 710 c 128,-1,17
 144 701 144 701 116.5 684.5 c 128,-1,18
 89 668 89 668 68 644 c 128,-1,19
 47 620 47 620 34 590 c 1,20,-1
 143 513 l 1,21,22
 149 523 149 523 157.5 535 c 128,-1,23
 166 547 166 547 177.5 557.5 c 128,-1,24
 189 568 189 568 203.5 575 c 128,-1,25
 218 582 218 582 238 582 c 0,26,27
 252 582 252 582 265.5 577.5 c 128,-1,28
 279 573 279 573 288.5 565 c 128,-1,29
 298 557 298 557 304 545 c 128,-1,30
 310 533 310 533 310 519 c 0,31,32
 310 495 310 495 295.5 476.5 c 128,-1,33
 281 458 281 458 260.5 443 c 128,-1,34
 240 428 240 428 218.5 417.5 c 128,-1,35
 197 407 197 407 185 400 c 0,36,37
 159 386 159 386 143 369 c 128,-1,38
 127 352 127 352 118.5 333 c 128,-1,39
 110 314 110 314 107.5 293 c 128,-1,40
 105 272 105 272 105 249 c 1,41,-1
 244 249 l 1,0,1
92 76 m 0,42,43
 92 41 92 41 117 15.5 c 128,-1,44
 142 -10 142 -10 178 -10 c 256,45,46
 214 -10 214 -10 239 15.5 c 128,-1,47
 264 41 264 41 264 76 c 0,48,49
 264 112 264 112 239 137.5 c 128,-1,50
 214 163 214 163 178 163 c 256,51,52
 142 163 142 163 117 137.5 c 128,-1,53
 92 112 92 112 92 76 c 0,42,43
EndSplineSet
EndChar

StartChar: at
Encoding: 64 64 35
Width: 850
GlyphClass: 1
Flags: W
LayerCount: 2
Fore
SplineSet
424 603 m 0,0,1
 348 603 348 603 278.5 579 c 128,-1,2
 209 555 209 555 155.5 507.5 c 128,-1,3
 102 460 102 460 70.5 391 c 128,-1,4
 39 322 39 322 39 231 c 0,5,6
 39 145 39 145 67.5 75.5 c 128,-1,7
 96 6 96 6 145.5 -43 c 128,-1,8
 195 -92 195 -92 261 -119 c 128,-1,9
 327 -146 327 -146 402 -146 c 0,10,11
 446 -146 446 -146 492 -136 c 128,-1,12
 538 -126 538 -126 580 -106 c 1,13,-1
 562 -44 l 1,14,15
 525 -59 525 -59 490 -70.5 c 128,-1,16
 455 -82 455 -82 404 -82 c 0,17,18
 334 -82 334 -82 279 -57.5 c 128,-1,19
 224 -33 224 -33 185.5 9.5 c 128,-1,20
 147 52 147 52 126.5 108.5 c 128,-1,21
 106 165 106 165 106 229 c 0,22,23
 106 296 106 296 128 353.5 c 128,-1,24
 150 411 150 411 190.5 452 c 128,-1,25
 231 493 231 493 289 516 c 128,-1,26
 347 539 347 539 419 539 c 256,27,28
 491 539 491 539 549.5 515.5 c 128,-1,29
 608 492 608 492 649.5 450 c 128,-1,30
 691 408 691 408 713.5 350.5 c 128,-1,31
 736 293 736 293 736 225 c 0,32,33
 736 207 736 207 733.5 178.5 c 128,-1,34
 731 150 731 150 723 123 c 128,-1,35
 715 96 715 96 700 76.5 c 128,-1,36
 685 57 685 57 660 57 c 0,37,38
 642 57 642 57 632.5 67.5 c 128,-1,39
 623 78 623 78 618 95 c 128,-1,40
 613 112 613 112 612 133.5 c 128,-1,41
 611 155 611 155 611 177 c 2,42,-1
 611 254 l 2,43,44
 611 288 611 288 607 324.5 c 128,-1,45
 603 361 603 361 584.5 393 c 128,-1,46
 566 425 566 425 527.5 445.5 c 128,-1,47
 489 466 489 466 419 466 c 0,48,49
 370 466 370 466 325.5 454 c 128,-1,50
 281 442 281 442 244 416 c 1,51,-1
 273 329 l 1,52,53
 295 348 295 348 328 359.5 c 128,-1,54
 361 371 361 371 403 371 c 0,55,56
 435 371 435 371 456.5 363.5 c 128,-1,57
 478 356 478 356 490 342.5 c 128,-1,58
 502 329 502 329 507 310 c 128,-1,59
 512 291 512 291 512 268 c 1,60,61
 497 275 497 275 470.5 282 c 128,-1,62
 444 289 444 289 405 289 c 0,63,64
 371 289 371 289 337.5 281.5 c 128,-1,65
 304 274 304 274 277.5 256.5 c 128,-1,66
 251 239 251 239 235 210 c 128,-1,67
 219 181 219 181 219 138 c 0,68,69
 219 73 219 73 258 34.5 c 128,-1,70
 297 -4 297 -4 374 -4 c 0,71,72
 422 -4 422 -4 466 12.5 c 128,-1,73
 510 29 510 29 543 60 c 1,74,75
 545 48 545 48 550.5 34.5 c 128,-1,76
 556 21 556 21 567.5 9.5 c 128,-1,77
 579 -2 579 -2 597.5 -9 c 128,-1,78
 616 -16 616 -16 643 -16 c 0,79,80
 700 -16 700 -16 732 13.5 c 128,-1,81
 764 43 764 43 780 82 c 128,-1,82
 796 121 796 121 799.5 160.5 c 128,-1,83
 803 200 803 200 803 221 c 0,84,85
 803 319 803 319 771.5 390.5 c 128,-1,86
 740 462 740 462 687 509 c 128,-1,87
 634 556 634 556 566 579.5 c 128,-1,88
 498 603 498 603 424 603 c 0,0,1
467 95 m 0,89,90
 447 85 447 85 424 81 c 128,-1,91
 401 77 401 77 385 77 c 0,92,93
 368 77 368 77 355.5 81 c 128,-1,94
 343 85 343 85 334.5 93 c 128,-1,95
 326 101 326 101 322 113 c 128,-1,96
 318 125 318 125 318 140 c 0,97,98
 318 158 318 158 323.5 172 c 128,-1,99
 329 186 329 186 340.5 194.5 c 128,-1,100
 352 203 352 203 368.5 207.5 c 128,-1,101
 385 212 385 212 407 212 c 0,102,103
 423 212 423 212 438.5 210 c 128,-1,104
 454 208 454 208 467.5 205 c 128,-1,105
 481 202 481 202 492.5 198.5 c 128,-1,106
 504 195 504 195 511 193 c 1,107,-1
 511 153 l 2,108,109
 511 144 511 144 507.5 135 c 128,-1,110
 504 126 504 126 498 119 c 128,-1,111
 492 112 492 112 484 105.5 c 128,-1,112
 476 99 476 99 467 95 c 0,89,90
EndSplineSet
EndChar

StartChar: A
Encoding: 65 65 36
Width: 669
GlyphClass: 1
Flags: W
LayerCount: 2
Fore
SplineSet
0 0 m 1,0,-1
 179 0 l 1,1,-1
 229 153 l 1,2,-1
 440 153 l 1,3,-1
 491 0 l 1,4,-1
 669 0 l 1,5,-1
 430 710 l 1,6,-1
 240 710 l 1,7,-1
 0 0 l 1,0,-1
256 271 m 1,8,-1
 335 536 l 1,9,-1
 411 271 l 1,10,-1
 256 271 l 1,8,-1
EndSplineSet
Substitution2: "Single Substitution lookup 45 subtable" ordfeminine
Substitution2: "'aalt' Access All Alternates lookup 0 subtable" ordfeminine
EndChar

StartChar: B
Encoding: 66 66 37
Width: 686
GlyphClass: 1
Flags: W
LayerCount: 2
Fore
SplineSet
658 182 m 0,0,1
 658 218 658 218 649 248 c 128,-1,2
 640 278 640 278 622.5 300.5 c 128,-1,3
 605 323 605 323 580.5 339 c 128,-1,4
 556 355 556 355 526 364 c 1,5,6
 577 387 577 387 602.5 432.5 c 128,-1,7
 628 478 628 478 628 528 c 0,8,9
 628 562 628 562 617 594.5 c 128,-1,10
 606 627 606 627 585 652.5 c 128,-1,11
 564 678 564 678 534 694 c 128,-1,12
 504 710 504 710 466 710 c 2,13,-1
 66 710 l 1,14,-1
 66 0 l 1,15,-1
 412 0 l 2,16,17
 463 0 463 0 507.5 11 c 128,-1,18
 552 22 552 22 585.5 44.5 c 128,-1,19
 619 67 619 67 638.5 101.5 c 128,-1,20
 658 136 658 136 658 182 c 0,0,1
481 217 m 256,21,22
 481 201 481 201 476 188.5 c 128,-1,23
 471 176 471 176 461.5 166.5 c 128,-1,24
 452 157 452 157 439.5 152 c 128,-1,25
 427 147 427 147 412 147 c 2,26,-1
 240 147 l 1,27,-1
 240 291 l 1,28,-1
 419 291 l 2,29,30
 433 291 433 291 444 285.5 c 128,-1,31
 455 280 455 280 463.5 269.5 c 128,-1,32
 472 259 472 259 476.5 246 c 128,-1,33
 481 233 481 233 481 217 c 256,21,22
397 562 m 2,34,35
 409 562 409 562 419.5 557.5 c 128,-1,36
 430 553 430 553 438 544.5 c 128,-1,37
 446 536 446 536 451 524 c 128,-1,38
 456 512 456 512 456 495 c 0,39,40
 456 477 456 477 450.5 464 c 128,-1,41
 445 451 445 451 436 443 c 128,-1,42
 427 435 427 435 415.5 431 c 128,-1,43
 404 427 404 427 391 427 c 2,44,-1
 240 427 l 1,45,-1
 240 562 l 1,46,-1
 397 562 l 2,34,35
EndSplineSet
EndChar

StartChar: C
Encoding: 67 67 38
Width: 689
GlyphClass: 1
Flags: W
LayerCount: 2
Fore
SplineSet
25 361 m 0,0,1
 25 293 25 293 51.5 227 c 128,-1,2
 78 161 78 161 124.5 109.5 c 128,-1,3
 171 58 171 58 235.5 26 c 128,-1,4
 300 -6 300 -6 378 -6 c 0,5,6
 422 -6 422 -6 468.5 5 c 128,-1,7
 515 16 515 16 556 37 c 128,-1,8
 597 58 597 58 629 89 c 128,-1,9
 661 120 661 120 677 159 c 1,10,-1
 535 243 l 1,11,12
 525 217 525 217 508 199.5 c 128,-1,13
 491 182 491 182 470 170.5 c 128,-1,14
 449 159 449 159 426 154 c 128,-1,15
 403 149 403 149 382 149 c 0,16,17
 341 149 341 149 307.5 166 c 128,-1,18
 274 183 274 183 250.5 211.5 c 128,-1,19
 227 240 227 240 214.5 277.5 c 128,-1,20
 202 315 202 315 202 355 c 0,21,22
 202 392 202 392 213 428.5 c 128,-1,23
 224 465 224 465 245.5 494 c 128,-1,24
 267 523 267 523 300.5 541 c 128,-1,25
 334 559 334 559 379 559 c 0,26,27
 401 559 401 559 424 555 c 128,-1,28
 447 551 447 551 468 540 c 128,-1,29
 489 529 489 529 506.5 511 c 128,-1,30
 524 493 524 493 536 465 c 1,31,-1
 669 559 l 1,32,33
 633 629 633 629 559 671.5 c 128,-1,34
 485 714 485 714 383 714 c 0,35,36
 299 714 299 714 232.5 683 c 128,-1,37
 166 652 166 652 120 602 c 128,-1,38
 74 552 74 552 49.5 489 c 128,-1,39
 25 426 25 426 25 361 c 0,0,1
EndSplineSet
EndChar

StartChar: D
Encoding: 68 68 39
Width: 716
GlyphClass: 1
Flags: W
LayerCount: 2
Fore
SplineSet
333 0 m 2,0,1
 414 0 414 0 479.5 25.5 c 128,-1,2
 545 51 545 51 591.5 97.5 c 128,-1,3
 638 144 638 144 663 209.5 c 128,-1,4
 688 275 688 275 688 356 c 0,5,6
 688 430 688 430 666 494.5 c 128,-1,7
 644 559 644 559 599.5 607 c 128,-1,8
 555 655 555 655 488.5 682.5 c 128,-1,9
 422 710 422 710 333 710 c 2,10,-1
 66 710 l 1,11,-1
 66 0 l 1,12,-1
 333 0 l 2,0,1
512 356 m 256,13,14
 512 312 512 312 500 275 c 128,-1,15
 488 238 488 238 465.5 210.5 c 128,-1,16
 443 183 443 183 409.5 167.5 c 128,-1,17
 376 152 376 152 333 152 c 2,18,-1
 240 152 l 1,19,-1
 240 558 l 1,20,-1
 333 558 l 2,21,22
 376 558 376 558 409 543 c 128,-1,23
 442 528 442 528 465 501.5 c 128,-1,24
 488 475 488 475 500 437.5 c 128,-1,25
 512 400 512 400 512 356 c 256,13,14
EndSplineSet
EndChar

StartChar: E
Encoding: 69 69 40
Width: 599
GlyphClass: 1
Flags: W
LayerCount: 2
Fore
SplineSet
240 152 m 1,0,-1
 240 291 l 1,1,-1
 513 291 l 1,2,-1
 513 432 l 1,3,-1
 240 432 l 1,4,-1
 240 558 l 1,5,-1
 558 558 l 1,6,-1
 558 710 l 1,7,-1
 66 710 l 1,8,-1
 66 0 l 1,9,-1
 567 0 l 1,10,-1
 567 152 l 1,11,-1
 240 152 l 1,0,-1
EndSplineSet
EndChar

StartChar: F
Encoding: 70 70 41
Width: 567
GlyphClass: 1
Flags: W
LayerCount: 2
Fore
SplineSet
240 0 m 1,0,-1
 240 275 l 1,1,-1
 494 275 l 1,2,-1
 494 416 l 1,3,-1
 240 416 l 1,4,-1
 240 558 l 1,5,-1
 549 558 l 1,6,-1
 549 710 l 1,7,-1
 66 710 l 1,8,-1
 66 0 l 1,9,-1
 240 0 l 1,0,-1
EndSplineSet
EndChar

StartChar: G
Encoding: 71 71 42
Width: 715
GlyphClass: 1
Flags: W
LayerCount: 2
Fore
SplineSet
367 -5 m 0,0,1
 409 -5 409 -5 446 -0.5 c 128,-1,2
 483 4 483 4 519 16 c 128,-1,3
 555 28 555 28 590 49 c 128,-1,4
 625 70 625 70 663 104 c 1,5,-1
 663 390 l 1,6,-1
 348 390 l 1,7,-1
 351 246 l 1,8,-1
 485 246 l 1,9,-1
 485 177 l 1,10,11
 469 168 469 168 458 161.5 c 128,-1,12
 447 155 447 155 435 152 c 128,-1,13
 423 149 423 149 407.5 147.5 c 128,-1,14
 392 146 392 146 368 146 c 0,15,16
 324 146 324 146 293 166 c 128,-1,17
 262 186 262 186 241.5 216 c 128,-1,18
 221 246 221 246 211.5 283.5 c 128,-1,19
 202 321 202 321 202 356 c 0,20,21
 202 394 202 394 212.5 430.5 c 128,-1,22
 223 467 223 467 243 496 c 128,-1,23
 263 525 263 525 293.5 542.5 c 128,-1,24
 324 560 324 560 364 560 c 0,25,26
 398 560 398 560 423.5 548 c 128,-1,27
 449 536 449 536 466.5 519.5 c 128,-1,28
 484 503 484 503 494 486 c 128,-1,29
 504 469 504 469 509 460 c 1,30,-1
 647 569 l 1,31,32
 606 639 606 639 536.5 677 c 128,-1,33
 467 715 467 715 375 715 c 0,34,35
 294 715 294 715 229 685.5 c 128,-1,36
 164 656 164 656 119 606.5 c 128,-1,37
 74 557 74 557 50 491.5 c 128,-1,38
 26 426 26 426 26 356 c 0,39,40
 26 287 26 287 48.5 222 c 128,-1,41
 71 157 71 157 115 106.5 c 128,-1,42
 159 56 159 56 222.5 25.5 c 128,-1,43
 286 -5 286 -5 367 -5 c 0,0,1
EndSplineSet
Substitution2: "'ss11' Style Set 11 lookup 39 subtable" G.ss11
Substitution2: "'aalt' Access All Alternates lookup 0 subtable" G.ss11
EndChar

StartChar: H
Encoding: 72 72 43
Width: 748
GlyphClass: 1
Flags: W
LayerCount: 2
Fore
SplineSet
508 710 m 1,0,-1
 508 439 l 1,1,-1
 240 439 l 1,2,-1
 240 710 l 1,3,-1
 66 710 l 1,4,-1
 66 0 l 1,5,-1
 240 0 l 1,6,-1
 240 287 l 1,7,-1
 508 287 l 1,8,-1
 508 0 l 1,9,-1
 682 0 l 1,10,-1
 682 710 l 1,11,-1
 508 710 l 1,0,-1
EndSplineSet
EndChar

StartChar: I
Encoding: 73 73 44
Width: 306
GlyphClass: 1
Flags: W
LayerCount: 2
Fore
SplineSet
240 0 m 1,0,-1
 240 710 l 1,1,-1
 66 710 l 1,2,-1
 66 0 l 1,3,-1
 240 0 l 1,0,-1
EndSplineSet
EndChar

StartChar: J
Encoding: 74 74 45
Width: 570
GlyphClass: 2
Flags: W
LayerCount: 2
Fore
SplineSet
243 -6 m 0,0,1
 201 -6 201 -6 162.5 6.5 c 128,-1,2
 124 19 124 19 93 42 c 128,-1,3
 62 65 62 65 39 98 c 128,-1,4
 16 131 16 131 4 172 c 1,5,-1
 149 237 l 1,6,7
 156 219 156 219 163.5 203 c 128,-1,8
 171 187 171 187 182 174.5 c 128,-1,9
 193 162 193 162 208 155.5 c 128,-1,10
 223 149 223 149 246 149 c 0,11,12
 273 149 273 149 290.5 158 c 128,-1,13
 308 167 308 167 318.5 182 c 128,-1,14
 329 197 329 197 333 218 c 128,-1,15
 337 239 337 239 337 262 c 2,16,-1
 337 710 l 1,17,-1
 504 710 l 1,18,-1
 504 245 l 2,19,20
 504 189 504 189 484 142.5 c 128,-1,21
 464 96 464 96 429 63 c 128,-1,22
 394 30 394 30 346.5 12 c 128,-1,23
 299 -6 299 -6 243 -6 c 0,0,1
EndSplineSet
EndChar

StartChar: K
Encoding: 75 75 46
Width: 682
GlyphClass: 1
Flags: W
LayerCount: 2
Fore
SplineSet
240 0 m 1,0,-1
 240 207 l 1,1,-1
 307 277 l 1,2,-1
 499 0 l 1,3,-1
 699 0 l 1,4,-1
 418 393 l 1,5,-1
 681 710 l 1,6,-1
 486 710 l 1,7,-1
 240 415 l 1,8,-1
 240 710 l 1,9,-1
 66 710 l 1,10,-1
 66 0 l 1,11,-1
 240 0 l 1,0,-1
EndSplineSet
EndChar

StartChar: L
Encoding: 76 76 47
Width: 585
GlyphClass: 1
Flags: W
LayerCount: 2
Fore
SplineSet
577 0 m 1,0,-1
 577 152 l 1,1,-1
 240 152 l 1,2,-1
 240 710 l 1,3,-1
 66 710 l 1,4,-1
 66 0 l 1,5,-1
 577 0 l 1,0,-1
EndSplineSet
EndChar

StartChar: M
Encoding: 77 77 48
Width: 858
GlyphClass: 1
Flags: W
LayerCount: 2
Fore
SplineSet
792 0 m 1,0,-1
 792 710 l 1,1,-1
 604 710 l 1,2,-1
 429 351 l 1,3,-1
 255 710 l 1,4,-1
 66 710 l 1,5,-1
 66 0 l 1,6,-1
 240 0 l 1,7,-1
 240 408 l 1,8,-1
 382 114 l 1,9,-1
 476 114 l 1,10,-1
 618 408 l 1,11,-1
 618 0 l 1,12,-1
 792 0 l 1,0,-1
EndSplineSet
EndChar

StartChar: N
Encoding: 78 78 49
Width: 757
GlyphClass: 1
Flags: W
LayerCount: 2
Fore
SplineSet
551 0 m 1,0,-1
 691 0 l 1,1,-1
 691 710 l 1,2,-1
 517 710 l 1,3,-1
 517 310 l 1,4,-1
 203 710 l 1,5,-1
 66 710 l 1,6,-1
 66 0 l 1,7,-1
 240 0 l 1,8,-1
 240 388 l 1,9,-1
 551 0 l 1,0,-1
EndSplineSet
EndChar

StartChar: O
Encoding: 79 79 50
Width: 762
GlyphClass: 1
Flags: W
LayerCount: 2
Fore
SplineSet
379 -6 m 256,0,1
 458 -6 458 -6 523.5 24 c 128,-1,2
 589 54 589 54 636 103.5 c 128,-1,3
 683 153 683 153 709.5 217.5 c 128,-1,4
 736 282 736 282 736 352 c 0,5,6
 736 420 736 420 711 485 c 128,-1,7
 686 550 686 550 639.5 601 c 128,-1,8
 593 652 593 652 528 683 c 128,-1,9
 463 714 463 714 383 714 c 0,10,11
 305 714 305 714 239.5 684.5 c 128,-1,12
 174 655 174 655 126.5 605.5 c 128,-1,13
 79 556 79 556 52 491.5 c 128,-1,14
 25 427 25 427 25 356 c 0,15,16
 25 287 25 287 51 222 c 128,-1,17
 77 157 77 157 123 106.5 c 128,-1,18
 169 56 169 56 234.5 25 c 128,-1,19
 300 -6 300 -6 379 -6 c 256,0,1
202 354 m 256,20,21
 202 393 202 393 213 429.5 c 128,-1,22
 224 466 224 466 246.5 495 c 128,-1,23
 269 524 269 524 302 541.5 c 128,-1,24
 335 559 335 559 380 559 c 0,25,26
 424 559 424 559 457.5 542 c 128,-1,27
 491 525 491 525 513.5 497 c 128,-1,28
 536 469 536 469 547.5 432 c 128,-1,29
 559 395 559 395 559 356 c 0,30,31
 559 318 559 318 548.5 280.5 c 128,-1,32
 538 243 538 243 516 214 c 128,-1,33
 494 185 494 185 460 167 c 128,-1,34
 426 149 426 149 381 149 c 0,35,36
 337 149 337 149 303.5 166.5 c 128,-1,37
 270 184 270 184 247.5 212.5 c 128,-1,38
 225 241 225 241 213.5 278 c 128,-1,39
 202 315 202 315 202 354 c 256,20,21
EndSplineSet
Substitution2: "Single Substitution lookup 45 subtable" ordmasculine
Substitution2: "'aalt' Access All Alternates lookup 0 subtable" ordmasculine
EndChar

StartChar: P
Encoding: 80 80 51
Width: 623
GlyphClass: 1
Flags: W
LayerCount: 2
Fore
SplineSet
240 0 m 1,0,-1
 240 225 l 1,1,-1
 375 225 l 2,2,3
 427 225 427 225 469 245.5 c 128,-1,4
 511 266 511 266 541 300 c 128,-1,5
 571 334 571 334 587.5 377.5 c 128,-1,6
 604 421 604 421 604 468 c 0,7,8
 604 512 604 512 586.5 556 c 128,-1,9
 569 600 569 600 538 634 c 128,-1,10
 507 668 507 668 464 689 c 128,-1,11
 421 710 421 710 370 710 c 2,12,-1
 66 710 l 1,13,-1
 66 0 l 1,14,-1
 240 0 l 1,0,-1
240 558 m 1,15,-1
 358 558 l 2,16,17
 371 558 371 558 383 553 c 128,-1,18
 395 548 395 548 405 537 c 128,-1,19
 415 526 415 526 421 509 c 128,-1,20
 427 492 427 492 427 468 c 0,21,22
 427 445 427 445 422 428 c 128,-1,23
 417 411 417 411 408.5 399.5 c 128,-1,24
 400 388 400 388 388 382.5 c 128,-1,25
 376 377 376 377 364 377 c 2,26,-1
 240 377 l 1,27,-1
 240 558 l 1,15,-1
EndSplineSet
EndChar

StartChar: Q
Encoding: 81 81 52
Width: 761
GlyphClass: 1
Flags: W
LayerCount: 2
Fore
SplineSet
379 -5 m 256,0,1
 458 -5 458 -5 523.5 24.5 c 128,-1,2
 589 54 589 54 636 103.5 c 128,-1,3
 683 153 683 153 709.5 217.5 c 128,-1,4
 736 282 736 282 736 352 c 0,5,6
 736 420 736 420 711 485 c 128,-1,7
 686 550 686 550 639.5 601 c 128,-1,8
 593 652 593 652 528 683.5 c 128,-1,9
 463 715 463 715 383 715 c 0,10,11
 305 715 305 715 239.5 685.5 c 128,-1,12
 174 656 174 656 126.5 606 c 128,-1,13
 79 556 79 556 52 491.5 c 128,-1,14
 25 427 25 427 25 356 c 0,15,16
 25 287 25 287 51 222 c 128,-1,17
 77 157 77 157 123 106.5 c 128,-1,18
 169 56 169 56 234.5 25.5 c 128,-1,19
 300 -5 300 -5 379 -5 c 256,0,1
381 150 m 0,20,21
 337 150 337 150 303.5 167 c 128,-1,22
 270 184 270 184 247.5 212.5 c 128,-1,23
 225 241 225 241 213.5 278 c 128,-1,24
 202 315 202 315 202 354 c 256,25,26
 202 393 202 393 213 429.5 c 128,-1,27
 224 466 224 466 246.5 495 c 128,-1,28
 269 524 269 524 302 542 c 128,-1,29
 335 560 335 560 380 560 c 0,30,31
 424 560 424 560 457.5 543 c 128,-1,32
 491 526 491 526 513.5 497.5 c 128,-1,33
 536 469 536 469 547.5 432 c 128,-1,34
 559 395 559 395 559 356 c 0,35,36
 559 318 559 318 548.5 281 c 128,-1,37
 538 244 538 244 516 215 c 128,-1,38
 494 186 494 186 460 168 c 128,-1,39
 426 150 426 150 381 150 c 0,20,21
631 -40 m 1,40,-1
 728 59 l 1,41,-1
 465 338 l 1,42,-1
 366 242 l 1,43,-1
 631 -40 l 1,40,-1
EndSplineSet
EndChar

StartChar: R
Encoding: 82 82 53
Width: 671
GlyphClass: 1
Flags: W
LayerCount: 2
Fore
SplineSet
240 0 m 1,0,-1
 240 225 l 1,1,-1
 341 225 l 1,2,-1
 473 0 l 1,3,-1
 665 0 l 1,4,-1
 510 263 l 1,5,6
 536 279 536 279 557 300.5 c 128,-1,7
 578 322 578 322 592 348.5 c 128,-1,8
 606 375 606 375 614 405.5 c 128,-1,9
 622 436 622 436 622 468 c 0,10,11
 622 512 622 512 604 556 c 128,-1,12
 586 600 586 600 555.5 634 c 128,-1,13
 525 668 525 668 481.5 689 c 128,-1,14
 438 710 438 710 387 710 c 2,15,-1
 66 710 l 1,16,-1
 66 0 l 1,17,-1
 240 0 l 1,0,-1
240 558 m 1,18,-1
 376 558 l 2,19,20
 388 558 388 558 400.5 551.5 c 128,-1,21
 413 545 413 545 423 533.5 c 128,-1,22
 433 522 433 522 439 505 c 128,-1,23
 445 488 445 488 445 468 c 256,24,25
 445 448 445 448 439.5 431 c 128,-1,26
 434 414 434 414 425.5 402 c 128,-1,27
 417 390 417 390 405.5 383.5 c 128,-1,28
 394 377 394 377 381 377 c 2,29,-1
 240 377 l 1,30,-1
 240 558 l 1,18,-1
EndSplineSet
EndChar

StartChar: S
Encoding: 83 83 54
Width: 615
GlyphClass: 1
Flags: W
LayerCount: 2
Fore
SplineSet
569 638 m 1,0,1
 545 651 545 651 516 665 c 128,-1,2
 487 679 487 679 453.5 690 c 128,-1,3
 420 701 420 701 384 708.5 c 128,-1,4
 348 716 348 716 309 716 c 0,5,6
 257 716 257 716 209 701 c 128,-1,7
 161 686 161 686 124.5 656.5 c 128,-1,8
 88 627 88 627 67 583 c 128,-1,9
 46 539 46 539 46 482 c 0,10,11
 46 442 46 442 57.5 412 c 128,-1,12
 69 382 69 382 92 359 c 128,-1,13
 115 336 115 336 150.5 318.5 c 128,-1,14
 186 301 186 301 234 285 c 0,15,16
 270 274 270 274 300.5 265.5 c 128,-1,17
 331 257 331 257 353.5 247.5 c 128,-1,18
 376 238 376 238 389 225.5 c 128,-1,19
 402 213 402 213 402 195 c 0,20,21
 402 173 402 173 383.5 160.5 c 128,-1,22
 365 148 365 148 324 148 c 256,23,24
 283 148 283 148 243 159.5 c 128,-1,25
 203 171 203 171 170.5 185.5 c 128,-1,26
 138 200 138 200 116.5 213 c 128,-1,27
 95 226 95 226 92 230 c 1,28,-1
 16 78 l 1,29,30
 48 58 48 58 84.5 42 c 128,-1,31
 121 26 121 26 161 15 c 128,-1,32
 201 4 201 4 241.5 -2.5 c 128,-1,33
 282 -9 282 -9 321 -9 c 0,34,35
 372 -9 372 -9 420 2.5 c 128,-1,36
 468 14 468 14 505.5 40 c 128,-1,37
 543 66 543 66 566 108 c 128,-1,38
 589 150 589 150 589 212 c 0,39,40
 589 261 589 261 573.5 296 c 128,-1,41
 558 331 558 331 529.5 355 c 128,-1,42
 501 379 501 379 460.5 396.5 c 128,-1,43
 420 414 420 414 370 428 c 0,44,45
 335 439 335 439 308.5 446.5 c 128,-1,46
 282 454 282 454 263.5 462.5 c 128,-1,47
 245 471 245 471 236 482 c 128,-1,48
 227 493 227 493 227 510 c 0,49,50
 227 536 227 536 247.5 548.5 c 128,-1,51
 268 561 268 561 304 561 c 0,52,53
 336 561 336 561 369 552 c 128,-1,54
 402 543 402 543 428.5 531 c 128,-1,55
 455 519 455 519 473 508 c 128,-1,56
 491 497 491 497 493 495 c 1,57,-1
 569 638 l 1,0,1
EndSplineSet
EndChar

StartChar: T
Encoding: 84 84 55
Width: 622
GlyphClass: 1
Flags: W
LayerCount: 2
Fore
SplineSet
611 710 m 1,0,-1
 11 710 l 1,1,-1
 11 558 l 1,2,-1
 224 558 l 1,3,-1
 224 0 l 1,4,-1
 398 0 l 1,5,-1
 398 558 l 1,6,-1
 611 558 l 1,7,-1
 611 710 l 1,0,-1
EndSplineSet
EndChar

StartChar: U
Encoding: 85 85 56
Width: 745
GlyphClass: 1
Flags: W
LayerCount: 2
Fore
SplineSet
372 -6 m 0,0,1
 455 -6 455 -6 514.5 21.5 c 128,-1,2
 574 49 574 49 613.5 96.5 c 128,-1,3
 653 144 653 144 671.5 208.5 c 128,-1,4
 690 273 690 273 690 346 c 2,5,-1
 690 710 l 1,6,-1
 516 710 l 1,7,-1
 516 346 l 2,8,9
 516 309 516 309 508.5 273 c 128,-1,10
 501 237 501 237 484 209.5 c 128,-1,11
 467 182 467 182 440 165.5 c 128,-1,12
 413 149 413 149 372 149 c 0,13,14
 333 149 333 149 306 165 c 128,-1,15
 279 181 279 181 262 208.5 c 128,-1,16
 245 236 245 236 237.5 272 c 128,-1,17
 230 308 230 308 230 346 c 2,18,-1
 230 710 l 1,19,-1
 56 710 l 1,20,-1
 56 346 l 2,21,22
 56 277 56 277 73.5 212.5 c 128,-1,23
 91 148 91 148 129 100 c 128,-1,24
 167 52 167 52 227 23 c 128,-1,25
 287 -6 287 -6 372 -6 c 0,0,1
EndSplineSet
EndChar

StartChar: V
Encoding: 86 86 57
Width: 674
GlyphClass: 1
Flags: W
LayerCount: 2
Fore
SplineSet
-4 710 m 1,0,-1
 252 0 l 1,1,-1
 423 0 l 1,2,-1
 677 710 l 1,3,-1
 494 710 l 1,4,-1
 338 203 l 1,5,-1
 179 710 l 1,6,-1
 -4 710 l 1,0,-1
EndSplineSet
EndChar

StartChar: W
Encoding: 87 87 58
Width: 1113
GlyphClass: 1
Flags: W
LayerCount: 2
Fore
SplineSet
229 0 m 1,0,-1
 391 0 l 1,1,-1
 557 454 l 1,2,-1
 726 1 l 1,3,-1
 891 1 l 1,4,-1
 1106 710 l 1,5,-1
 931 710 l 1,6,-1
 797 229 l 1,7,-1
 635 709 l 1,8,-1
 482 709 l 1,9,-1
 324 227 l 1,10,-1
 188 709 l 1,11,-1
 14 709 l 1,12,-1
 229 0 l 1,0,-1
EndSplineSet
Substitution2: "'ss09' Style Set 9 lookup 37 subtable" W.ss09
Substitution2: "'aalt' Access All Alternates lookup 0 subtable" W.ss09
EndChar

StartChar: X
Encoding: 88 88 59
Width: 653
GlyphClass: 1
Flags: W
LayerCount: 2
Fore
SplineSet
-8 710 m 1,0,-1
 223 350 l 1,1,-1
 0 0 l 1,2,-1
 189 0 l 1,3,-1
 327 228 l 1,4,-1
 465 0 l 1,5,-1
 653 0 l 1,6,-1
 430 350 l 1,7,-1
 661 710 l 1,8,-1
 473 710 l 1,9,-1
 327 472 l 1,10,-1
 181 710 l 1,11,-1
 -8 710 l 1,0,-1
EndSplineSet
EndChar

StartChar: Y
Encoding: 89 89 60
Width: 664
GlyphClass: 1
Flags: W
LayerCount: 2
Fore
SplineSet
-2 710 m 1,0,-1
 244 242 l 1,1,-1
 244 0 l 1,2,-1
 418 0 l 1,3,-1
 418 240 l 1,4,-1
 668 710 l 1,5,-1
 478 710 l 1,6,-1
 331 404 l 1,7,-1
 186 710 l 1,8,-1
 -2 710 l 1,0,-1
EndSplineSet
EndChar

StartChar: Z
Encoding: 90 90 61
Width: 624
GlyphClass: 1
Flags: W
LayerCount: 2
Fore
SplineSet
28 0 m 1,0,-1
 591 0 l 1,1,-1
 591 152 l 1,2,-1
 255 152 l 1,3,-1
 586 580 l 1,4,-1
 586 710 l 1,5,-1
 42 710 l 1,6,-1
 42 558 l 1,7,-1
 377 558 l 1,8,-1
 28 130 l 1,9,-1
 28 0 l 1,0,-1
EndSplineSet
EndChar

StartChar: bracketleft
Encoding: 91 91 62
Width: 351
GlyphClass: 1
Flags: W
LayerCount: 2
Fore
SplineSet
304 -40 m 1,0,-1
 304 94 l 1,1,-1
 236 94 l 1,2,-1
 236 606 l 1,3,-1
 304 606 l 1,4,-1
 304 740 l 1,5,-1
 80 740 l 1,6,-1
 80 -40 l 1,7,-1
 304 -40 l 1,0,-1
EndSplineSet
EndChar

StartChar: backslash
Encoding: 92 92 63
Width: 673
GlyphClass: 1
Flags: W
LayerCount: 2
Fore
SplineSet
26 710 m 1,0,-1
 462 0 l 1,1,-1
 648 0 l 1,2,-1
 213 710 l 1,3,-1
 26 710 l 1,0,-1
EndSplineSet
EndChar

StartChar: bracketright
Encoding: 93 93 64
Width: 351
GlyphClass: 1
Flags: W
LayerCount: 2
Fore
SplineSet
271 -40 m 1,0,-1
 271 740 l 1,1,-1
 47 740 l 1,2,-1
 47 606 l 1,3,-1
 114 606 l 1,4,-1
 114 94 l 1,5,-1
 47 94 l 1,6,-1
 47 -40 l 1,7,-1
 271 -40 l 1,0,-1
EndSplineSet
EndChar

StartChar: asciicircum
Encoding: 94 94 65
Width: 611
GlyphClass: 1
Flags: W
LayerCount: 2
Fore
SplineSet
173 303 m 1,0,-1
 306 571 l 1,1,-1
 436 303 l 1,2,-1
 573 303 l 1,3,-1
 376 710 l 1,4,-1
 235 710 l 1,5,-1
 37 303 l 1,6,-1
 173 303 l 1,0,-1
EndSplineSet
EndChar

StartChar: underscore
Encoding: 95 95 66
Width: 453
GlyphClass: 1
Flags: W
LayerCount: 2
Fore
SplineSet
406 -152 m 1,0,-1
 406 0 l 1,1,-1
 48 0 l 1,2,-1
 48 -152 l 1,3,-1
 406 -152 l 1,0,-1
EndSplineSet
EndChar

StartChar: a
Encoding: 97 97 68
Width: 577
GlyphClass: 1
Flags: W
LayerCount: 2
Fore
SplineSet
530 0 m 1,0,-1
 530 314 l 2,1,2
 530 368 530 368 513.5 409 c 128,-1,3
 497 450 497 450 464.5 478.5 c 128,-1,4
 432 507 432 507 385 521 c 128,-1,5
 338 535 338 535 277 535 c 0,6,7
 211 535 211 535 154.5 518 c 128,-1,8
 98 501 98 501 47 468 c 1,9,-1
 97 362 l 1,10,11
 139 390 139 390 177.5 405 c 128,-1,12
 216 420 216 420 260 420 c 0,13,14
 286 420 286 420 305 414.5 c 128,-1,15
 324 409 324 409 336.5 398 c 128,-1,16
 349 387 349 387 355 371 c 128,-1,17
 361 355 361 355 361 334 c 2,18,-1
 361 313 l 1,19,20
 341 323 341 323 311.5 328.5 c 128,-1,21
 282 334 282 334 247 334 c 0,22,23
 199 334 199 334 158 321.5 c 128,-1,24
 117 309 117 309 86.5 286 c 128,-1,25
 56 263 56 263 38.5 230.5 c 128,-1,26
 21 198 21 198 21 158 c 0,27,28
 21 122 21 122 35 91.5 c 128,-1,29
 49 61 49 61 73.5 38.5 c 128,-1,30
 98 16 98 16 131.5 3 c 128,-1,31
 165 -10 165 -10 203 -10 c 0,32,33
 256 -10 256 -10 297.5 9.5 c 128,-1,34
 339 29 339 29 367 68 c 1,35,-1
 367 0 l 1,36,-1
 530 0 l 1,0,-1
337 141 m 0,37,38
 329 134 329 134 319 128.5 c 128,-1,39
 309 123 309 123 298.5 119.5 c 128,-1,40
 288 116 288 116 276.5 114 c 128,-1,41
 265 112 265 112 254 112 c 0,42,43
 239 112 239 112 225.5 116.5 c 128,-1,44
 212 121 212 121 202 129 c 128,-1,45
 192 137 192 137 186.5 148 c 128,-1,46
 181 159 181 159 181 173 c 0,47,48
 181 189 181 189 188.5 201.5 c 128,-1,49
 196 214 196 214 209 223 c 128,-1,50
 222 232 222 232 239.5 236.5 c 128,-1,51
 257 241 257 241 276 241 c 256,52,53
 295 241 295 241 318 236.5 c 128,-1,54
 341 232 341 232 361 225 c 1,55,-1
 361 178 l 2,56,57
 361 168 361 168 354.5 158.5 c 128,-1,58
 348 149 348 149 337 141 c 0,37,38
EndSplineSet
Substitution2: "Single Substitution lookup 45 subtable" ordfeminine
Substitution2: "'ss02' Style Set 2 lookup 30 subtable" a.ss02
Substitution2: "'ss01' Style Set 1 lookup 29 subtable" a.ss01
Substitution2: "'salt' Stylistic Alternatives lookup 28 subtable" a.ss01
AlternateSubs2: "'aalt' Access All Alternates lookup 1 subtable" ordfeminine a.ss01 a.ss02
EndChar

StartChar: b
Encoding: 98 98 69
Width: 642
GlyphClass: 1
Flags: W
LayerCount: 2
Fore
SplineSet
374 -10 m 0,0,1
 427 -10 427 -10 471.5 10.5 c 128,-1,2
 516 31 516 31 549 67.5 c 128,-1,3
 582 104 582 104 600.5 153.5 c 128,-1,4
 619 203 619 203 619 261 c 0,5,6
 619 318 619 318 602 368.5 c 128,-1,7
 585 419 585 419 555 456 c 128,-1,8
 525 493 525 493 483 514 c 128,-1,9
 441 535 441 535 392 535 c 0,10,11
 334 535 334 535 290.5 511 c 128,-1,12
 247 487 247 487 222 442 c 1,13,-1
 222 730 l 1,14,-1
 53 730 l 1,15,-1
 53 0 l 1,16,-1
 200 0 l 1,17,-1
 200 85 l 1,18,19
 213 63 213 63 230.5 45 c 128,-1,20
 248 27 248 27 270 15 c 128,-1,21
 292 3 292 3 318 -3.5 c 128,-1,22
 344 -10 344 -10 374 -10 c 0,0,1
326 133 m 0,23,24
 311 133 311 133 295.5 137.5 c 128,-1,25
 280 142 280 142 267 150.5 c 128,-1,26
 254 159 254 159 242 171.5 c 128,-1,27
 230 184 230 184 222 200 c 1,28,-1
 222 305 l 1,29,30
 230 324 230 324 242 340 c 128,-1,31
 254 356 254 356 268.5 367.5 c 128,-1,32
 283 379 283 379 299.5 385.5 c 128,-1,33
 316 392 316 392 334 392 c 0,34,35
 358 392 358 392 378.5 381.5 c 128,-1,36
 399 371 399 371 413.5 352.5 c 128,-1,37
 428 334 428 334 436.5 310.5 c 128,-1,38
 445 287 445 287 445 260 c 0,39,40
 445 232 445 232 436.5 209 c 128,-1,41
 428 186 428 186 412 169 c 128,-1,42
 396 152 396 152 374 142.5 c 128,-1,43
 352 133 352 133 326 133 c 0,23,24
EndSplineSet
EndChar

StartChar: c
Encoding: 99 99 70
Width: 572
GlyphClass: 1
Flags: W
LayerCount: 2
Fore
SplineSet
307 -10 m 0,0,1
 353 -10 353 -10 392 0.5 c 128,-1,2
 431 11 431 11 462.5 29.5 c 128,-1,3
 494 48 494 48 518 74 c 128,-1,4
 542 100 542 100 557 131 c 1,5,-1
 392 181 l 1,6,7
 386 170 386 170 376.5 161 c 128,-1,8
 367 152 367 152 356.5 146 c 128,-1,9
 346 140 346 140 333 136.5 c 128,-1,10
 320 133 320 133 306 133 c 0,11,12
 283 133 283 133 263 142 c 128,-1,13
 243 151 243 151 228 168 c 128,-1,14
 213 185 213 185 204.5 209 c 128,-1,15
 196 233 196 233 196 263 c 256,16,17
 196 293 196 293 204.5 316.5 c 128,-1,18
 213 340 213 340 228 357 c 128,-1,19
 243 374 243 374 263 383 c 128,-1,20
 283 392 283 392 305 392 c 0,21,22
 333 392 333 392 355 380 c 128,-1,23
 377 368 377 368 391 345 c 1,24,-1
 556 395 l 1,25,26
 525 457 525 457 462 496 c 128,-1,27
 399 535 399 535 307 535 c 0,28,29
 239 535 239 535 186.5 512.5 c 128,-1,30
 134 490 134 490 97 453 c 128,-1,31
 60 416 60 416 41 366.5 c 128,-1,32
 22 317 22 317 22 263 c 256,33,34
 22 209 22 209 41.5 159.5 c 128,-1,35
 61 110 61 110 97.5 72.5 c 128,-1,36
 134 35 134 35 186.5 12.5 c 128,-1,37
 239 -10 239 -10 307 -10 c 0,0,1
EndSplineSet
EndChar

StartChar: d
Encoding: 100 100 71
Width: 642
GlyphClass: 1
Flags: W
LayerCount: 2
Fore
SplineSet
590 0 m 1,0,-1
 590 730 l 1,1,-1
 420 730 l 1,2,-1
 420 442 l 1,3,4
 408 464 408 464 391 480.5 c 128,-1,5
 374 497 374 497 352.5 509.5 c 128,-1,6
 331 522 331 522 306 528.5 c 128,-1,7
 281 535 281 535 254 535 c 0,8,9
 204 535 204 535 161.5 514.5 c 128,-1,10
 119 494 119 494 88.5 457 c 128,-1,11
 58 420 58 420 40.5 370.5 c 128,-1,12
 23 321 23 321 23 263 c 0,13,14
 23 204 23 204 41.5 154 c 128,-1,15
 60 104 60 104 93 67.5 c 128,-1,16
 126 31 126 31 172 10.5 c 128,-1,17
 218 -10 218 -10 272 -10 c 0,18,19
 325 -10 325 -10 361 11 c 128,-1,20
 397 32 397 32 421 74 c 1,21,-1
 421 0 l 1,22,-1
 590 0 l 1,0,-1
421 200 m 1,23,24
 413 185 413 185 401.5 172 c 128,-1,25
 390 159 390 159 376.5 150.5 c 128,-1,26
 363 142 363 142 348 137.5 c 128,-1,27
 333 133 333 133 317 133 c 0,28,29
 291 133 291 133 269.5 142.5 c 128,-1,30
 248 152 248 152 232 169 c 128,-1,31
 216 186 216 186 207 209 c 128,-1,32
 198 232 198 232 198 260 c 0,33,34
 198 286 198 286 206.5 310 c 128,-1,35
 215 334 215 334 229.5 352 c 128,-1,36
 244 370 244 370 264.5 381 c 128,-1,37
 285 392 285 392 308 392 c 0,38,39
 325 392 325 392 342 385.5 c 128,-1,40
 359 379 359 379 374 368 c 128,-1,41
 389 357 389 357 401.5 341 c 128,-1,42
 414 325 414 325 421 305 c 1,43,-1
 421 200 l 1,23,24
EndSplineSet
Substitution2: "'ss03' Style Set 3 lookup 31 subtable" d.ss03
Substitution2: "'aalt' Access All Alternates lookup 0 subtable" d.ss03
EndChar

StartChar: e
Encoding: 101 101 72
Width: 605
GlyphClass: 1
Flags: W
LayerCount: 2
Fore
SplineSet
306 -10 m 0,0,1
 352 -10 352 -10 392 0.5 c 128,-1,2
 432 11 432 11 464.5 29.5 c 128,-1,3
 497 48 497 48 521.5 74 c 128,-1,4
 546 100 546 100 561 131 c 1,5,-1
 417 172 l 1,6,7
 412 158 412 158 401 147 c 128,-1,8
 390 136 390 136 376 128 c 128,-1,9
 362 120 362 120 345 116 c 128,-1,10
 328 112 328 112 311 112 c 0,11,12
 292 112 292 112 273 118 c 128,-1,13
 254 124 254 124 239 136.5 c 128,-1,14
 224 149 224 149 214.5 167.5 c 128,-1,15
 205 186 205 186 203 210 c 1,16,-1
 584 210 l 1,17,18
 586 221 586 221 587.5 235 c 128,-1,19
 589 249 589 249 589 263 c 0,20,21
 589 317 589 317 570.5 366.5 c 128,-1,22
 552 416 552 416 516 453 c 128,-1,23
 480 490 480 490 427.5 512.5 c 128,-1,24
 375 535 375 535 306 535 c 0,25,26
 238 535 238 535 185 512.5 c 128,-1,27
 132 490 132 490 96 452.5 c 128,-1,28
 60 415 60 415 41 364.5 c 128,-1,29
 22 314 22 314 22 257 c 0,30,31
 22 204 22 204 41.5 155.5 c 128,-1,32
 61 107 61 107 97 70 c 128,-1,33
 133 33 133 33 186 11.5 c 128,-1,34
 239 -10 239 -10 306 -10 c 0,0,1
199 314 m 1,35,36
 201 336 201 336 210 355 c 128,-1,37
 219 374 219 374 232.5 387 c 128,-1,38
 246 400 246 400 264 407 c 128,-1,39
 282 414 282 414 304 414 c 0,40,41
 325 414 325 414 343.5 407 c 128,-1,42
 362 400 362 400 376 387 c 128,-1,43
 390 374 390 374 398.5 355 c 128,-1,44
 407 336 407 336 409 314 c 1,45,-1
 199 314 l 1,35,36
EndSplineSet
EndChar

StartChar: f
Encoding: 102 102 73
Width: 390
GlyphClass: 1
Flags: W
LayerCount: 2
Fore
SplineSet
257 0 m 1,0,-1
 257 348 l 1,1,-1
 377 348 l 1,2,-1
 377 476 l 1,3,-1
 257 476 l 1,4,-1
 257 530 l 2,5,6
 257 564 257 564 271 580.5 c 128,-1,7
 285 597 285 597 312 597 c 0,8,9
 328 597 328 597 348 592.5 c 128,-1,10
 368 588 368 588 384 581 c 1,11,-1
 414 710 l 1,12,13
 377 725 377 725 342.5 732.5 c 128,-1,14
 308 740 308 740 274 740 c 0,15,16
 232 740 232 740 197.5 724.5 c 128,-1,17
 163 709 163 709 139 681 c 128,-1,18
 115 653 115 653 101.5 613.5 c 128,-1,19
 88 574 88 574 88 524 c 2,20,-1
 88 476 l 1,21,-1
 22 476 l 1,22,-1
 22 348 l 1,23,-1
 88 348 l 1,24,-1
 88 0 l 1,25,-1
 257 0 l 1,0,-1
EndSplineSet
EndChar

StartChar: g
Encoding: 103 103 74
Width: 642
GlyphClass: 1
Flags: W
LayerCount: 2
Fore
SplineSet
256 -1 m 256,0,1
 308 -1 308 -1 352 20.5 c 128,-1,2
 396 42 396 42 420 85 c 1,3,-1
 420 40 l 2,4,5
 420 3 420 3 409 -23 c 128,-1,6
 398 -49 398 -49 378.5 -65 c 128,-1,7
 359 -81 359 -81 334 -89 c 128,-1,8
 309 -97 309 -97 281 -97 c 0,9,10
 232 -97 232 -97 190 -77.5 c 128,-1,11
 148 -58 148 -58 119 -27 c 1,12,-1
 28 -119 l 1,13,14
 74 -169 74 -169 135.5 -196 c 128,-1,15
 197 -223 197 -223 281 -223 c 0,16,17
 349 -223 349 -223 406 -204.5 c 128,-1,18
 463 -186 463 -186 504 -152 c 128,-1,19
 545 -118 545 -118 567.5 -69.5 c 128,-1,20
 590 -21 590 -21 590 40 c 2,21,-1
 590 525 l 1,22,-1
 442 525 l 1,23,-1
 442 442 l 1,24,25
 429 464 429 464 411 481 c 128,-1,26
 393 498 393 498 371 510.5 c 128,-1,27
 349 523 349 523 323.5 529 c 128,-1,28
 298 535 298 535 269 535 c 0,29,30
 215 535 215 535 170 514.5 c 128,-1,31
 125 494 125 494 92.5 457.5 c 128,-1,32
 60 421 60 421 42 371 c 128,-1,33
 24 321 24 321 24 263 c 0,34,35
 24 208 24 208 41 160 c 128,-1,36
 58 112 58 112 88.5 76 c 128,-1,37
 119 40 119 40 161.5 19.5 c 128,-1,38
 204 -1 204 -1 256 -1 c 256,0,1
316 133 m 0,39,40
 291 133 291 133 269 142.5 c 128,-1,41
 247 152 247 152 231 168.5 c 128,-1,42
 215 185 215 185 206 208.5 c 128,-1,43
 197 232 197 232 197 259 c 0,44,45
 197 285 197 285 205.5 309.5 c 128,-1,46
 214 334 214 334 228.5 352 c 128,-1,47
 243 370 243 370 263.5 381 c 128,-1,48
 284 392 284 392 308 392 c 0,49,50
 325 392 325 392 341.5 385.5 c 128,-1,51
 358 379 358 379 373 368 c 128,-1,52
 388 357 388 357 400.5 341 c 128,-1,53
 413 325 413 325 420 305 c 1,54,-1
 420 200 l 1,55,56
 412 185 412 185 401 172.5 c 128,-1,57
 390 160 390 160 376.5 151.5 c 128,-1,58
 363 143 363 143 347.5 138 c 128,-1,59
 332 133 332 133 316 133 c 0,39,40
EndSplineSet
EndChar

StartChar: h
Encoding: 104 104 75
Width: 615
GlyphClass: 1
Flags: W
LayerCount: 2
Fore
SplineSet
566 339 m 2,0,1
 566 372 566 372 560.5 406.5 c 128,-1,2
 555 441 555 441 537.5 469.5 c 128,-1,3
 520 498 520 498 488 516.5 c 128,-1,4
 456 535 456 535 401 535 c 0,5,6
 344 535 344 535 297.5 510.5 c 128,-1,7
 251 486 251 486 222 440 c 1,8,-1
 222 730 l 1,9,-1
 53 730 l 1,10,-1
 53 0 l 1,11,-1
 222 0 l 1,12,-1
 222 299 l 1,13,14
 230 319 230 319 242 335 c 128,-1,15
 254 351 254 351 268.5 362.5 c 128,-1,16
 283 374 283 374 298.5 380 c 128,-1,17
 314 386 314 386 326 386 c 0,18,19
 358 386 358 386 377.5 364.5 c 128,-1,20
 397 343 397 343 397 295 c 2,21,-1
 397 0 l 1,22,-1
 566 0 l 1,23,-1
 566 339 l 2,0,1
EndSplineSet
EndChar

StartChar: k
Encoding: 107 107 78
Width: 573
GlyphClass: 1
Flags: W
LayerCount: 2
Fore
SplineSet
584 0 m 1,0,-1
 381 298 l 1,1,-1
 567 525 l 1,2,-1
 388 525 l 1,3,-1
 222 315 l 1,4,-1
 222 730 l 1,5,-1
 53 730 l 1,6,-1
 53 0 l 1,7,-1
 222 0 l 1,8,-1
 222 152 l 1,9,-1
 272 204 l 1,10,-1
 404 0 l 1,11,-1
 584 0 l 1,0,-1
EndSplineSet
EndChar

StartChar: l
Encoding: 108 108 79
Width: 341
GlyphClass: 1
Flags: W
LayerCount: 2
Fore
SplineSet
50 134 m 2,0,1
 50 65 50 65 88.5 28 c 128,-1,2
 127 -9 127 -9 198 -9 c 0,3,4
 233 -9 233 -9 273 -1 c 128,-1,5
 313 7 313 7 345 22 c 1,6,-1
 323 148 l 1,7,8
 311 142 311 142 296 138 c 128,-1,9
 281 134 281 134 267 134 c 0,10,11
 255 134 255 134 246.5 137.5 c 128,-1,12
 238 141 238 141 231.5 148 c 128,-1,13
 225 155 225 155 222 166.5 c 128,-1,14
 219 178 219 178 219 194 c 2,15,-1
 219 730 l 1,16,-1
 50 730 l 1,17,-1
 50 134 l 2,0,1
EndSplineSet
Substitution2: "'ss05' Style Set 5 lookup 33 subtable" l.ss05
Substitution2: "'aalt' Access All Alternates lookup 0 subtable" l.ss05
EndChar

StartChar: m
Encoding: 109 109 80
Width: 937
GlyphClass: 1
Flags: W
LayerCount: 2
Fore
SplineSet
888 339 m 2,0,1
 888 370 888 370 882.5 404.5 c 128,-1,2
 877 439 877 439 860.5 468 c 128,-1,3
 844 497 844 497 813.5 516 c 128,-1,4
 783 535 783 535 733 535 c 0,5,6
 670 535 670 535 621.5 509.5 c 128,-1,7
 573 484 573 484 543 437 c 1,8,9
 533 476 533 476 498.5 505.5 c 128,-1,10
 464 535 464 535 399 535 c 0,11,12
 333 535 333 535 283.5 510.5 c 128,-1,13
 234 486 234 486 205 440 c 1,14,-1
 205 525 l 1,15,-1
 53 525 l 1,16,-1
 53 0 l 1,17,-1
 222 0 l 1,18,-1
 222 299 l 1,19,20
 229 319 229 319 240 334.5 c 128,-1,21
 251 350 251 350 265 362 c 128,-1,22
 279 374 279 374 293.5 380 c 128,-1,23
 308 386 308 386 322 386 c 0,24,25
 350 386 350 386 368 364.5 c 128,-1,26
 386 343 386 343 386 295 c 2,27,-1
 386 0 l 1,28,-1
 555 0 l 1,29,-1
 555 299 l 1,30,31
 562 318 562 318 573 334 c 128,-1,32
 584 350 584 350 597.5 362 c 128,-1,33
 611 374 611 374 626 380 c 128,-1,34
 641 386 641 386 655 386 c 0,35,36
 683 386 683 386 701 364.5 c 128,-1,37
 719 343 719 343 719 295 c 2,38,-1
 719 0 l 1,39,-1
 888 0 l 1,40,-1
 888 339 l 2,0,1
EndSplineSet
EndChar

StartChar: n
Encoding: 110 110 81
Width: 615
GlyphClass: 1
Flags: W
LayerCount: 2
Fore
SplineSet
566 339 m 2,0,1
 566 370 566 370 560.5 404.5 c 128,-1,2
 555 439 555 439 538.5 468 c 128,-1,3
 522 497 522 497 490.5 516 c 128,-1,4
 459 535 459 535 407 535 c 0,5,6
 373 535 373 535 342.5 529 c 128,-1,7
 312 523 312 523 286.5 510.5 c 128,-1,8
 261 498 261 498 240.5 480.5 c 128,-1,9
 220 463 220 463 205 440 c 1,10,-1
 205 525 l 1,11,-1
 53 525 l 1,12,-1
 53 0 l 1,13,-1
 222 0 l 1,14,-1
 222 299 l 1,15,16
 229 319 229 319 241 334.5 c 128,-1,17
 253 350 253 350 267.5 361.5 c 128,-1,18
 282 373 282 373 298.5 379.5 c 128,-1,19
 315 386 315 386 330 386 c 0,20,21
 359 386 359 386 378 364.5 c 128,-1,22
 397 343 397 343 397 295 c 2,23,-1
 397 0 l 1,24,-1
 566 0 l 1,25,-1
 566 339 l 2,0,1
EndSplineSet
EndChar

StartChar: o
Encoding: 111 111 82
Width: 611
GlyphClass: 1
Flags: W
LayerCount: 2
Fore
SplineSet
305 -10 m 0,0,1
 374 -10 374 -10 426.5 12.5 c 128,-1,2
 479 35 479 35 515 72.5 c 128,-1,3
 551 110 551 110 570 159 c 128,-1,4
 589 208 589 208 589 262 c 0,5,6
 589 317 589 317 570 366 c 128,-1,7
 551 415 551 415 515 452.5 c 128,-1,8
 479 490 479 490 426.5 512.5 c 128,-1,9
 374 535 374 535 305 535 c 0,10,11
 238 535 238 535 185 512.5 c 128,-1,12
 132 490 132 490 96 452.5 c 128,-1,13
 60 415 60 415 41 366 c 128,-1,14
 22 317 22 317 22 262 c 0,15,16
 22 208 22 208 41 159 c 128,-1,17
 60 110 60 110 96 72.5 c 128,-1,18
 132 35 132 35 185 12.5 c 128,-1,19
 238 -10 238 -10 305 -10 c 0,0,1
196 262 m 256,20,21
 196 291 196 291 204.5 315 c 128,-1,22
 213 339 213 339 227.5 356 c 128,-1,23
 242 373 242 373 262 382.5 c 128,-1,24
 282 392 282 392 305 392 c 0,25,26
 329 392 329 392 348.5 382.5 c 128,-1,27
 368 373 368 373 383 356 c 128,-1,28
 398 339 398 339 406.5 315.5 c 128,-1,29
 415 292 415 292 415 263 c 256,30,31
 415 234 415 234 406.5 210 c 128,-1,32
 398 186 398 186 383 169 c 128,-1,33
 368 152 368 152 348.5 142.5 c 128,-1,34
 329 133 329 133 305 133 c 0,35,36
 282 133 282 133 262 142.5 c 128,-1,37
 242 152 242 152 227.5 169 c 128,-1,38
 213 186 213 186 204.5 209.5 c 128,-1,39
 196 233 196 233 196 262 c 256,20,21
EndSplineSet
Substitution2: "Single Substitution lookup 45 subtable" ordmasculine
Substitution2: "'aalt' Access All Alternates lookup 0 subtable" ordmasculine
EndChar

StartChar: p
Encoding: 112 112 83
Width: 642
GlyphClass: 1
Flags: W
LayerCount: 2
Fore
SplineSet
392 -10 m 0,0,1
 441 -10 441 -10 482.5 11 c 128,-1,2
 524 32 524 32 554 68.5 c 128,-1,3
 584 105 584 105 601 155.5 c 128,-1,4
 618 206 618 206 618 264 c 256,5,6
 618 322 618 322 599.5 371.5 c 128,-1,7
 581 421 581 421 549 457 c 128,-1,8
 517 493 517 493 472 514 c 128,-1,9
 427 535 427 535 374 535 c 0,10,11
 314 535 314 535 271.5 510.5 c 128,-1,12
 229 486 229 486 200 442 c 1,13,-1
 200 525 l 1,14,-1
 53 525 l 1,15,-1
 53 -213 l 1,16,-1
 222 -213 l 1,17,-1
 222 83 l 1,18,19
 234 61 234 61 251 44 c 128,-1,20
 268 27 268 27 290 14.5 c 128,-1,21
 312 2 312 2 337.5 -4 c 128,-1,22
 363 -10 363 -10 392 -10 c 0,0,1
334 133 m 0,23,24
 316 133 316 133 299.5 140 c 128,-1,25
 283 147 283 147 268.5 159 c 128,-1,26
 254 171 254 171 242 187.5 c 128,-1,27
 230 204 230 204 222 223 c 1,28,-1
 222 325 l 1,29,30
 230 341 230 341 242 353.5 c 128,-1,31
 254 366 254 366 267 374 c 128,-1,32
 280 382 280 382 295.5 387 c 128,-1,33
 311 392 311 392 326 392 c 0,34,35
 352 392 352 392 374 382.5 c 128,-1,36
 396 373 396 373 411.5 356 c 128,-1,37
 427 339 427 339 436 316 c 128,-1,38
 445 293 445 293 445 265 c 0,39,40
 445 238 445 238 436.5 214.5 c 128,-1,41
 428 191 428 191 413.5 172.5 c 128,-1,42
 399 154 399 154 378.5 143.5 c 128,-1,43
 358 133 358 133 334 133 c 0,23,24
EndSplineSet
EndChar

StartChar: q
Encoding: 113 113 84
Width: 642
GlyphClass: 1
Flags: W
LayerCount: 2
Fore
SplineSet
250 -10 m 0,0,1
 308 -10 308 -10 351.5 13.5 c 128,-1,2
 395 37 395 37 420 83 c 1,3,-1
 420 -214 l 1,4,-1
 590 -214 l 1,5,-1
 590 525 l 1,6,-1
 442 525 l 1,7,-1
 442 441 l 1,8,9
 428 462 428 462 410.5 479.5 c 128,-1,10
 393 497 393 497 371 509.5 c 128,-1,11
 349 522 349 522 323.5 528.5 c 128,-1,12
 298 535 298 535 268 535 c 0,13,14
 216 535 216 535 171 514.5 c 128,-1,15
 126 494 126 494 93.5 457.5 c 128,-1,16
 61 421 61 421 42.5 371.5 c 128,-1,17
 24 322 24 322 24 264 c 256,18,19
 24 206 24 206 41 156 c 128,-1,20
 58 106 58 106 88.5 69 c 128,-1,21
 119 32 119 32 160 11 c 128,-1,22
 201 -10 201 -10 250 -10 c 0,0,1
315 133 m 0,23,24
 289 133 289 133 267 142.5 c 128,-1,25
 245 152 245 152 230 169 c 128,-1,26
 215 186 215 186 206 209 c 128,-1,27
 197 232 197 232 197 260 c 0,28,29
 197 286 197 286 206 310 c 128,-1,30
 215 334 215 334 229.5 352.5 c 128,-1,31
 244 371 244 371 264.5 381.5 c 128,-1,32
 285 392 285 392 309 392 c 0,33,34
 327 392 327 392 343.5 385.5 c 128,-1,35
 360 379 360 379 375 367 c 128,-1,36
 390 355 390 355 402 339 c 128,-1,37
 414 323 414 323 420 304 c 1,38,-1
 420 199 l 1,39,40
 410 184 410 184 398.5 171.5 c 128,-1,41
 387 159 387 159 374 150.5 c 128,-1,42
 361 142 361 142 346.5 137.5 c 128,-1,43
 332 133 332 133 315 133 c 0,23,24
EndSplineSet
Substitution2: "'ss06' Style Set 6 lookup 34 subtable" q.ss06
Substitution2: "'aalt' Access All Alternates lookup 0 subtable" q.ss06
EndChar

StartChar: r
Encoding: 114 114 85
Width: 405
GlyphClass: 1
Flags: W
LayerCount: 2
Fore
SplineSet
393 533 m 1,0,1
 389 534 389 534 384 534 c 128,-1,2
 379 534 379 534 368 534 c 0,3,4
 320 533 320 533 278 503.5 c 128,-1,5
 236 474 236 474 208 421 c 1,6,-1
 208 525 l 1,7,-1
 53 525 l 1,8,-1
 53 0 l 1,9,-1
 222 0 l 1,10,-1
 222 314 l 1,11,12
 244 348 244 348 290 364 c 128,-1,13
 336 380 336 380 393 380 c 1,14,-1
 393 533 l 1,0,1
EndSplineSet
EndChar

StartChar: s
Encoding: 115 115 86
Width: 498
GlyphClass: 1
Flags: W
LayerCount: 2
Fore
SplineSet
257 -10 m 0,0,1
 306 -10 306 -10 346 1.5 c 128,-1,2
 386 13 386 13 414.5 35.5 c 128,-1,3
 443 58 443 58 457.5 90 c 128,-1,4
 472 122 472 122 472 163 c 0,5,6
 472 198 472 198 460 222.5 c 128,-1,7
 448 247 448 247 424 265 c 128,-1,8
 400 283 400 283 363.5 297.5 c 128,-1,9
 327 312 327 312 278 326 c 0,10,11
 257 332 257 332 243 337 c 128,-1,12
 229 342 229 342 219.5 347 c 128,-1,13
 210 352 210 352 205 359.5 c 128,-1,14
 200 367 200 367 200 376 c 0,15,16
 200 386 200 386 204.5 393.5 c 128,-1,17
 209 401 209 401 216.5 405.5 c 128,-1,18
 224 410 224 410 234 412 c 128,-1,19
 244 414 244 414 257 414 c 0,20,21
 287 414 287 414 322 400.5 c 128,-1,22
 357 387 357 387 404 356 c 1,23,-1
 469 461 l 1,24,25
 422 502 422 502 370 519 c 128,-1,26
 318 536 318 536 264 536 c 0,27,28
 213 536 213 536 172 523 c 128,-1,29
 131 510 131 510 102.5 486 c 128,-1,30
 74 462 74 462 58.5 429.5 c 128,-1,31
 43 397 43 397 43 357 c 0,32,33
 43 323 43 323 54.5 299.5 c 128,-1,34
 66 276 66 276 88.5 259 c 128,-1,35
 111 242 111 242 145 228.5 c 128,-1,36
 179 215 179 215 225 199 c 0,37,38
 246 192 246 192 261.5 187 c 128,-1,39
 277 182 277 182 287.5 176.5 c 128,-1,40
 298 171 298 171 303.5 164.5 c 128,-1,41
 309 158 309 158 309 149 c 0,42,43
 309 131 309 131 294 122.5 c 128,-1,44
 279 114 279 114 252 114 c 0,45,46
 212 114 212 114 167 132 c 128,-1,47
 122 150 122 150 74 184 c 1,48,-1
 15 78 l 1,49,50
 60 35 60 35 124.5 12.5 c 128,-1,51
 189 -10 189 -10 257 -10 c 0,0,1
EndSplineSet
EndChar

StartChar: t
Encoding: 116 116 87
Width: 409
GlyphClass: 1
Flags: W
LayerCount: 2
Fore
SplineSet
370 162 m 1,0,1
 362 159 362 159 353.5 155.5 c 128,-1,2
 345 152 345 152 336 150 c 128,-1,3
 327 148 327 148 318 146 c 128,-1,4
 309 144 309 144 301 144 c 0,5,6
 281 144 281 144 268.5 155 c 128,-1,7
 256 166 256 166 256 193 c 2,8,-1
 256 397 l 1,9,-1
 362 397 l 1,10,-1
 362 525 l 1,11,-1
 256 525 l 1,12,-1
 256 692 l 1,13,-1
 86 692 l 1,14,-1
 86 525 l 1,15,-1
 20 525 l 1,16,-1
 20 397 l 1,17,-1
 86 397 l 1,18,-1
 86 134 l 2,19,20
 86 94 86 94 98 66.5 c 128,-1,21
 110 39 110 39 130.5 22 c 128,-1,22
 151 5 151 5 178.5 -2.5 c 128,-1,23
 206 -10 206 -10 236 -10 c 0,24,25
 258 -10 258 -10 280 -7 c 128,-1,26
 302 -4 302 -4 323.5 1.5 c 128,-1,27
 345 7 345 7 364.5 13.5 c 128,-1,28
 384 20 384 20 402 28 c 1,29,-1
 370 162 l 1,0,1
EndSplineSet
Substitution2: "'ss07' Style Set 7 lookup 35 subtable" t.ss07
Substitution2: "'aalt' Access All Alternates lookup 0 subtable" t.ss07
EndChar

StartChar: u
Encoding: 117 117 88
Width: 615
GlyphClass: 1
Flags: W
LayerCount: 2
Fore
SplineSet
563 0 m 1,0,-1
 563 525 l 1,1,-1
 393 525 l 1,2,-1
 393 202 l 1,3,4
 381 183 381 183 368.5 170 c 128,-1,5
 356 157 356 157 343 148.5 c 128,-1,6
 330 140 330 140 316 136.5 c 128,-1,7
 302 133 302 133 290 133 c 0,8,9
 270 133 270 133 256.5 139.5 c 128,-1,10
 243 146 243 146 234.5 158 c 128,-1,11
 226 170 226 170 221.5 186.5 c 128,-1,12
 217 203 217 203 217 224 c 2,13,-1
 217 525 l 1,14,-1
 48 525 l 1,15,-1
 48 186 l 2,16,17
 48 138 48 138 58 101.5 c 128,-1,18
 68 65 68 65 89.5 40 c 128,-1,19
 111 15 111 15 144 2.5 c 128,-1,20
 177 -10 177 -10 222 -10 c 0,21,22
 249 -10 249 -10 275 -5 c 128,-1,23
 301 0 301 0 324 10.5 c 128,-1,24
 347 21 347 21 367 37.5 c 128,-1,25
 387 54 387 54 400 77 c 1,26,-1
 400 0 l 1,27,-1
 563 0 l 1,0,-1
EndSplineSet
Substitution2: "'ss08' Style Set 8 lookup 36 subtable" u.ss08
Substitution2: "'aalt' Access All Alternates lookup 0 subtable" u.ss08
EndChar

StartChar: v
Encoding: 118 118 89
Width: 558
GlyphClass: 1
Flags: W
LayerCount: 2
Fore
SplineSet
371 0 m 1,0,-1
 554 525 l 1,1,-1
 395 525 l 1,2,-1
 286 152 l 1,3,-1
 178 525 l 1,4,-1
 4 525 l 1,5,-1
 187 0 l 1,6,-1
 371 0 l 1,0,-1
EndSplineSet
EndChar

StartChar: w
Encoding: 119 119 90
Width: 888
GlyphClass: 1
Flags: W
LayerCount: 2
Fore
SplineSet
15 522 m 1,0,-1
 191 0 l 1,1,-1
 356 0 l 1,2,-1
 447 298 l 1,3,-1
 538 0 l 1,4,-1
 703 0 l 1,5,-1
 879 522 l 1,6,-1
 727 522 l 1,7,-1
 613 161 l 1,8,-1
 517 522 l 1,9,-1
 378 522 l 1,10,-1
 281 161 l 1,11,-1
 167 522 l 1,12,-1
 15 522 l 1,0,-1
EndSplineSet
Substitution2: "'ss09' Style Set 9 lookup 37 subtable" w.ss09
Substitution2: "'aalt' Access All Alternates lookup 0 subtable" w.ss09
EndChar

StartChar: x
Encoding: 120 120 91
Width: 546
GlyphClass: 1
Flags: W
LayerCount: 2
Fore
SplineSet
2 525 m 1,0,-1
 176 261 l 1,1,-1
 -2 0 l 1,2,-1
 172 0 l 1,3,-1
 264 141 l 1,4,-1
 273 160 l 1,5,-1
 282 141 l 1,6,-1
 374 0 l 1,7,-1
 548 0 l 1,8,-1
 370 265 l 1,9,-1
 544 525 l 1,10,-1
 370 525 l 1,11,-1
 283 384 l 1,12,-1
 273 364 l 1,13,-1
 263 384 l 1,14,-1
 176 525 l 1,15,-1
 2 525 l 1,0,-1
EndSplineSet
EndChar

StartChar: y
Encoding: 121 121 92
Width: 553
GlyphClass: 1
Flags: W
LayerCount: 2
Fore
SplineSet
388 525 m 1,0,-1
 291 167 l 1,1,-1
 175 525 l 1,2,-1
 1 525 l 1,3,-1
 198 0 l 1,4,-1
 114 -213 l 1,5,-1
 312 -213 l 1,6,-1
 546 525 l 1,7,-1
 388 525 l 1,0,-1
EndSplineSet
Substitution2: "'ss10' Style Set 10 lookup 38 subtable" y.ss10
Substitution2: "'aalt' Access All Alternates lookup 0 subtable" y.ss10
EndChar

StartChar: z
Encoding: 122 122 93
Width: 494
GlyphClass: 1
Flags: W
LayerCount: 2
Fore
SplineSet
24 0 m 1,0,-1
 467 0 l 1,1,-1
 467 117 l 1,2,-1
 203 117 l 1,3,-1
 460 424 l 1,4,-1
 460 525 l 1,5,-1
 37 525 l 1,6,-1
 37 408 l 1,7,-1
 281 408 l 1,8,-1
 24 101 l 1,9,-1
 24 0 l 1,0,-1
EndSplineSet
EndChar

StartChar: braceleft
Encoding: 123 123 94
Width: 353
GlyphClass: 1
Flags: W
LayerCount: 2
Fore
SplineSet
301 606 m 1,0,-1
 301 740 l 1,1,-1
 117 740 l 2,2,3
 111 740 111 740 102.5 734 c 128,-1,4
 94 728 94 728 94 710 c 2,5,-1
 94 491 l 2,6,7
 94 478 94 478 89 465.5 c 128,-1,8
 84 453 84 453 76 442.5 c 128,-1,9
 68 432 68 432 58 425.5 c 128,-1,10
 48 419 48 419 37 419 c 1,11,-1
 37 303 l 1,12,13
 58 298 58 298 76 278.5 c 128,-1,14
 94 259 94 259 94 229 c 2,15,-1
 94 -1 l 2,16,17
 94 -20 94 -20 102 -25.5 c 128,-1,18
 110 -31 110 -31 117 -31 c 2,19,-1
 301 -31 l 1,20,-1
 301 103 l 1,21,-1
 246 103 l 1,22,-1
 246 286 l 2,23,24
 246 311 246 311 234 328.5 c 128,-1,25
 222 346 222 346 207 360 c 1,26,27
 223 374 223 374 234.5 391 c 128,-1,28
 246 408 246 408 246 434 c 2,29,-1
 246 606 l 1,30,-1
 301 606 l 1,0,-1
EndSplineSet
EndChar

StartChar: bar
Encoding: 124 124 95
Width: 298
GlyphClass: 1
Flags: W
LayerCount: 2
Fore
SplineSet
220 -130 m 1,0,-1
 220 775 l 1,1,-1
 77 775 l 1,2,-1
 77 -130 l 1,3,-1
 220 -130 l 1,0,-1
EndSplineSet
EndChar

StartChar: braceright
Encoding: 125 125 96
Width: 353
GlyphClass: 1
Flags: W
LayerCount: 2
Fore
SplineSet
108 606 m 1,0,-1
 108 434 l 2,1,2
 108 408 108 408 119 391 c 128,-1,3
 130 374 130 374 146 360 c 1,4,5
 131 346 131 346 119.5 328.5 c 128,-1,6
 108 311 108 311 108 286 c 2,7,-1
 108 103 l 1,8,-1
 53 103 l 1,9,-1
 53 -31 l 1,10,-1
 237 -31 l 2,11,12
 243 -31 243 -31 251.5 -25.5 c 128,-1,13
 260 -20 260 -20 260 -1 c 2,14,-1
 260 229 l 2,15,16
 260 259 260 259 277.5 278.5 c 128,-1,17
 295 298 295 298 316 303 c 1,18,-1
 316 419 l 1,19,20
 306 419 306 419 295.5 425.5 c 128,-1,21
 285 432 285 432 277 442.5 c 128,-1,22
 269 453 269 453 264.5 465.5 c 128,-1,23
 260 478 260 478 260 491 c 2,24,-1
 260 710 l 2,25,26
 260 728 260 728 251 734 c 128,-1,27
 242 740 242 740 237 740 c 2,28,-1
 53 740 l 1,29,-1
 53 606 l 1,30,-1
 108 606 l 1,0,-1
EndSplineSet
EndChar

StartChar: asciitilde
Encoding: 126 126 97
Width: 594
GlyphClass: 1
Flags: W
LayerCount: 2
Fore
SplineSet
49 220 m 1,0,-1
 140 220 l 1,1,2
 140 221 140 221 142 229 c 128,-1,3
 144 237 144 237 150 246 c 128,-1,4
 156 255 156 255 169 262.5 c 128,-1,5
 182 270 182 270 204 270 c 0,6,7
 227 270 227 270 248 262 c 128,-1,8
 269 254 269 254 291 245 c 128,-1,9
 313 236 313 236 336.5 228 c 128,-1,10
 360 220 360 220 388 220 c 0,11,12
 435 220 435 220 465.5 240.5 c 128,-1,13
 496 261 496 261 514.5 287 c 128,-1,14
 533 313 533 313 541 337 c 128,-1,15
 549 361 549 361 549 368 c 1,16,-1
 458 368 l 1,17,18
 458 367 458 367 455.5 358.5 c 128,-1,19
 453 350 453 350 446 341 c 128,-1,20
 439 332 439 332 425.5 324.5 c 128,-1,21
 412 317 412 317 389 317 c 256,22,23
 366 317 366 317 345.5 325 c 128,-1,24
 325 333 325 333 303.5 343 c 128,-1,25
 282 353 282 353 258 361 c 128,-1,26
 234 369 234 369 205 369 c 0,27,28
 160 369 160 369 130.5 350 c 128,-1,29
 101 331 101 331 82.5 306 c 128,-1,30
 64 281 64 281 56.5 256 c 128,-1,31
 49 231 49 231 49 220 c 1,0,-1
EndSplineSet
EndChar

StartChar: exclamdown
Encoding: 161 161 99
Width: 342
GlyphClass: 1
Flags: W
LayerCount: 2
Fore
SplineSet
274 426 m 256,0,1
 274 447 274 447 265.5 465.5 c 128,-1,2
 257 484 257 484 243 498.5 c 128,-1,3
 229 513 229 513 210.5 521 c 128,-1,4
 192 529 192 529 171 529 c 256,5,6
 150 529 150 529 131.5 521 c 128,-1,7
 113 513 113 513 99 498.5 c 128,-1,8
 85 484 85 484 76.5 465.5 c 128,-1,9
 68 447 68 447 68 426 c 256,10,11
 68 405 68 405 76.5 386.5 c 128,-1,12
 85 368 85 368 99 354 c 128,-1,13
 113 340 113 340 131.5 332 c 128,-1,14
 150 324 150 324 171 324 c 256,15,16
 192 324 192 324 210.5 332 c 128,-1,17
 229 340 229 340 243 354 c 128,-1,18
 257 368 257 368 265.5 386.5 c 128,-1,19
 274 405 274 405 274 426 c 256,0,1
121 231 m 1,20,-1
 86 -21 l 1,21,-1
 86 -198 l 1,22,-1
 256 -198 l 1,23,-1
 256 -21 l 1,24,-1
 221 231 l 1,25,-1
 121 231 l 1,20,-1
EndSplineSet
EndChar

StartChar: cent
Encoding: 162 162 100
Width: 608
GlyphClass: 1
Flags: W
LayerCount: 2
Fore
SplineSet
349 -120 m 1,0,-1
 349 -10 l 1,1,2
 373 -10 373 -10 405.5 -1 c 128,-1,3
 438 8 438 8 469.5 25 c 128,-1,4
 501 42 501 42 529 68.5 c 128,-1,5
 557 95 557 95 573 131 c 1,6,-1
 408 181 l 1,7,8
 404 173 404 173 398 166.5 c 128,-1,9
 392 160 392 160 384.5 154.5 c 128,-1,10
 377 149 377 149 368 144.5 c 128,-1,11
 359 140 359 140 349 138 c 1,12,-1
 349 386 l 1,13,14
 365 384 365 384 381 373 c 128,-1,15
 397 362 397 362 407 345 c 1,16,-1
 572 395 l 1,17,18
 536 463 536 463 476 497 c 128,-1,19
 416 531 416 531 349 533 c 1,20,-1
 349 645 l 1,21,-1
 276 645 l 1,22,-1
 276 533 l 1,23,24
 217 523 217 523 172.5 498 c 128,-1,25
 128 473 128 473 98 436.5 c 128,-1,26
 68 400 68 400 52.5 354.5 c 128,-1,27
 37 309 37 309 37 258 c 0,28,29
 37 210 37 210 55 164 c 128,-1,30
 73 118 73 118 104.5 81 c 128,-1,31
 136 44 136 44 180 19.5 c 128,-1,32
 224 -5 224 -5 276 -9 c 1,33,-1
 276 -120 l 1,34,-1
 349 -120 l 1,0,-1
212 258 m 0,35,36
 212 279 212 279 216.5 298.5 c 128,-1,37
 221 318 221 318 229.5 334.5 c 128,-1,38
 238 351 238 351 249.5 362 c 128,-1,39
 261 373 261 373 276 379 c 1,40,-1
 276 146 l 1,41,42
 261 153 261 153 249 165 c 128,-1,43
 237 177 237 177 228.5 191.5 c 128,-1,44
 220 206 220 206 216 223 c 128,-1,45
 212 240 212 240 212 258 c 0,35,36
EndSplineSet
EndChar

StartChar: sterling
Encoding: 163 163 101
Width: 571
GlyphClass: 1
Flags: W
LayerCount: 2
Fore
SplineSet
59 260 m 1,0,-1
 460 260 l 1,1,-1
 460 385 l 1,2,-1
 59 385 l 1,3,-1
 59 260 l 1,0,-1
85 -9 m 1,4,5
 120 2 120 2 157 9 c 128,-1,6
 194 16 194 16 223 16 c 0,7,8
 247 16 247 16 272 11.5 c 128,-1,9
 297 7 297 7 322 1 c 128,-1,10
 347 -5 347 -5 371 -10 c 128,-1,11
 395 -15 395 -15 418 -15 c 0,12,13
 447 -15 447 -15 479.5 -6 c 128,-1,14
 512 3 512 3 535 18 c 1,15,-1
 494 143 l 1,16,17
 474 136 474 136 459 132.5 c 128,-1,18
 444 129 444 129 427 129 c 256,19,20
 410 129 410 129 393.5 131.5 c 128,-1,21
 377 134 377 134 360.5 136.5 c 128,-1,22
 344 139 344 139 327.5 142 c 128,-1,23
 311 145 311 145 295 145 c 0,24,25
 277 145 277 145 259 141.5 c 128,-1,26
 241 138 241 138 217 131 c 1,27,28
 237 151 237 151 251 170.5 c 128,-1,29
 265 190 265 190 274.5 209.5 c 128,-1,30
 284 229 284 229 288 249 c 128,-1,31
 292 269 292 269 292 290 c 0,32,33
 292 327 292 327 281.5 358.5 c 128,-1,34
 271 390 271 390 258.5 417 c 128,-1,35
 246 444 246 444 235.5 468 c 128,-1,36
 225 492 225 492 225 515 c 0,37,38
 225 529 225 529 230 540.5 c 128,-1,39
 235 552 235 552 244 560.5 c 128,-1,40
 253 569 253 569 265.5 573.5 c 128,-1,41
 278 578 278 578 293 578 c 0,42,43
 326 578 326 578 365 557.5 c 128,-1,44
 404 537 404 537 429 506 c 1,45,-1
 516 610 l 1,46,47
 475 660 475 660 416.5 687.5 c 128,-1,48
 358 715 358 715 294 715 c 0,49,50
 248 715 248 715 208 700.5 c 128,-1,51
 168 686 168 686 138.5 662 c 128,-1,52
 109 638 109 638 92 605 c 128,-1,53
 75 572 75 572 75 533 c 0,54,55
 75 500 75 500 86 469 c 128,-1,56
 97 438 97 438 110.5 407.5 c 128,-1,57
 124 377 124 377 135.5 346.5 c 128,-1,58
 147 316 147 316 147 283 c 0,59,60
 147 260 147 260 140 235.5 c 128,-1,61
 133 211 133 211 120.5 188.5 c 128,-1,62
 108 166 108 166 90 146.5 c 128,-1,63
 72 127 72 127 50 111 c 1,64,-1
 85 -9 l 1,4,5
EndSplineSet
EndChar

StartChar: currency
Encoding: 164 164 102
Width: 563
GlyphClass: 1
Flags: W
LayerCount: 2
Fore
SplineSet
109 574 m 1,0,-1
 44 509 l 1,1,-1
 110 442 l 1,2,3
 96 419 96 419 88.5 392.5 c 128,-1,4
 81 366 81 366 81 338 c 0,5,6
 81 309 81 309 89 282 c 128,-1,7
 97 255 97 255 111 232 c 1,8,-1
 44 165 l 1,9,-1
 104 105 l 1,10,-1
 176 173 l 1,11,12
 198 161 198 161 224.5 154.5 c 128,-1,13
 251 148 251 148 283 148 c 0,14,15
 313 148 313 148 339 154 c 128,-1,16
 365 160 365 160 386 172 c 1,17,-1
 458 105 l 1,18,-1
 518 165 l 1,19,-1
 452 231 l 1,20,21
 468 254 468 254 476 281.5 c 128,-1,22
 484 309 484 309 484 338 c 256,23,24
 484 367 484 367 476 394 c 128,-1,25
 468 421 468 421 453 444 c 1,26,-1
 518 509 l 1,27,-1
 453 574 l 1,28,-1
 384 504 l 1,29,30
 363 515 363 515 337.5 521 c 128,-1,31
 312 527 312 527 283 527 c 0,32,33
 252 527 252 527 226 521 c 128,-1,34
 200 515 200 515 178 503 c 1,35,-1
 109 574 l 1,0,-1
202 338 m 0,36,37
 202 357 202 357 208 373.5 c 128,-1,38
 214 390 214 390 225 401.5 c 128,-1,39
 236 413 236 413 250.5 419 c 128,-1,40
 265 425 265 425 283 425 c 0,41,42
 300 425 300 425 315 419 c 128,-1,43
 330 413 330 413 340.5 401.5 c 128,-1,44
 351 390 351 390 357 374 c 128,-1,45
 363 358 363 358 363 338 c 256,46,47
 363 318 363 318 357 301.5 c 128,-1,48
 351 285 351 285 340.5 274 c 128,-1,49
 330 263 330 263 315 256.5 c 128,-1,50
 300 250 300 250 283 250 c 0,51,52
 265 250 265 250 250.5 256.5 c 128,-1,53
 236 263 236 263 225 274 c 128,-1,54
 214 285 214 285 208 301.5 c 128,-1,55
 202 318 202 318 202 338 c 0,36,37
EndSplineSet
EndChar

StartChar: yen
Encoding: 165 165 103
Width: 731
GlyphClass: 1
Flags: W
LayerCount: 2
Fore
SplineSet
700 710 m 1,0,-1
 510 710 l 1,1,-1
 363 390 l 1,2,-1
 218 710 l 1,3,-1
 30 710 l 1,4,-1
 184 421 l 1,5,-1
 116 421 l 1,6,-1
 116 313 l 1,7,-1
 239 313 l 1,8,-1
 276 242 l 1,9,-1
 276 208 l 1,10,-1
 115 208 l 1,11,-1
 115 100 l 1,12,-1
 276 100 l 1,13,-1
 276 0 l 1,14,-1
 449 0 l 1,15,-1
 449 100 l 1,16,-1
 612 100 l 1,17,-1
 612 208 l 1,18,-1
 449 208 l 1,19,-1
 449 240 l 1,20,-1
 487 313 l 1,21,-1
 611 313 l 1,22,-1
 611 421 l 1,23,-1
 544 421 l 1,24,-1
 700 710 l 1,0,-1
EndSplineSet
EndChar

StartChar: brokenbar
Encoding: 166 166 104
Width: 301
GlyphClass: 1
Flags: W
LayerCount: 2
Fore
SplineSet
79 258 m 1,0,-1
 79 -130 l 1,1,-1
 222 -130 l 1,2,-1
 222 258 l 1,3,-1
 79 258 l 1,0,-1
79 775 m 1,4,-1
 79 387 l 1,5,-1
 222 387 l 1,6,-1
 222 775 l 1,7,-1
 79 775 l 1,4,-1
EndSplineSet
EndChar

StartChar: section
Encoding: 167 167 105
Width: 544
GlyphClass: 1
Flags: W
LayerCount: 2
Fore
SplineSet
476 226 m 1,0,1
 480 233 480 233 486 253.5 c 128,-1,2
 492 274 492 274 492 303 c 0,3,4
 492 352 492 352 471.5 384.5 c 128,-1,5
 451 417 451 417 418.5 437.5 c 128,-1,6
 386 458 386 458 346.5 467 c 128,-1,7
 307 476 307 476 269 477 c 0,8,9
 258 477 258 477 247 478.5 c 128,-1,10
 236 480 236 480 228 484.5 c 128,-1,11
 220 489 220 489 215.5 497 c 128,-1,12
 211 505 211 505 211 518 c 0,13,14
 211 528 211 528 215 537 c 128,-1,15
 219 546 219 546 226.5 552 c 128,-1,16
 234 558 234 558 245 561.5 c 128,-1,17
 256 565 256 565 270 565 c 0,18,19
 286 565 286 565 299 561 c 128,-1,20
 312 557 312 557 323 550.5 c 128,-1,21
 334 544 334 544 342 535 c 128,-1,22
 350 526 350 526 357 516 c 1,23,-1
 486 577 l 1,24,25
 474 595 474 595 454 619 c 128,-1,26
 434 643 434 643 406.5 664.5 c 128,-1,27
 379 686 379 686 342.5 700.5 c 128,-1,28
 306 715 306 715 260 715 c 0,29,30
 212 715 212 715 171.5 698.5 c 128,-1,31
 131 682 131 682 102 654 c 128,-1,32
 73 626 73 626 56.5 590 c 128,-1,33
 40 554 40 554 40 516 c 0,34,35
 40 477 40 477 52.5 449 c 128,-1,36
 65 421 65 421 75 409 c 1,37,38
 72 401 72 401 66.5 386 c 128,-1,39
 61 371 61 371 61 341 c 0,40,41
 61 304 61 304 74 271.5 c 128,-1,42
 87 239 87 239 114 214.5 c 128,-1,43
 141 190 141 190 181 174.5 c 128,-1,44
 221 159 221 159 274 155 c 0,45,46
 284 155 284 155 293.5 153.5 c 128,-1,47
 303 152 303 152 311 148 c 128,-1,48
 319 144 319 144 323.5 137 c 128,-1,49
 328 130 328 130 328 119 c 256,50,51
 328 108 328 108 323 99 c 128,-1,52
 318 90 318 90 309.5 84.5 c 128,-1,53
 301 79 301 79 289 76 c 128,-1,54
 277 73 277 73 264 73 c 0,55,56
 236 73 236 73 209.5 85 c 128,-1,57
 183 97 183 97 155 127 c 1,58,-1
 47 23 l 1,59,60
 57 10 57 10 78 -9 c 128,-1,61
 99 -28 99 -28 128 -46 c 128,-1,62
 157 -64 157 -64 193.5 -76 c 128,-1,63
 230 -88 230 -88 271 -88 c 0,64,65
 307 -88 307 -88 348 -77 c 128,-1,66
 389 -66 389 -66 424 -40.5 c 128,-1,67
 459 -15 459 -15 482 25.5 c 128,-1,68
 505 66 505 66 505 125 c 0,69,70
 505 163 505 163 496.5 187.5 c 128,-1,71
 488 212 488 212 476 226 c 1,0,1
225 317 m 0,72,73
 225 327 225 327 228 335 c 128,-1,74
 231 343 231 343 237 348 c 0,75,76
 239 346 239 346 251 344 c 128,-1,77
 263 342 263 342 276 342 c 0,78,79
 285 342 285 342 294.5 340 c 128,-1,80
 304 338 304 338 312.5 332.5 c 128,-1,81
 321 327 321 327 326.5 318.5 c 128,-1,82
 332 310 332 310 332 298 c 0,83,84
 332 289 332 289 329 280.5 c 128,-1,85
 326 272 326 272 319 267 c 1,86,87
 312 269 312 269 302 270 c 128,-1,88
 292 271 292 271 282 272.5 c 128,-1,89
 272 274 272 274 262 276.5 c 128,-1,90
 252 279 252 279 243.5 283.5 c 128,-1,91
 235 288 235 288 230 296 c 128,-1,92
 225 304 225 304 225 317 c 0,72,73
EndSplineSet
EndChar

StartChar: copyright
Encoding: 169 169 107
Width: 845
GlyphClass: 1
Flags: W
LayerCount: 2
Fore
SplineSet
418 -7 m 0,0,1
 502 -7 502 -7 573 20.5 c 128,-1,2
 644 48 644 48 695.5 96.5 c 128,-1,3
 747 145 747 145 776.5 211 c 128,-1,4
 806 277 806 277 806 355 c 0,5,6
 806 432 806 432 776.5 498 c 128,-1,7
 747 564 747 564 695.5 612 c 128,-1,8
 644 660 644 660 573 687.5 c 128,-1,9
 502 715 502 715 418 715 c 0,10,11
 337 715 337 715 267.5 687.5 c 128,-1,12
 198 660 198 660 147.5 612 c 128,-1,13
 97 564 97 564 68.5 498 c 128,-1,14
 40 432 40 432 40 355 c 0,15,16
 40 277 40 277 68.5 211 c 128,-1,17
 97 145 97 145 147.5 96.5 c 128,-1,18
 198 48 198 48 267.5 20.5 c 128,-1,19
 337 -7 337 -7 418 -7 c 0,0,1
418 53 m 0,20,21
 351 53 351 53 293.5 76.5 c 128,-1,22
 236 100 236 100 194 140.5 c 128,-1,23
 152 181 152 181 128.5 236.5 c 128,-1,24
 105 292 105 292 105 355 c 256,25,26
 105 418 105 418 128.5 472.5 c 128,-1,27
 152 527 152 527 194.5 568 c 128,-1,28
 237 609 237 609 294.5 632 c 128,-1,29
 352 655 352 655 418 655 c 0,30,31
 488 655 488 655 547 632 c 128,-1,32
 606 609 606 609 648.5 568 c 128,-1,33
 691 527 691 527 715.5 472.5 c 128,-1,34
 740 418 740 418 740 355 c 0,35,36
 740 288 740 288 715 232.5 c 128,-1,37
 690 177 690 177 647 137 c 128,-1,38
 604 97 604 97 545.5 75 c 128,-1,39
 487 53 487 53 418 53 c 0,20,21
428 120 m 0,40,41
 471 120 471 120 507.5 130.5 c 128,-1,42
 544 141 544 141 573 159 c 128,-1,43
 602 177 602 177 623 202 c 128,-1,44
 644 227 644 227 658 255 c 1,45,-1
 499 303 l 1,46,47
 493 293 493 293 485 284.5 c 128,-1,48
 477 276 477 276 468 270.5 c 128,-1,49
 459 265 459 265 448.5 262 c 128,-1,50
 438 259 438 259 427 259 c 0,51,52
 410 259 410 259 394.5 265.5 c 128,-1,53
 379 272 379 272 367 284 c 128,-1,54
 355 296 355 296 348 313.5 c 128,-1,55
 341 331 341 331 341 354 c 0,56,57
 341 375 341 375 347 393 c 128,-1,58
 353 411 353 411 364.5 423.5 c 128,-1,59
 376 436 376 436 391.5 443 c 128,-1,60
 407 450 407 450 426 450 c 0,61,62
 437 450 437 450 447 447.5 c 128,-1,63
 457 445 457 445 466 439.5 c 128,-1,64
 475 434 475 434 483.5 425.5 c 128,-1,65
 492 417 492 417 497 406 c 1,66,-1
 657 455 l 1,67,68
 629 515 629 515 570 551.5 c 128,-1,69
 511 588 511 588 427 588 c 0,70,71
 365 588 365 588 317.5 569 c 128,-1,72
 270 550 270 550 238 517 c 128,-1,73
 206 484 206 484 189.5 442 c 128,-1,74
 173 400 173 400 173 354 c 0,75,76
 173 307 173 307 190.5 264.5 c 128,-1,77
 208 222 208 222 240.5 189.5 c 128,-1,78
 273 157 273 157 320.5 138.5 c 128,-1,79
 368 120 368 120 428 120 c 0,40,41
EndSplineSet
EndChar

StartChar: ordfeminine
Encoding: 170 170 108
Width: 448
GlyphClass: 1
Flags: W
LayerCount: 2
Fore
SplineSet
157 335 m 0,0,1
 192 335 192 335 223.5 351.5 c 128,-1,2
 255 368 255 368 278 400 c 1,3,-1
 278 345 l 1,4,-1
 377 345 l 1,5,-1
 377 560 l 2,6,7
 377 636 377 636 333 675 c 128,-1,8
 289 714 289 714 206 714 c 0,9,10
 163 714 163 714 125 702.5 c 128,-1,11
 87 691 87 691 52 667 c 1,12,-1
 87 593 l 1,13,14
 115 613 115 613 140.5 623 c 128,-1,15
 166 633 166 633 195 633 c 0,16,17
 229 633 229 633 244 618 c 128,-1,18
 259 603 259 603 259 574 c 2,19,-1
 259 560 l 1,20,21
 245 568 245 568 226 571.5 c 128,-1,22
 207 575 207 575 185 575 c 0,23,24
 119 575 119 575 77.5 541 c 128,-1,25
 36 507 36 507 36 452 c 0,26,27
 36 427 36 427 45 405.5 c 128,-1,28
 54 384 54 384 70 368.5 c 128,-1,29
 86 353 86 353 108.5 344 c 128,-1,30
 131 335 131 335 157 335 c 0,0,1
192 422 m 0,31,32
 172 422 172 422 159.5 433.5 c 128,-1,33
 147 445 147 445 147 463 c 0,34,35
 147 483 147 483 163.5 496 c 128,-1,36
 180 509 180 509 206 509 c 0,37,38
 218 509 218 509 232.5 506 c 128,-1,39
 247 503 247 503 259 498 c 1,40,-1
 259 467 l 2,41,42
 259 460 259 460 255 453 c 128,-1,43
 251 446 251 446 244 441 c 0,44,45
 234 432 234 432 220 427 c 128,-1,46
 206 422 206 422 192 422 c 0,31,32
EndSplineSet
EndChar

StartChar: guillemotleft
Encoding: 171 171 109
Width: 690
GlyphClass: 1
Flags: W
LayerCount: 2
Fore
SplineSet
32 215 m 1,0,-1
 304 36 l 1,1,-1
 304 172 l 1,2,-1
 165 259 l 1,3,-1
 304 353 l 1,4,-1
 304 489 l 1,5,-1
 32 294 l 1,6,-1
 32 215 l 1,0,-1
361 215 m 1,7,-1
 633 36 l 1,8,-1
 633 172 l 1,9,-1
 495 259 l 1,10,-1
 633 353 l 1,11,-1
 633 489 l 1,12,-1
 361 294 l 1,13,-1
 361 215 l 1,7,-1
EndSplineSet
EndChar

StartChar: logicalnot
Encoding: 172 172 110
Width: 628
GlyphClass: 1
Flags: W
LayerCount: 2
Fore
SplineSet
53 420 m 1,0,-1
 53 268 l 1,1,-1
 423 268 l 1,2,-1
 423 95 l 1,3,-1
 567 95 l 1,4,-1
 567 420 l 1,5,-1
 53 420 l 1,0,-1
EndSplineSet
EndChar

StartChar: uni00AD
Encoding: 173 173 111
Width: 620
GlyphClass: 1
Flags: W
LayerCount: 2
Fore
SplineSet
567 199 m 1,0,-1
 567 351 l 1,1,-1
 53 351 l 1,2,-1
 53 199 l 1,3,-1
 567 199 l 1,0,-1
EndSplineSet
EndChar

StartChar: registered
Encoding: 174 174 112
Width: 845
GlyphClass: 1
Flags: W
LayerCount: 2
Fore
SplineSet
420 -7 m 0,0,1
 503 -7 503 -7 573.5 20.5 c 128,-1,2
 644 48 644 48 696 96.5 c 128,-1,3
 748 145 748 145 777 211 c 128,-1,4
 806 277 806 277 806 355 c 0,5,6
 806 432 806 432 777 498 c 128,-1,7
 748 564 748 564 696 612 c 128,-1,8
 644 660 644 660 573.5 687.5 c 128,-1,9
 503 715 503 715 420 715 c 0,10,11
 338 715 338 715 268 687.5 c 128,-1,12
 198 660 198 660 147.5 612 c 128,-1,13
 97 564 97 564 68.5 498 c 128,-1,14
 40 432 40 432 40 355 c 0,15,16
 40 277 40 277 68.5 211 c 128,-1,17
 97 145 97 145 147.5 96.5 c 128,-1,18
 198 48 198 48 268 20.5 c 128,-1,19
 338 -7 338 -7 420 -7 c 0,0,1
421 52 m 0,20,21
 353 52 353 52 295.5 75.5 c 128,-1,22
 238 99 238 99 196.5 140 c 128,-1,23
 155 181 155 181 132 236 c 128,-1,24
 109 291 109 291 109 354 c 256,25,26
 109 417 109 417 132 472 c 128,-1,27
 155 527 155 527 196.5 567.5 c 128,-1,28
 238 608 238 608 295.5 631.5 c 128,-1,29
 353 655 353 655 421 655 c 256,30,31
 489 655 489 655 547 631.5 c 128,-1,32
 605 608 605 608 647.5 567.5 c 128,-1,33
 690 527 690 527 713.5 471.5 c 128,-1,34
 737 416 737 416 737 352 c 0,35,36
 737 287 737 287 713 232 c 128,-1,37
 689 177 689 177 646 137 c 128,-1,38
 603 97 603 97 545 74.5 c 128,-1,39
 487 52 487 52 421 52 c 0,20,21
253 141 m 1,40,-1
 372 141 l 1,41,-1
 372 278 l 1,42,-1
 406 278 l 1,43,-1
 492 141 l 1,44,-1
 624 141 l 1,45,-1
 525 301 l 1,46,47
 541 310 541 310 553.5 323.5 c 128,-1,48
 566 337 566 337 575 353.5 c 128,-1,49
 584 370 584 370 589 388 c 128,-1,50
 594 406 594 406 594 425 c 0,51,52
 594 451 594 451 583 478 c 128,-1,53
 572 505 572 505 553.5 526 c 128,-1,54
 535 547 535 547 508.5 560 c 128,-1,55
 482 573 482 573 451 573 c 2,56,-1
 253 573 l 1,57,-1
 253 141 l 1,40,-1
372 375 m 1,58,-1
 372 474 l 1,59,-1
 437 474 l 2,60,61
 444 474 444 474 451.5 472 c 128,-1,62
 459 470 459 470 464.5 464.5 c 128,-1,63
 470 459 470 459 473.5 449.5 c 128,-1,64
 477 440 477 440 477 425 c 0,65,66
 477 411 477 411 474 401.5 c 128,-1,67
 471 392 471 392 466 386 c 128,-1,68
 461 380 461 380 454.5 377.5 c 128,-1,69
 448 375 448 375 439 375 c 2,70,-1
 372 375 l 1,58,-1
EndSplineSet
EndChar

StartChar: degree
Encoding: 176 176 114
Width: 294
GlyphClass: 1
Flags: W
LayerCount: 2
Fore
SplineSet
34 615 m 0,0,1
 34 564 34 564 65.5 531 c 128,-1,2
 97 498 97 498 147 498 c 256,3,4
 197 498 197 498 228.5 530 c 128,-1,5
 260 562 260 562 260 615 c 0,6,7
 260 662 260 662 228.5 693 c 128,-1,8
 197 724 197 724 147 724 c 256,9,10
 97 724 97 724 65.5 693 c 128,-1,11
 34 662 34 662 34 615 c 0,0,1
123 635 m 0,12,13
 128 640 128 640 134 642 c 128,-1,14
 140 644 140 644 147 644 c 256,15,16
 154 644 154 644 160.5 642 c 128,-1,17
 167 640 167 640 171 635 c 0,18,19
 176 630 176 630 178 624 c 128,-1,20
 180 618 180 618 180 611 c 0,21,22
 180 605 180 605 178 598.5 c 128,-1,23
 176 592 176 592 171 588 c 0,24,25
 167 583 167 583 160 580 c 128,-1,26
 153 577 153 577 147 577 c 0,27,28
 140 577 140 577 134 580 c 128,-1,29
 128 583 128 583 123 588 c 0,30,31
 119 592 119 592 116 598.5 c 128,-1,32
 113 605 113 605 113 611 c 0,33,34
 113 618 113 618 116 624 c 128,-1,35
 119 630 119 630 123 635 c 0,12,13
EndSplineSet
EndChar

StartChar: plusminus
Encoding: 177 177 115
Width: 477
GlyphClass: 1
Flags: W
LayerCount: 2
Fore
SplineSet
423 11 m 1,0,-1
 423 145 l 1,1,-1
 53 145 l 1,2,-1
 53 11 l 1,3,-1
 423 11 l 1,0,-1
315 450 m 1,4,-1
 315 570 l 1,5,-1
 163 570 l 1,6,-1
 163 450 l 1,7,-1
 53 450 l 1,8,-1
 53 316 l 1,9,-1
 163 316 l 1,10,-1
 163 197 l 1,11,-1
 315 197 l 1,12,-1
 315 316 l 1,13,-1
 424 316 l 1,14,-1
 424 450 l 1,15,-1
 315 450 l 1,4,-1
EndSplineSet
EndChar

StartChar: twosuperior
Encoding: 178 178 116
Width: 432
GlyphClass: 1
Flags: W
LayerCount: 2
Fore
SplineSet
401 381 m 1,0,-1
 401 477 l 1,1,-1
 186 477 l 1,2,3
 186 489 186 489 192 497.5 c 128,-1,4
 198 506 198 506 210 514 c 128,-1,5
 222 522 222 522 238 528 c 128,-1,6
 254 534 254 534 274 540 c 0,7,8
 292 545 292 545 314 555.5 c 128,-1,9
 336 566 336 566 355.5 582.5 c 128,-1,10
 375 599 375 599 388 624 c 128,-1,11
 401 649 401 649 401 684 c 0,12,13
 401 716 401 716 389.5 741 c 128,-1,14
 378 766 378 766 356 783 c 128,-1,15
 334 800 334 800 301 809.5 c 128,-1,16
 268 819 268 819 225 819 c 0,17,18
 190 819 190 819 159 813 c 128,-1,19
 128 807 128 807 102.5 797.5 c 128,-1,20
 77 788 77 788 58.5 775.5 c 128,-1,21
 40 763 40 763 30 749 c 1,22,-1
 92 678 l 1,23,24
 101 687 101 687 113.5 696.5 c 128,-1,25
 126 706 126 706 141.5 713.5 c 128,-1,26
 157 721 157 721 175 726 c 128,-1,27
 193 731 193 731 214 731 c 0,28,29
 249 731 249 731 271 716.5 c 128,-1,30
 293 702 293 702 293 677 c 0,31,32
 293 658 293 658 280.5 644.5 c 128,-1,33
 268 631 268 631 248.5 619.5 c 128,-1,34
 229 608 229 608 205.5 599 c 128,-1,35
 182 590 182 590 159 580 c 0,36,37
 121 562 121 562 95.5 543.5 c 128,-1,38
 70 525 70 525 54.5 502.5 c 128,-1,39
 39 480 39 480 33.5 450.5 c 128,-1,40
 28 421 28 421 28 381 c 1,41,-1
 401 381 l 1,0,-1
EndSplineSet
EndChar

StartChar: threesuperior
Encoding: 179 179 117
Width: 416
GlyphClass: 1
Flags: W
LayerCount: 2
Fore
SplineSet
200 374 m 0,0,1
 236 374 236 374 269.5 381 c 128,-1,2
 303 388 303 388 329 403 c 128,-1,3
 355 418 355 418 370.5 442 c 128,-1,4
 386 466 386 466 386 499 c 0,5,6
 386 540 386 540 362 572 c 128,-1,7
 338 604 338 604 295 611 c 1,8,9
 333 618 333 618 354.5 641.5 c 128,-1,10
 376 665 376 665 376 700 c 0,11,12
 376 725 376 725 363.5 747.5 c 128,-1,13
 351 770 351 770 328 785.5 c 128,-1,14
 305 801 305 801 273.5 810 c 128,-1,15
 242 819 242 819 203 819 c 0,16,17
 178 819 178 819 152 815.5 c 128,-1,18
 126 812 126 812 101.5 804.5 c 128,-1,19
 77 797 77 797 56.5 786.5 c 128,-1,20
 36 776 36 776 24 762 c 1,21,-1
 82 688 l 1,22,23
 100 705 100 705 127.5 718.5 c 128,-1,24
 155 732 155 732 194 732 c 0,25,26
 205 732 205 732 217.5 730 c 128,-1,27
 230 728 230 728 240 723.5 c 128,-1,28
 250 719 250 719 256.5 711 c 128,-1,29
 263 703 263 703 263 690 c 0,30,31
 263 669 263 669 240 659 c 128,-1,32
 217 649 217 649 161 649 c 2,33,-1
 137 649 l 1,34,-1
 137 562 l 1,35,-1
 162 562 l 2,36,37
 226 562 226 562 252 551 c 128,-1,38
 278 540 278 540 278 517 c 0,39,40
 278 490 278 490 253 479.5 c 128,-1,41
 228 469 228 469 194 469 c 0,42,43
 172 469 172 469 154.5 472.5 c 128,-1,44
 137 476 137 476 122 482.5 c 128,-1,45
 107 489 107 489 95.5 497.5 c 128,-1,46
 84 506 84 506 75 515 c 1,47,-1
 25 448 l 1,48,49
 43 410 43 410 91 392 c 128,-1,50
 139 374 139 374 200 374 c 0,0,1
EndSplineSet
EndChar

StartChar: uni00B5
Encoding: 181 181 119
Width: 692
GlyphClass: 1
Flags: W
LayerCount: 2
Fore
SplineSet
76 -213 m 1,0,-1
 245 -213 l 1,1,-1
 235 34 l 1,2,3
 236 30 236 30 240.5 23 c 128,-1,4
 245 16 245 16 254 8.5 c 128,-1,5
 263 1 263 1 276 -4.5 c 128,-1,6
 289 -10 289 -10 307 -10 c 0,7,8
 330 -10 330 -10 352.5 0.5 c 128,-1,9
 375 11 375 11 394.5 26 c 128,-1,10
 414 41 414 41 428 57.5 c 128,-1,11
 442 74 442 74 448 88 c 1,12,-1
 461 0 l 1,13,-1
 591 0 l 1,14,-1
 591 525 l 1,15,-1
 421 525 l 1,16,-1
 421 202 l 1,17,18
 409 183 409 183 396.5 169.5 c 128,-1,19
 384 156 384 156 370.5 148 c 128,-1,20
 357 140 357 140 343.5 136.5 c 128,-1,21
 330 133 330 133 317 133 c 0,22,23
 280 133 280 133 262.5 156 c 128,-1,24
 245 179 245 179 245 224 c 2,25,-1
 245 525 l 1,26,-1
 76 525 l 1,27,-1
 76 -213 l 1,0,-1
EndSplineSet
EndChar

StartChar: paragraph
Encoding: 182 182 120
Width: 688
GlyphClass: 1
Flags: W
LayerCount: 2
Fore
SplineSet
34 449 m 0,0,1
 34 392 34 392 49 345.5 c 128,-1,2
 64 299 64 299 92.5 266 c 128,-1,3
 121 233 121 233 159.5 214 c 128,-1,4
 198 195 198 195 246 195 c 1,5,-1
 246 -80 l 1,6,-1
 389 -80 l 1,7,-1
 389 195 l 1,8,-1
 427 195 l 1,9,-1
 427 -80 l 1,10,-1
 570 -80 l 1,11,-1
 570 584 l 1,12,-1
 640 584 l 1,13,-1
 640 710 l 1,14,-1
 316 710 l 2,15,16
 181 710 181 710 107.5 642.5 c 128,-1,17
 34 575 34 575 34 449 c 0,0,1
175 453 m 0,18,19
 175 509 175 509 194 545 c 128,-1,20
 213 581 213 581 246 584 c 1,21,-1
 246 321 l 1,22,23
 231 323 231 323 218 333 c 128,-1,24
 205 343 205 343 195.5 360.5 c 128,-1,25
 186 378 186 378 180.5 401.5 c 128,-1,26
 175 425 175 425 175 453 c 0,18,19
427 321 m 1,27,-1
 389 321 l 1,28,-1
 389 584 l 1,29,-1
 427 584 l 1,30,-1
 427 321 l 1,27,-1
EndSplineSet
EndChar

StartChar: onesuperior
Encoding: 185 185 123
Width: 313
GlyphClass: 1
Flags: W
LayerCount: 2
Fore
SplineSet
223 479 m 1,0,-1
 223 819 l 1,1,-1
 124 819 l 1,2,3
 124 818 124 818 115 809 c 128,-1,4
 106 800 106 800 92.5 789 c 128,-1,5
 79 778 79 778 62.5 769.5 c 128,-1,6
 46 761 46 761 31 761 c 1,7,-1
 31 662 l 1,8,9
 43 662 43 662 57 667.5 c 128,-1,10
 71 673 71 673 84 681.5 c 128,-1,11
 97 690 97 690 108 699 c 128,-1,12
 119 708 119 708 124 715 c 1,13,-1
 124 479 l 1,14,-1
 47 479 l 1,15,-1
 47 382 l 1,16,-1
 292 382 l 1,17,-1
 292 479 l 1,18,-1
 223 479 l 1,0,-1
EndSplineSet
EndChar

StartChar: ordmasculine
Encoding: 186 186 124
Width: 440
GlyphClass: 1
Flags: W
LayerCount: 2
Fore
SplineSet
220 335 m 256,0,1
 266 335 266 335 301.5 350.5 c 128,-1,2
 337 366 337 366 361 392 c 128,-1,3
 385 418 385 418 397 452.5 c 128,-1,4
 409 487 409 487 409 525 c 256,5,6
 409 563 409 563 397 597.5 c 128,-1,7
 385 632 385 632 361 658 c 128,-1,8
 337 684 337 684 301.5 699 c 128,-1,9
 266 714 266 714 220 714 c 256,10,11
 174 714 174 714 139 699 c 128,-1,12
 104 684 104 684 80 658 c 128,-1,13
 56 632 56 632 43.5 597.5 c 128,-1,14
 31 563 31 563 31 525 c 256,15,16
 31 487 31 487 43.5 452.5 c 128,-1,17
 56 418 56 418 80 392 c 128,-1,18
 104 366 104 366 139 350.5 c 128,-1,19
 174 335 174 335 220 335 c 256,0,1
152 524 m 0,20,21
 152 544 152 544 157 560.5 c 128,-1,22
 162 577 162 577 171 588.5 c 128,-1,23
 180 600 180 600 192.5 606 c 128,-1,24
 205 612 205 612 220 612 c 256,25,26
 235 612 235 612 247.5 606 c 128,-1,27
 260 600 260 600 269 588.5 c 128,-1,28
 278 577 278 577 283 560.5 c 128,-1,29
 288 544 288 544 288 525 c 0,30,31
 288 505 288 505 283 488.5 c 128,-1,32
 278 472 278 472 269 461 c 128,-1,33
 260 450 260 450 247.5 443.5 c 128,-1,34
 235 437 235 437 220 437 c 256,35,36
 205 437 205 437 192.5 443.5 c 128,-1,37
 180 450 180 450 171 461 c 128,-1,38
 162 472 162 472 157 488.5 c 128,-1,39
 152 505 152 505 152 524 c 0,20,21
EndSplineSet
EndChar

StartChar: guillemotright
Encoding: 187 187 125
Width: 690
GlyphClass: 1
Flags: W
LayerCount: 2
Fore
SplineSet
658 294 m 1,0,-1
 385 489 l 1,1,-1
 385 353 l 1,2,-1
 524 259 l 1,3,-1
 385 172 l 1,4,-1
 385 36 l 1,5,-1
 658 215 l 1,6,-1
 658 294 l 1,0,-1
328 294 m 1,7,-1
 56 489 l 1,8,-1
 56 353 l 1,9,-1
 195 259 l 1,10,-1
 56 172 l 1,11,-1
 56 36 l 1,12,-1
 328 215 l 1,13,-1
 328 294 l 1,7,-1
EndSplineSet
EndChar

StartChar: onehalf
Encoding: 189 189 127
Width: 974
GlyphClass: 1
Flags: W
LayerCount: 2
Fore
SplineSet
223 391 m 1,0,-1
 223 731 l 1,1,-1
 124 731 l 1,2,3
 124 730 124 730 115 721 c 128,-1,4
 106 712 106 712 92.5 701 c 128,-1,5
 79 690 79 690 62.5 681.5 c 128,-1,6
 46 673 46 673 31 673 c 1,7,-1
 31 574 l 1,8,9
 43 574 43 574 57 579.5 c 128,-1,10
 71 585 71 585 84 593.5 c 128,-1,11
 97 602 97 602 108 611 c 128,-1,12
 119 620 119 620 124 627 c 1,13,-1
 124 391 l 1,14,-1
 47 391 l 1,15,-1
 47 294 l 1,16,-1
 292 294 l 1,17,-1
 292 391 l 1,18,-1
 223 391 l 1,0,-1
194 -9 m 1,19,-1
 459 338 l 1,20,-1
 731 652 l 1,21,-1
 656 720 l 1,22,-1
 402 381 l 1,23,-1
 119 59 l 1,24,-1
 194 -9 l 1,19,-1
938 0 m 1,25,-1
 938 96 l 1,26,-1
 724 96 l 1,27,28
 724 108 724 108 730 117 c 128,-1,29
 736 126 736 126 747.5 133.5 c 128,-1,30
 759 141 759 141 775 147 c 128,-1,31
 791 153 791 153 811 159 c 0,32,33
 829 164 829 164 851 174.5 c 128,-1,34
 873 185 873 185 892 202 c 128,-1,35
 911 219 911 219 924 243.5 c 128,-1,36
 937 268 937 268 937 303 c 0,37,38
 937 335 937 335 925.5 360 c 128,-1,39
 914 385 914 385 892 402 c 128,-1,40
 870 419 870 419 837 428.5 c 128,-1,41
 804 438 804 438 762 438 c 0,42,43
 727 438 727 438 696.5 432 c 128,-1,44
 666 426 666 426 640.5 416.5 c 128,-1,45
 615 407 615 407 596.5 394.5 c 128,-1,46
 578 382 578 382 568 369 c 1,47,-1
 629 297 l 1,48,49
 639 306 639 306 651 315.5 c 128,-1,50
 663 325 663 325 678.5 333 c 128,-1,51
 694 341 694 341 712 345.5 c 128,-1,52
 730 350 730 350 751 350 c 0,53,54
 785 350 785 350 807 335.5 c 128,-1,55
 829 321 829 321 829 296 c 0,56,57
 829 277 829 277 816.5 263.5 c 128,-1,58
 804 250 804 250 785 239 c 128,-1,59
 766 228 766 228 742.5 218.5 c 128,-1,60
 719 209 719 209 697 199 c 0,61,62
 658 181 658 181 632.5 162.5 c 128,-1,63
 607 144 607 144 592 121.5 c 128,-1,64
 577 99 577 99 571.5 69.5 c 128,-1,65
 566 40 566 40 566 0 c 1,66,-1
 938 0 l 1,25,-1
EndSplineSet
EndChar

StartChar: questiondown
Encoding: 191 191 129
Width: 484
GlyphClass: 1
Flags: W
LayerCount: 2
Fore
SplineSet
243 257 m 1,0,1
 243 237 243 237 231.5 223 c 128,-1,2
 220 209 220 209 201.5 197 c 128,-1,3
 183 185 183 185 161 174 c 128,-1,4
 139 163 139 163 118 149 c 0,5,6
 96 135 96 135 79 118 c 128,-1,7
 62 101 62 101 51 81 c 128,-1,8
 40 61 40 61 34.5 38 c 128,-1,9
 29 15 29 15 29 -11 c 0,10,11
 29 -66 29 -66 48 -104.5 c 128,-1,12
 67 -143 67 -143 98 -167 c 128,-1,13
 129 -191 129 -191 167 -202 c 128,-1,14
 205 -213 205 -213 243 -213 c 0,15,16
 279 -213 279 -213 311 -204 c 128,-1,17
 343 -195 343 -195 370.5 -178.5 c 128,-1,18
 398 -162 398 -162 419 -138 c 128,-1,19
 440 -114 440 -114 453 -84 c 1,20,-1
 344 -7 l 1,21,22
 338 -17 338 -17 329.5 -29 c 128,-1,23
 321 -41 321 -41 309.5 -51.5 c 128,-1,24
 298 -62 298 -62 283.5 -69 c 128,-1,25
 269 -76 269 -76 249 -76 c 0,26,27
 235 -76 235 -76 221.5 -71.5 c 128,-1,28
 208 -67 208 -67 198.5 -59 c 128,-1,29
 189 -51 189 -51 183 -39 c 128,-1,30
 177 -27 177 -27 177 -13 c 0,31,32
 177 11 177 11 191.5 29.5 c 128,-1,33
 206 48 206 48 227 63 c 128,-1,34
 248 78 248 78 269 88.5 c 128,-1,35
 290 99 290 99 302 106 c 0,36,37
 328 120 328 120 344 137 c 128,-1,38
 360 154 360 154 368.5 173 c 128,-1,39
 377 192 377 192 379.5 213 c 128,-1,40
 382 234 382 234 382 257 c 1,41,-1
 243 257 l 1,0,1
395 430 m 0,42,43
 395 465 395 465 370 490.5 c 128,-1,44
 345 516 345 516 309 516 c 256,45,46
 273 516 273 516 248 490.5 c 128,-1,47
 223 465 223 465 223 430 c 0,48,49
 223 394 223 394 248 368.5 c 128,-1,50
 273 343 273 343 309 343 c 256,51,52
 345 343 345 343 370 368.5 c 128,-1,53
 395 394 395 394 395 430 c 0,42,43
EndSplineSet
EndChar

StartChar: AE
Encoding: 198 198 136
Width: 969
GlyphClass: 1
Flags: W
LayerCount: 2
Fore
SplineSet
-26 0 m 1,0,-1
 159 0 l 1,1,-1
 245 153 l 1,2,-1
 455 153 l 1,3,-1
 455 0 l 1,4,-1
 938 0 l 1,5,-1
 938 152 l 1,6,-1
 628 152 l 1,7,-1
 628 285 l 1,8,-1
 875 285 l 1,9,-1
 875 437 l 1,10,-1
 628 437 l 1,11,-1
 628 558 l 1,12,-1
 929 558 l 1,13,-1
 929 710 l 1,14,-1
 410 710 l 1,15,-1
 -26 0 l 1,0,-1
318 305 m 1,16,-1
 442 517 l 1,17,-1
 442 305 l 1,18,-1
 318 305 l 1,16,-1
EndSplineSet
EndChar

StartChar: Idieresis
Encoding: 207 207 145
Width: 306
GlyphClass: 1
Flags: W
LayerCount: 2
Fore
SplineSet
240 0 m 1,0,-1
 240 710 l 1,1,-1
 66 710 l 1,2,-1
 66 0 l 1,3,-1
 240 0 l 1,0,-1
12 840 m 0,4,5
 12 805 12 805 30 779.5 c 128,-1,6
 48 754 48 754 74 754 c 256,7,8
 100 754 100 754 118 779.5 c 128,-1,9
 136 805 136 805 136 840 c 0,10,11
 136 876 136 876 117.5 901.5 c 128,-1,12
 99 927 99 927 74 927 c 0,13,14
 48 927 48 927 30 901.5 c 128,-1,15
 12 876 12 876 12 840 c 0,4,5
169 840 m 0,16,17
 169 805 169 805 187.5 779.5 c 128,-1,18
 206 754 206 754 231 754 c 0,19,20
 257 754 257 754 275.5 779.5 c 128,-1,21
 294 805 294 805 294 840 c 0,22,23
 294 876 294 876 275.5 901.5 c 128,-1,24
 257 927 257 927 231 927 c 0,25,26
 206 927 206 927 187.5 901.5 c 128,-1,27
 169 876 169 876 169 840 c 0,16,17
EndSplineSet
EndChar

StartChar: Eth
Encoding: 208 208 146
Width: 720
GlyphClass: 1
Flags: W
LayerCount: 2
Fore
SplineSet
368 294 m 1,0,-1
 368 420 l 1,1,-1
 29 420 l 1,2,-1
 29 294 l 1,3,-1
 368 294 l 1,0,-1
338 0 m 2,4,5
 418 0 418 0 483.5 25.5 c 128,-1,6
 549 51 549 51 595.5 97.5 c 128,-1,7
 642 144 642 144 667.5 209.5 c 128,-1,8
 693 275 693 275 693 356 c 0,9,10
 693 430 693 430 670.5 494.5 c 128,-1,11
 648 559 648 559 603.5 607 c 128,-1,12
 559 655 559 655 492.5 682.5 c 128,-1,13
 426 710 426 710 338 710 c 2,14,-1
 70 710 l 1,15,-1
 70 0 l 1,16,-1
 338 0 l 2,4,5
516 356 m 256,17,18
 516 312 516 312 504.5 275 c 128,-1,19
 493 238 493 238 470.5 210.5 c 128,-1,20
 448 183 448 183 414.5 167.5 c 128,-1,21
 381 152 381 152 338 152 c 2,22,-1
 244 152 l 1,23,-1
 244 558 l 1,24,-1
 338 558 l 2,25,26
 380 558 380 558 413 543 c 128,-1,27
 446 528 446 528 469 501.5 c 128,-1,28
 492 475 492 475 504 437.5 c 128,-1,29
 516 400 516 400 516 356 c 256,17,18
EndSplineSet
EndChar

StartChar: multiply
Encoding: 215 215 153
Width: 486
GlyphClass: 1
Flags: W
LayerCount: 2
Fore
SplineSet
348 277 m 1,0,-1
 435 364 l 1,1,-1
 330 469 l 1,2,-1
 243 383 l 1,3,-1
 157 469 l 1,4,-1
 50 364 l 1,5,-1
 137 276 l 1,6,-1
 45 184 l 1,7,-1
 150 79 l 1,8,-1
 242 172 l 1,9,-1
 335 79 l 1,10,-1
 442 184 l 1,11,-1
 348 277 l 1,0,-1
EndSplineSet
EndChar

StartChar: Thorn
Encoding: 222 222 160
Width: 605
GlyphClass: 1
Flags: W
LayerCount: 2
Fore
SplineSet
354 588 m 2,0,-1
 240 588 l 1,1,-1
 240 710 l 1,2,-1
 66 710 l 1,3,-1
 66 0 l 1,4,-1
 240 0 l 1,5,-1
 240 104 l 1,6,-1
 359 104 l 2,7,8
 411 104 411 104 453 124.5 c 128,-1,9
 495 145 495 145 525 179 c 128,-1,10
 555 213 555 213 571.5 256.5 c 128,-1,11
 588 300 588 300 588 347 c 0,12,13
 588 391 588 391 570.5 434.5 c 128,-1,14
 553 478 553 478 522 512 c 128,-1,15
 491 546 491 546 448 567 c 128,-1,16
 405 588 405 588 354 588 c 2,0,-1
351 256 m 2,17,-1
 240 256 l 1,18,-1
 240 436 l 1,19,-1
 345 436 l 2,20,21
 358 436 358 436 370.5 430 c 128,-1,22
 383 424 383 424 392.5 412 c 128,-1,23
 402 400 402 400 408 383.5 c 128,-1,24
 414 367 414 367 414 347 c 256,25,26
 414 327 414 327 409.5 310.5 c 128,-1,27
 405 294 405 294 396 282 c 128,-1,28
 387 270 387 270 375 263 c 128,-1,29
 363 256 363 256 351 256 c 2,17,-1
EndSplineSet
EndChar

StartChar: germandbls
Encoding: 223 223 161
Width: 561
GlyphClass: 1
Flags: W
LayerCount: 2
Fore
SplineSet
251 -6 m 1,0,1
 304 -6 304 -6 355.5 5 c 128,-1,2
 407 16 407 16 447.5 41 c 128,-1,3
 488 66 488 66 513.5 108 c 128,-1,4
 539 150 539 150 539 212 c 0,5,6
 539 284 539 284 504.5 333 c 128,-1,7
 470 382 470 382 410 403 c 1,8,9
 426 410 426 410 440 424 c 128,-1,10
 454 438 454 438 464 456.5 c 128,-1,11
 474 475 474 475 480.5 498.5 c 128,-1,12
 487 522 487 522 487 547 c 0,13,14
 487 587 487 587 471.5 618 c 128,-1,15
 456 649 456 649 429.5 670.5 c 128,-1,16
 403 692 403 692 366 703 c 128,-1,17
 329 714 329 714 286 714 c 0,18,19
 236 714 236 714 193.5 700 c 128,-1,20
 151 686 151 686 119.5 661 c 128,-1,21
 88 636 88 636 70.5 601.5 c 128,-1,22
 53 567 53 567 53 527 c 2,23,-1
 53 0 l 1,24,-1
 213 0 l 1,25,-1
 213 496 l 2,26,27
 213 505 213 505 215 518 c 128,-1,28
 217 531 217 531 223 542.5 c 128,-1,29
 229 554 229 554 240.5 562.5 c 128,-1,30
 252 571 252 571 270 571 c 0,31,32
 275 571 275 571 284 569.5 c 128,-1,33
 293 568 293 568 302.5 562 c 128,-1,34
 312 556 312 556 319 545.5 c 128,-1,35
 326 535 326 535 326 518 c 0,36,37
 326 507 326 507 323 497.5 c 128,-1,38
 320 488 320 488 313 481 c 128,-1,39
 306 474 306 474 296.5 470 c 128,-1,40
 287 466 287 466 273 466 c 2,41,-1
 253 466 l 1,42,-1
 253 314 l 1,43,-1
 275 314 l 2,44,45
 289 314 289 314 304 309 c 128,-1,46
 319 304 319 304 331.5 294 c 128,-1,47
 344 284 344 284 352.5 268.5 c 128,-1,48
 361 253 361 253 361 233 c 0,49,50
 361 212 361 212 352.5 196 c 128,-1,51
 344 180 344 180 329 170 c 128,-1,52
 314 160 314 160 294 155 c 128,-1,53
 274 150 274 150 251 149 c 1,54,-1
 251 -6 l 1,0,1
EndSplineSet
EndChar

StartChar: ae
Encoding: 230 230 168
Width: 940
GlyphClass: 1
Flags: W
LayerCount: 2
Fore
SplineSet
203 -10 m 0,0,1
 229 -10 229 -10 258 -4 c 128,-1,2
 287 2 287 2 314.5 14.5 c 128,-1,3
 342 27 342 27 367 47 c 128,-1,4
 392 67 392 67 411 94 c 1,5,6
 447 47 447 47 505 18.5 c 128,-1,7
 563 -10 563 -10 641 -10 c 0,8,9
 687 -10 687 -10 727 0.5 c 128,-1,10
 767 11 767 11 799.5 29.5 c 128,-1,11
 832 48 832 48 856.5 74 c 128,-1,12
 881 100 881 100 896 131 c 1,13,-1
 752 172 l 1,14,15
 747 158 747 158 736 147 c 128,-1,16
 725 136 725 136 711 128 c 128,-1,17
 697 120 697 120 680 116 c 128,-1,18
 663 112 663 112 646 112 c 0,19,20
 626 112 626 112 607 118 c 128,-1,21
 588 124 588 124 572.5 136.5 c 128,-1,22
 557 149 557 149 547.5 167.5 c 128,-1,23
 538 186 538 186 535 210 c 1,24,-1
 919 210 l 1,25,26
 921 221 921 221 922.5 235 c 128,-1,27
 924 249 924 249 924 263 c 0,28,29
 924 317 924 317 905 366.5 c 128,-1,30
 886 416 886 416 850 453 c 128,-1,31
 814 490 814 490 761.5 512.5 c 128,-1,32
 709 535 709 535 640 535 c 0,33,34
 585 535 585 535 540 519 c 128,-1,35
 495 503 495 503 461 476 c 1,36,37
 429 505 429 505 383 520 c 128,-1,38
 337 535 337 535 277 535 c 0,39,40
 212 535 212 535 155.5 518.5 c 128,-1,41
 99 502 99 502 47 468 c 1,42,-1
 97 362 l 1,43,44
 139 390 139 390 177.5 405 c 128,-1,45
 216 420 216 420 260 420 c 0,46,47
 310 420 310 420 334 400 c 128,-1,48
 358 380 358 380 360 340 c 0,49,50
 359 334 359 334 358.5 327 c 128,-1,51
 358 320 358 320 357 314 c 1,52,53
 336 324 336 324 307 329 c 128,-1,54
 278 334 278 334 247 334 c 0,55,56
 197 334 197 334 155.5 321 c 128,-1,57
 114 308 114 308 84.5 285 c 128,-1,58
 55 262 55 262 38 229.5 c 128,-1,59
 21 197 21 197 21 158 c 0,60,61
 21 122 21 122 35 91.5 c 128,-1,62
 49 61 49 61 73.5 38.5 c 128,-1,63
 98 16 98 16 131.5 3 c 128,-1,64
 165 -10 165 -10 203 -10 c 0,0,1
253 112 m 0,65,66
 238 112 238 112 224.5 116.5 c 128,-1,67
 211 121 211 121 201.5 129.5 c 128,-1,68
 192 138 192 138 186.5 149 c 128,-1,69
 181 160 181 160 181 173 c 0,70,71
 181 188 181 188 188 200.5 c 128,-1,72
 195 213 195 213 207.5 222 c 128,-1,73
 220 231 220 231 237.5 236 c 128,-1,74
 255 241 255 241 276 241 c 0,75,76
 294 241 294 241 316 237 c 128,-1,77
 338 233 338 233 357 226 c 1,78,79
 357 214 357 214 358 201.5 c 128,-1,80
 359 189 359 189 361 177 c 0,81,82
 361 168 361 168 354 158.5 c 128,-1,83
 347 149 347 149 337 141 c 0,84,85
 321 128 321 128 299 120 c 128,-1,86
 277 112 277 112 253 112 c 0,65,66
532 313 m 1,87,88
 534 336 534 336 543 355 c 128,-1,89
 552 374 552 374 565.5 387 c 128,-1,90
 579 400 579 400 597.5 407 c 128,-1,91
 616 414 616 414 638 414 c 0,92,93
 659 414 659 414 677.5 407 c 128,-1,94
 696 400 696 400 710 387 c 128,-1,95
 724 374 724 374 732.5 355 c 128,-1,96
 741 336 741 336 744 313 c 1,97,-1
 532 313 l 1,87,88
EndSplineSet
EndChar

StartChar: idieresis
Encoding: 239 239 177
Width: 275
GlyphClass: 1
Flags: W
LayerCount: 2
Fore
SplineSet
222 0 m 1,0,-1
 222 525 l 1,1,-1
 53 525 l 1,2,-1
 53 0 l 1,3,-1
 222 0 l 1,0,-1
3 656 m 0,4,5
 3 620 3 620 20 594.5 c 128,-1,6
 37 569 37 569 62 569 c 256,7,8
 87 569 87 569 104 594.5 c 128,-1,9
 121 620 121 620 121 656 c 0,10,11
 121 691 121 691 104 716.5 c 128,-1,12
 87 742 87 742 62 742 c 256,13,14
 37 742 37 742 20 716.5 c 128,-1,15
 3 691 3 691 3 656 c 0,4,5
152 656 m 0,16,17
 152 620 152 620 169.5 594.5 c 128,-1,18
 187 569 187 569 212 569 c 0,19,20
 236 569 236 569 253.5 594.5 c 128,-1,21
 271 620 271 620 271 656 c 0,22,23
 271 691 271 691 253.5 716.5 c 128,-1,24
 236 742 236 742 212 742 c 0,25,26
 187 742 187 742 169.5 716.5 c 128,-1,27
 152 691 152 691 152 656 c 0,16,17
EndSplineSet
EndChar

StartChar: eth
Encoding: 240 240 178
Width: 618
GlyphClass: 1
Flags: W
LayerCount: 2
Fore
SplineSet
592 291 m 0,0,1
 592 358 592 358 573.5 424.5 c 128,-1,2
 555 491 555 491 521 549.5 c 128,-1,3
 487 608 487 608 439 655 c 128,-1,4
 391 702 391 702 331 730 c 1,5,-1
 122 730 l 1,6,7
 188 697 188 697 238.5 660.5 c 128,-1,8
 289 624 289 624 324.5 585 c 128,-1,9
 360 546 360 546 383 503.5 c 128,-1,10
 406 461 406 461 418 414 c 1,11,12
 404 427 404 427 386 437.5 c 128,-1,13
 368 448 368 448 349 456 c 128,-1,14
 330 464 330 464 308.5 467.5 c 128,-1,15
 287 471 287 471 265 471 c 0,16,17
 214 471 214 471 170.5 452.5 c 128,-1,18
 127 434 127 434 95 402 c 128,-1,19
 63 370 63 370 44 327 c 128,-1,20
 25 284 25 284 25 234 c 0,21,22
 25 180 25 180 46 135.5 c 128,-1,23
 67 91 67 91 105 58.5 c 128,-1,24
 143 26 143 26 194.5 8 c 128,-1,25
 246 -10 246 -10 307 -10 c 0,26,27
 372 -10 372 -10 424.5 10.5 c 128,-1,28
 477 31 477 31 514 70 c 128,-1,29
 551 109 551 109 571.5 165 c 128,-1,30
 592 221 592 221 592 291 c 0,0,1
199 235 m 0,31,32
 199 257 199 257 207 275.5 c 128,-1,33
 215 294 215 294 230 307.5 c 128,-1,34
 245 321 245 321 265 328.5 c 128,-1,35
 285 336 285 336 309 336 c 256,36,37
 333 336 333 336 352.5 329 c 128,-1,38
 372 322 372 322 387 308.5 c 128,-1,39
 402 295 402 295 410 276.5 c 128,-1,40
 418 258 418 258 418 236 c 256,41,42
 418 214 418 214 410 195 c 128,-1,43
 402 176 402 176 387 162 c 128,-1,44
 372 148 372 148 352 140.5 c 128,-1,45
 332 133 332 133 308 133 c 256,46,47
 284 133 284 133 264 140.5 c 128,-1,48
 244 148 244 148 229.5 161.5 c 128,-1,49
 215 175 215 175 207 193.5 c 128,-1,50
 199 212 199 212 199 235 c 0,31,32
495 712 m 1,51,-1
 375 648 l 1,52,-1
 326 635 l 1,53,-1
 218 579 l 1,54,-1
 265 514 l 1,55,-1
 374 571 l 1,56,-1
 426 587 l 1,57,-1
 542 648 l 1,58,-1
 495 712 l 1,51,-1
EndSplineSet
EndChar

StartChar: divide
Encoding: 247 247 185
Width: 495
GlyphClass: 1
Flags: W
LayerCount: 2
Fore
SplineSet
450 238 m 1,0,-1
 450 373 l 1,1,-1
 46 373 l 1,2,-1
 46 238 l 1,3,-1
 450 238 l 1,0,-1
162 98 m 0,4,5
 162 62 162 62 187.5 36.5 c 128,-1,6
 213 11 213 11 248 11 c 0,7,8
 284 11 284 11 309.5 36.5 c 128,-1,9
 335 62 335 62 335 98 c 0,10,11
 335 133 335 133 309.5 158.5 c 128,-1,12
 284 184 284 184 248 184 c 0,13,14
 213 184 213 184 187.5 158.5 c 128,-1,15
 162 133 162 133 162 98 c 0,4,5
162 513 m 0,16,17
 162 478 162 478 187.5 452.5 c 128,-1,18
 213 427 213 427 249 427 c 0,19,20
 284 427 284 427 309.5 452.5 c 128,-1,21
 335 478 335 478 335 513 c 0,22,23
 335 549 335 549 309.5 574.5 c 128,-1,24
 284 600 284 600 249 600 c 0,25,26
 213 600 213 600 187.5 574.5 c 128,-1,27
 162 549 162 549 162 513 c 0,16,17
EndSplineSet
EndChar

StartChar: oslash
Encoding: 248 248 186
Width: 611
GlyphClass: 1
Flags: W
LayerCount: 2
Fore
SplineSet
305 -10 m 0,0,1
 374 -10 374 -10 426.5 12.5 c 128,-1,2
 479 35 479 35 515 72.5 c 128,-1,3
 551 110 551 110 570 159 c 128,-1,4
 589 208 589 208 589 262 c 0,5,6
 589 317 589 317 570 366 c 128,-1,7
 551 415 551 415 515 452.5 c 128,-1,8
 479 490 479 490 426.5 512.5 c 128,-1,9
 374 535 374 535 305 535 c 0,10,11
 238 535 238 535 185 512.5 c 128,-1,12
 132 490 132 490 96 452.5 c 128,-1,13
 60 415 60 415 41 366 c 128,-1,14
 22 317 22 317 22 262 c 0,15,16
 22 208 22 208 41 159 c 128,-1,17
 60 110 60 110 96 72.5 c 128,-1,18
 132 35 132 35 185 12.5 c 128,-1,19
 238 -10 238 -10 305 -10 c 0,0,1
305 133 m 0,20,21
 282 133 282 133 262 142.5 c 128,-1,22
 242 152 242 152 227.5 169 c 128,-1,23
 213 186 213 186 204.5 209.5 c 128,-1,24
 196 233 196 233 196 262 c 256,25,26
 196 291 196 291 204.5 315 c 128,-1,27
 213 339 213 339 227.5 356 c 128,-1,28
 242 373 242 373 262 382.5 c 128,-1,29
 282 392 282 392 305 392 c 0,30,31
 329 392 329 392 348.5 382.5 c 128,-1,32
 368 373 368 373 383 356 c 128,-1,33
 398 339 398 339 406.5 315.5 c 128,-1,34
 415 292 415 292 415 263 c 256,35,36
 415 234 415 234 406.5 210 c 128,-1,37
 398 186 398 186 383 169 c 128,-1,38
 368 152 368 152 348.5 142.5 c 128,-1,39
 329 133 329 133 305 133 c 0,20,21
119 -5 m 1,40,-1
 207 96 l 1,41,-1
 148 145 l 1,42,-1
 24 -5 l 1,43,-1
 119 -5 l 1,40,-1
452 391 m 1,44,-1
 396 425 l 1,45,-1
 170 155 l 1,46,-1
 217 111 l 1,47,-1
 452 391 l 1,44,-1
579 530 m 1,48,-1
 483 530 l 1,49,-1
 405 440 l 1,50,-1
 474 402 l 1,51,-1
 579 530 l 1,48,-1
EndSplineSet
EndChar

StartChar: thorn
Encoding: 254 254 192
Width: 600
GlyphClass: 1
Flags: W
LayerCount: 2
Fore
SplineSet
578 255 m 0,0,1
 578 307 578 307 560 358 c 128,-1,2
 542 409 542 409 508 450 c 128,-1,3
 474 491 474 491 426.5 516.5 c 128,-1,4
 379 542 379 542 319 542 c 0,5,6
 273 542 273 542 252 529.5 c 128,-1,7
 231 517 231 517 227 510 c 1,8,-1
 227 710 l 1,9,-1
 53 710 l 1,10,-1
 53 -213 l 1,11,-1
 227 -213 l 1,12,-1
 227 2 l 1,13,14
 228 -2 228 -2 234.5 -7.5 c 128,-1,15
 241 -13 241 -13 251 -17.5 c 128,-1,16
 261 -22 261 -22 276 -25 c 128,-1,17
 291 -28 291 -28 312 -28 c 0,18,19
 366 -28 366 -28 414.5 -5 c 128,-1,20
 463 18 463 18 499.5 57.5 c 128,-1,21
 536 97 536 97 557 148 c 128,-1,22
 578 199 578 199 578 255 c 0,0,1
404 259 m 0,23,24
 404 230 404 230 397 205 c 128,-1,25
 390 180 390 180 376.5 162 c 128,-1,26
 363 144 363 144 345 134 c 128,-1,27
 327 124 327 124 306 124 c 0,28,29
 290 124 290 124 276 129.5 c 128,-1,30
 262 135 262 135 251 142.5 c 128,-1,31
 240 150 240 150 233.5 160 c 128,-1,32
 227 170 227 170 227 178 c 2,33,-1
 227 330 l 1,34,35
 234 344 234 344 242 354.5 c 128,-1,36
 250 365 250 365 260 373 c 128,-1,37
 270 381 270 381 281.5 385.5 c 128,-1,38
 293 390 293 390 308 390 c 0,39,40
 332 390 332 390 349.5 379.5 c 128,-1,41
 367 369 367 369 379.5 351.5 c 128,-1,42
 392 334 392 334 398 310 c 128,-1,43
 404 286 404 286 404 259 c 0,23,24
EndSplineSet
EndChar

StartChar: Dcroat
Encoding: 272 272 210
Width: 720
GlyphClass: 1
Flags: W
LayerCount: 2
Fore
SplineSet
368 294 m 1,0,-1
 368 420 l 1,1,-1
 29 420 l 1,2,-1
 29 294 l 1,3,-1
 368 294 l 1,0,-1
338 0 m 2,4,5
 418 0 418 0 483.5 25.5 c 128,-1,6
 549 51 549 51 595.5 97.5 c 128,-1,7
 642 144 642 144 667.5 209.5 c 128,-1,8
 693 275 693 275 693 356 c 0,9,10
 693 430 693 430 670.5 494.5 c 128,-1,11
 648 559 648 559 603.5 607 c 128,-1,12
 559 655 559 655 492.5 682.5 c 128,-1,13
 426 710 426 710 338 710 c 2,14,-1
 70 710 l 1,15,-1
 70 0 l 1,16,-1
 338 0 l 2,4,5
516 356 m 256,17,18
 516 312 516 312 504.5 275 c 128,-1,19
 493 238 493 238 470.5 210.5 c 128,-1,20
 448 183 448 183 414.5 167.5 c 128,-1,21
 381 152 381 152 338 152 c 2,22,-1
 244 152 l 1,23,-1
 244 558 l 1,24,-1
 338 558 l 2,25,26
 380 558 380 558 413 543 c 128,-1,27
 446 528 446 528 469 501.5 c 128,-1,28
 492 475 492 475 504 437.5 c 128,-1,29
 516 400 516 400 516 356 c 256,17,18
EndSplineSet
EndChar

StartChar: dcroat
Encoding: 273 273 211
Width: 658
GlyphClass: 1
Flags: W
LayerCount: 2
Fore
SplineSet
650 585 m 1,0,-1
 650 684 l 1,1,-1
 329 684 l 1,2,-1
 329 585 l 1,3,-1
 650 585 l 1,0,-1
590 0 m 1,4,-1
 590 730 l 1,5,-1
 420 730 l 1,6,-1
 420 442 l 1,7,8
 408 464 408 464 391 480.5 c 128,-1,9
 374 497 374 497 352.5 509.5 c 128,-1,10
 331 522 331 522 306 528.5 c 128,-1,11
 281 535 281 535 254 535 c 0,12,13
 204 535 204 535 161.5 514.5 c 128,-1,14
 119 494 119 494 88.5 457 c 128,-1,15
 58 420 58 420 40.5 370.5 c 128,-1,16
 23 321 23 321 23 263 c 0,17,18
 23 204 23 204 41.5 154 c 128,-1,19
 60 104 60 104 93 67.5 c 128,-1,20
 126 31 126 31 172 10.5 c 128,-1,21
 218 -10 218 -10 272 -10 c 0,22,23
 325 -10 325 -10 361 11 c 128,-1,24
 397 32 397 32 421 74 c 1,25,-1
 421 0 l 1,26,-1
 590 0 l 1,4,-1
421 200 m 1,27,28
 413 185 413 185 401.5 172 c 128,-1,29
 390 159 390 159 376.5 150.5 c 128,-1,30
 363 142 363 142 348 137.5 c 128,-1,31
 333 133 333 133 317 133 c 0,32,33
 291 133 291 133 269.5 142.5 c 128,-1,34
 248 152 248 152 232 169 c 128,-1,35
 216 186 216 186 207 209 c 128,-1,36
 198 232 198 232 198 260 c 0,37,38
 198 286 198 286 206.5 310 c 128,-1,39
 215 334 215 334 229.5 352 c 128,-1,40
 244 370 244 370 264.5 381 c 128,-1,41
 285 392 285 392 308 392 c 0,42,43
 325 392 325 392 342 385.5 c 128,-1,44
 359 379 359 379 374 368 c 128,-1,45
 389 357 389 357 401.5 341 c 128,-1,46
 414 325 414 325 421 305 c 1,47,-1
 421 200 l 1,27,28
EndSplineSet
EndChar

StartChar: Hbar
Encoding: 294 294 232
Width: 755
GlyphClass: 1
Flags: W
LayerCount: 2
Fore
SplineSet
736 536 m 1,0,-1
 736 620 l 1,1,-1
 19 620 l 1,2,-1
 19 536 l 1,3,-1
 736 536 l 1,0,-1
512 710 m 1,4,-1
 512 439 l 1,5,-1
 243 439 l 1,6,-1
 243 710 l 1,7,-1
 69 710 l 1,8,-1
 69 0 l 1,9,-1
 243 0 l 1,10,-1
 243 287 l 1,11,-1
 512 287 l 1,12,-1
 512 0 l 1,13,-1
 686 0 l 1,14,-1
 686 710 l 1,15,-1
 512 710 l 1,4,-1
EndSplineSet
EndChar

StartChar: hbar
Encoding: 295 295 233
Width: 615
GlyphClass: 1
Flags: W
LayerCount: 2
Fore
SplineSet
339 585 m 1,0,-1
 339 684 l 1,1,-1
 17 684 l 1,2,-1
 17 585 l 1,3,-1
 339 585 l 1,0,-1
566 339 m 2,4,5
 566 372 566 372 560.5 406.5 c 128,-1,6
 555 441 555 441 537.5 469.5 c 128,-1,7
 520 498 520 498 488 516.5 c 128,-1,8
 456 535 456 535 401 535 c 0,9,10
 344 535 344 535 297.5 510.5 c 128,-1,11
 251 486 251 486 222 440 c 1,12,-1
 222 730 l 1,13,-1
 53 730 l 1,14,-1
 53 0 l 1,15,-1
 222 0 l 1,16,-1
 222 299 l 1,17,18
 230 319 230 319 242 335 c 128,-1,19
 254 351 254 351 268.5 362.5 c 128,-1,20
 283 374 283 374 298.5 380 c 128,-1,21
 314 386 314 386 326 386 c 0,22,23
 358 386 358 386 377.5 364.5 c 128,-1,24
 397 343 397 343 397 295 c 2,25,-1
 397 0 l 1,26,-1
 566 0 l 1,27,-1
 566 339 l 2,4,5
EndSplineSet
EndChar

StartChar: dotlessi
Encoding: 305 305 243
Width: 275
GlyphClass: 1
Flags: W
LayerCount: 2
Fore
SplineSet
222 0 m 1,0,-1
 222 525 l 1,1,-1
 53 525 l 1,2,-1
 53 0 l 1,3,-1
 222 0 l 1,0,-1
EndSplineSet
EndChar

StartChar: kgreenlandic
Encoding: 312 312 248
Width: 573
GlyphClass: 1
Flags: W
LayerCount: 2
Fore
SplineSet
584 0 m 1,0,-1
 381 298 l 1,1,-1
 567 525 l 1,2,-1
 388 525 l 1,3,-1
 222 315 l 1,4,-1
 222 525 l 1,5,-1
 53 525 l 1,6,-1
 53 0 l 1,7,-1
 222 0 l 1,8,-1
 222 152 l 1,9,-1
 273 205 l 1,10,-1
 404 0 l 1,11,-1
 584 0 l 1,0,-1
EndSplineSet
EndChar

StartChar: Lslash
Encoding: 321 321 257
Width: 596
GlyphClass: 1
Flags: W
LayerCount: 2
Fore
SplineSet
375 436 m 1,0,-1
 336 526 l 1,1,-1
 -12 339 l 1,2,-1
 28 248 l 1,3,-1
 375 436 l 1,0,-1
588 0 m 1,4,-1
 588 152 l 1,5,-1
 251 152 l 1,6,-1
 251 710 l 1,7,-1
 77 710 l 1,8,-1
 77 0 l 1,9,-1
 588 0 l 1,4,-1
EndSplineSet
EndChar

StartChar: lslash
Encoding: 322 322 258
Width: 371
GlyphClass: 1
Flags: W
LayerCount: 2
Fore
SplineSet
370 435 m 1,0,-1
 330 526 l 1,1,-1
 -7 349 l 1,2,-1
 32 258 l 1,3,-1
 370 435 l 1,0,-1
76 134 m 2,4,5
 76 65 76 65 115 28 c 128,-1,6
 154 -9 154 -9 225 -9 c 0,7,8
 260 -9 260 -9 300 -1 c 128,-1,9
 340 7 340 7 371 22 c 1,10,-1
 349 148 l 1,11,12
 337 142 337 142 322 138 c 128,-1,13
 307 134 307 134 293 134 c 0,14,15
 282 134 282 134 273.5 137.5 c 128,-1,16
 265 141 265 141 258.5 148 c 128,-1,17
 252 155 252 155 249 166.5 c 128,-1,18
 246 178 246 178 246 194 c 2,19,-1
 246 730 l 1,20,-1
 76 730 l 1,21,-1
 76 134 l 2,4,5
EndSplineSet
EndChar

StartChar: Eng
Encoding: 330 330 265
Width: 740
GlyphClass: 1
Flags: W
LayerCount: 2
Fore
SplineSet
504 38 m 1,0,-1
 504 -7 l 2,1,2
 504 -19 504 -19 500.5 -28.5 c 128,-1,3
 497 -38 497 -38 490.5 -44.5 c 128,-1,4
 484 -51 484 -51 475 -54.5 c 128,-1,5
 466 -58 466 -58 455 -58 c 0,6,7
 440 -58 440 -58 426.5 -53 c 128,-1,8
 413 -48 413 -48 404 -38 c 1,9,-1
 333 -153 l 1,10,11
 363 -178 363 -178 399.5 -191 c 128,-1,12
 436 -204 436 -204 476 -204 c 0,13,14
 518 -204 518 -204 554 -190 c 128,-1,15
 590 -176 590 -176 617 -149 c 128,-1,16
 644 -122 644 -122 659 -84.5 c 128,-1,17
 674 -47 674 -47 674 0 c 2,18,-1
 674 709 l 1,19,-1
 500 709 l 1,20,-1
 500 319 l 1,21,-1
 200 710 l 1,22,-1
 66 710 l 1,23,-1
 66 0 l 1,24,-1
 240 0 l 1,25,-1
 240 382 l 1,26,-1
 504 38 l 1,0,-1
EndSplineSet
EndChar

StartChar: eng
Encoding: 331 331 266
Width: 614
GlyphClass: 1
Flags: W
LayerCount: 2
Fore
SplineSet
368 -204 m 0,0,1
 411 -204 411 -204 446.5 -189 c 128,-1,2
 482 -174 482 -174 508.5 -146 c 128,-1,3
 535 -118 535 -118 550.5 -79 c 128,-1,4
 566 -40 566 -40 566 6 c 2,5,-1
 566 339 l 2,6,7
 566 370 566 370 560.5 404.5 c 128,-1,8
 555 439 555 439 538.5 468 c 128,-1,9
 522 497 522 497 490.5 516 c 128,-1,10
 459 535 459 535 407 535 c 0,11,12
 373 535 373 535 342.5 529 c 128,-1,13
 312 523 312 523 286.5 510.5 c 128,-1,14
 261 498 261 498 240.5 480.5 c 128,-1,15
 220 463 220 463 205 440 c 1,16,-1
 205 525 l 1,17,-1
 53 525 l 1,18,-1
 53 0 l 1,19,-1
 222 0 l 1,20,-1
 222 299 l 1,21,22
 229 319 229 319 241 334.5 c 128,-1,23
 253 350 253 350 267.5 361.5 c 128,-1,24
 282 373 282 373 298.5 379.5 c 128,-1,25
 315 386 315 386 330 386 c 0,26,27
 359 386 359 386 378 364.5 c 128,-1,28
 397 343 397 343 397 295 c 2,29,-1
 397 -7 l 2,30,31
 397 -19 397 -19 393 -28.5 c 128,-1,32
 389 -38 389 -38 382.5 -44.5 c 128,-1,33
 376 -51 376 -51 367 -54.5 c 128,-1,34
 358 -58 358 -58 347 -58 c 0,35,36
 332 -58 332 -58 318.5 -53 c 128,-1,37
 305 -48 305 -48 296 -38 c 1,38,-1
 225 -153 l 1,39,40
 255 -178 255 -178 291.5 -191 c 128,-1,41
 328 -204 328 -204 368 -204 c 0,0,1
EndSplineSet
EndChar

StartChar: OE
Encoding: 338 338 273
Width: 1050
GlyphClass: 1
Flags: W
LayerCount: 2
Fore
SplineSet
709 152 m 1,0,-1
 709 285 l 1,1,-1
 956 285 l 1,2,-1
 956 437 l 1,3,-1
 709 437 l 1,4,-1
 709 558 l 1,5,-1
 1010 558 l 1,6,-1
 1010 710 l 1,7,-1
 535 710 l 1,8,-1
 535 647 l 1,9,10
 519 662 519 662 499.5 674.5 c 128,-1,11
 480 687 480 687 459 696 c 128,-1,12
 438 705 438 705 415 710 c 128,-1,13
 392 715 392 715 367 715 c 0,14,15
 293 715 293 715 230.5 685.5 c 128,-1,16
 168 656 168 656 122 606 c 128,-1,17
 76 556 76 556 50.5 491.5 c 128,-1,18
 25 427 25 427 25 356 c 0,19,20
 25 287 25 287 49.5 222 c 128,-1,21
 74 157 74 157 118.5 106.5 c 128,-1,22
 163 56 163 56 225.5 25.5 c 128,-1,23
 288 -5 288 -5 364 -5 c 0,24,25
 389 -5 389 -5 412 0.5 c 128,-1,26
 435 6 435 6 457 15 c 128,-1,27
 479 24 479 24 498.5 36.5 c 128,-1,28
 518 49 518 49 535 64 c 1,29,-1
 535 0 l 1,30,-1
 1019 0 l 1,31,-1
 1019 152 l 1,32,-1
 709 152 l 1,0,-1
365 150 m 0,33,34
 325 150 325 150 294.5 167 c 128,-1,35
 264 184 264 184 243.5 212.5 c 128,-1,36
 223 241 223 241 212.5 278 c 128,-1,37
 202 315 202 315 202 354 c 256,38,39
 202 393 202 393 212 429.5 c 128,-1,40
 222 466 222 466 242.5 495 c 128,-1,41
 263 524 263 524 293 542 c 128,-1,42
 323 560 323 560 364 560 c 0,43,44
 404 560 404 560 434.5 543 c 128,-1,45
 465 526 465 526 485.5 497.5 c 128,-1,46
 506 469 506 469 516.5 432.5 c 128,-1,47
 527 396 527 396 527 356 c 0,48,49
 527 318 527 318 517 281 c 128,-1,50
 507 244 507 244 487 215 c 128,-1,51
 467 186 467 186 436.5 168 c 128,-1,52
 406 150 406 150 365 150 c 0,33,34
EndSplineSet
EndChar

StartChar: oe
Encoding: 339 339 274
Width: 998
GlyphClass: 1
Flags: W
LayerCount: 2
Fore
SplineSet
304 -10 m 0,0,1
 331 -10 331 -10 356 -5 c 128,-1,2
 381 0 381 0 404.5 11.5 c 128,-1,3
 428 23 428 23 451.5 41 c 128,-1,4
 475 59 475 59 501 84 c 1,5,6
 527 59 527 59 551 41.5 c 128,-1,7
 575 24 575 24 599.5 12.5 c 128,-1,8
 624 1 624 1 649 -4.5 c 128,-1,9
 674 -10 674 -10 703 -10 c 0,10,11
 745 -10 745 -10 783.5 0 c 128,-1,12
 822 10 822 10 854.5 28 c 128,-1,13
 887 46 887 46 913 72 c 128,-1,14
 939 98 939 98 955 131 c 1,15,-1
 816 172 l 1,16,17
 810 158 810 158 799.5 146.5 c 128,-1,18
 789 135 789 135 774.5 126.5 c 128,-1,19
 760 118 760 118 743 113.5 c 128,-1,20
 726 109 726 109 708 109 c 0,21,22
 686 109 686 109 666 116.5 c 128,-1,23
 646 124 646 124 630.5 138 c 128,-1,24
 615 152 615 152 606 170 c 128,-1,25
 597 188 597 188 596 210 c 1,26,-1
 977 210 l 1,27,28
 979 221 979 221 980.5 235 c 128,-1,29
 982 249 982 249 982 263 c 0,30,31
 981 323 981 323 960 373 c 128,-1,32
 939 423 939 423 902 458.5 c 128,-1,33
 865 494 865 494 814 514.5 c 128,-1,34
 763 535 763 535 702 535 c 0,35,36
 640 535 640 535 592.5 511 c 128,-1,37
 545 487 545 487 501 436 c 1,38,39
 482 460 482 460 460.5 479 c 128,-1,40
 439 498 439 498 414 510.5 c 128,-1,41
 389 523 389 523 361.5 529 c 128,-1,42
 334 535 334 535 302 535 c 0,43,44
 241 535 241 535 189.5 515 c 128,-1,45
 138 495 138 495 101 458.5 c 128,-1,46
 64 422 64 422 43 372 c 128,-1,47
 22 322 22 322 22 262 c 0,48,49
 22 203 22 203 43 153 c 128,-1,50
 64 103 64 103 101.5 66.5 c 128,-1,51
 139 30 139 30 190.5 10 c 128,-1,52
 242 -10 242 -10 304 -10 c 0,0,1
305 133 m 0,53,54
 281 133 281 133 261 142.5 c 128,-1,55
 241 152 241 152 226.5 169 c 128,-1,56
 212 186 212 186 204 210 c 128,-1,57
 196 234 196 234 196 262 c 0,58,59
 196 291 196 291 204 314.5 c 128,-1,60
 212 338 212 338 227 355.5 c 128,-1,61
 242 373 242 373 262 382.5 c 128,-1,62
 282 392 282 392 306 392 c 256,63,64
 330 392 330 392 350 382.5 c 128,-1,65
 370 373 370 373 384.5 355.5 c 128,-1,66
 399 338 399 338 407 314.5 c 128,-1,67
 415 291 415 291 415 262 c 0,68,69
 415 234 415 234 407 210 c 128,-1,70
 399 186 399 186 384 169 c 128,-1,71
 369 152 369 152 349.5 142.5 c 128,-1,72
 330 133 330 133 305 133 c 0,53,54
590 313 m 1,73,74
 592 336 592 336 600.5 354.5 c 128,-1,75
 609 373 609 373 623.5 386 c 128,-1,76
 638 399 638 399 656.5 406.5 c 128,-1,77
 675 414 675 414 697 414 c 0,78,79
 718 414 718 414 737 406.5 c 128,-1,80
 756 399 756 399 770 386 c 128,-1,81
 784 373 784 373 793 354.5 c 128,-1,82
 802 336 802 336 805 313 c 1,83,-1
 590 313 l 1,73,74
EndSplineSet
EndChar

StartChar: Tbar
Encoding: 358 358 293
Width: 645
GlyphClass: 1
Flags: W
LayerCount: 2
Fore
SplineSet
573 276 m 1,0,-1
 573 360 l 1,1,-1
 72 360 l 1,2,-1
 72 276 l 1,3,-1
 573 276 l 1,0,-1
622 710 m 1,4,-1
 23 710 l 1,5,-1
 23 558 l 1,6,-1
 236 558 l 1,7,-1
 236 0 l 1,8,-1
 410 0 l 1,9,-1
 410 558 l 1,10,-1
 622 558 l 1,11,-1
 622 710 l 1,4,-1
EndSplineSet
EndChar

StartChar: tbar
Encoding: 359 359 294
Width: 410
GlyphClass: 1
Flags: W
LayerCount: 2
Fore
SplineSet
352 236 m 1,0,-1
 352 334 l 1,1,-1
 29 334 l 1,2,-1
 29 236 l 1,3,-1
 352 236 l 1,0,-1
371 162 m 1,4,5
 363 159 363 159 354.5 155.5 c 128,-1,6
 346 152 346 152 337 150 c 128,-1,7
 328 148 328 148 319 146 c 128,-1,8
 310 144 310 144 302 144 c 0,9,10
 282 144 282 144 269.5 155 c 128,-1,11
 257 166 257 166 257 193 c 2,12,-1
 257 397 l 1,13,-1
 363 397 l 1,14,-1
 363 525 l 1,15,-1
 257 525 l 1,16,-1
 257 692 l 1,17,-1
 87 692 l 1,18,-1
 87 525 l 1,19,-1
 21 525 l 1,20,-1
 21 397 l 1,21,-1
 87 397 l 1,22,-1
 87 134 l 2,23,24
 87 94 87 94 99 66.5 c 128,-1,25
 111 39 111 39 131.5 22 c 128,-1,26
 152 5 152 5 179.5 -2.5 c 128,-1,27
 207 -10 207 -10 237 -10 c 0,28,29
 259 -10 259 -10 281 -7 c 128,-1,30
 303 -4 303 -4 324.5 1.5 c 128,-1,31
 346 7 346 7 365.5 13.5 c 128,-1,32
 385 20 385 20 403 28 c 1,33,-1
 371 162 l 1,4,5
EndSplineSet
EndChar

StartChar: uni018F
Encoding: 399 399 318
Width: 754
GlyphClass: 1
Flags: W
LayerCount: 2
Fore
SplineSet
373 -5 m 256,0,1
 458 -5 458 -5 523.5 27 c 128,-1,2
 589 59 589 59 635 110.5 c 128,-1,3
 681 162 681 162 704.5 228.5 c 128,-1,4
 728 295 728 295 728 363 c 0,5,6
 728 426 728 426 703.5 488.5 c 128,-1,7
 679 551 679 551 634 601 c 128,-1,8
 589 651 589 651 523 682.5 c 128,-1,9
 457 714 457 714 373 714 c 0,10,11
 316 714 316 714 266 700.5 c 128,-1,12
 216 687 216 687 174.5 662 c 128,-1,13
 133 637 133 637 102 602 c 128,-1,14
 71 567 71 567 51 524 c 1,15,-1
 230 471 l 1,16,17
 237 492 237 492 251 508.5 c 128,-1,18
 265 525 265 525 284.5 536.5 c 128,-1,19
 304 548 304 548 327 554.5 c 128,-1,20
 350 561 350 561 373 561 c 0,21,22
 403 561 403 561 431.5 551.5 c 128,-1,23
 460 542 460 542 482 522.5 c 128,-1,24
 504 503 504 503 519 474 c 128,-1,25
 534 445 534 445 538 407 c 1,26,-1
 20 407 l 1,27,28
 18 394 18 394 16.5 376 c 128,-1,29
 15 358 15 358 15 340 c 0,30,31
 15 281 15 281 39 219.5 c 128,-1,32
 63 158 63 158 108.5 108 c 128,-1,33
 154 58 154 58 221 26.5 c 128,-1,34
 288 -5 288 -5 373 -5 c 256,0,1
376 147 m 0,35,36
 342 147 342 147 313 156.5 c 128,-1,37
 284 166 284 166 262 182.5 c 128,-1,38
 240 199 240 199 226 223.5 c 128,-1,39
 212 248 212 248 207 277 c 1,40,-1
 534 277 l 1,41,42
 530 248 530 248 516.5 223.5 c 128,-1,43
 503 199 503 199 482.5 182.5 c 128,-1,44
 462 166 462 166 434.5 156.5 c 128,-1,45
 407 147 407 147 376 147 c 0,35,36
EndSplineSet
EndChar

StartChar: florin
Encoding: 402 402 319
Width: 559
GlyphClass: 1
Flags: W
LayerCount: 2
Fore
SplineSet
172 -204 m 256,0,1
 213 -204 213 -204 249.5 -189.5 c 128,-1,2
 286 -175 286 -175 312.5 -148.5 c 128,-1,3
 339 -122 339 -122 354 -84.5 c 128,-1,4
 369 -47 369 -47 369 -3 c 2,5,-1
 369 336 l 1,6,-1
 489 336 l 1,7,-1
 489 464 l 1,8,-1
 369 464 l 1,9,-1
 369 530 l 2,10,11
 369 564 369 564 382.5 580.5 c 128,-1,12
 396 597 396 597 423 597 c 0,13,14
 439 597 439 597 459 592.5 c 128,-1,15
 479 588 479 588 495 581 c 1,16,-1
 525 710 l 1,17,18
 489 725 489 725 454 732.5 c 128,-1,19
 419 740 419 740 386 740 c 0,20,21
 344 740 344 740 309 724.5 c 128,-1,22
 274 709 274 709 250 681 c 128,-1,23
 226 653 226 653 212.5 613.5 c 128,-1,24
 199 574 199 574 199 524 c 2,25,-1
 199 464 l 1,26,-1
 133 464 l 1,27,-1
 133 336 l 1,28,-1
 199 336 l 1,29,-1
 199 -7 l 2,30,31
 199 -19 199 -19 195.5 -28.5 c 128,-1,32
 192 -38 192 -38 185.5 -44.5 c 128,-1,33
 179 -51 179 -51 170 -54.5 c 128,-1,34
 161 -58 161 -58 150 -58 c 0,35,36
 136 -58 136 -58 122 -53 c 128,-1,37
 108 -48 108 -48 99 -38 c 1,38,-1
 28 -153 l 1,39,40
 58 -178 58 -178 94.5 -191 c 128,-1,41
 131 -204 131 -204 172 -204 c 256,0,1
EndSplineSet
EndChar

StartChar: Aringacute
Encoding: 506 506 328
Width: 669
GlyphClass: 1
Flags: W
LayerCount: 2
Fore
SplineSet
0 0 m 1,0,-1
 179 0 l 1,1,-1
 229 153 l 1,2,-1
 440 153 l 1,3,-1
 491 0 l 1,4,-1
 669 0 l 1,5,-1
 430 710 l 1,6,-1
 240 710 l 1,7,-1
 0 0 l 1,0,-1
256 271 m 1,8,-1
 335 536 l 1,9,-1
 411 271 l 1,10,-1
 256 271 l 1,8,-1
222 755 m 256,11,12
 222 712 222 712 252.5 687 c 128,-1,13
 283 662 283 662 335 662 c 256,14,15
 387 662 387 662 417.5 687 c 128,-1,16
 448 712 448 712 448 755 c 256,17,18
 448 798 448 798 417.5 823 c 128,-1,19
 387 848 387 848 335 848 c 256,20,21
 283 848 283 848 252.5 823 c 128,-1,22
 222 798 222 798 222 755 c 256,11,12
335 795 m 256,23,24
 353 795 353 795 365 783 c 128,-1,25
 377 771 377 771 377 756 c 0,26,27
 377 739 377 739 364.5 727 c 128,-1,28
 352 715 352 715 335 715 c 0,29,30
 317 715 317 715 305.5 727.5 c 128,-1,31
 294 740 294 740 294 756 c 0,32,33
 294 771 294 771 305.5 783 c 128,-1,34
 317 795 317 795 335 795 c 256,23,24
511 963 m 1,35,-1
 359 963 l 1,36,-1
 296 821 l 1,37,-1
 377 821 l 1,38,-1
 511 963 l 1,35,-1
EndSplineSet
EndChar

StartChar: uni0237
Encoding: 567 567 370
Width: 275
GlyphClass: 1
Flags: W
LayerCount: 2
Fore
SplineSet
25 -204 m 0,0,1
 67 -204 67 -204 103.5 -189 c 128,-1,2
 140 -174 140 -174 166.5 -146 c 128,-1,3
 193 -118 193 -118 207.5 -79 c 128,-1,4
 222 -40 222 -40 222 6 c 2,5,-1
 222 525 l 1,6,-1
 53 525 l 1,7,-1
 53 -7 l 2,8,9
 53 -19 53 -19 49.5 -28.5 c 128,-1,10
 46 -38 46 -38 39 -44.5 c 128,-1,11
 32 -51 32 -51 23 -54.5 c 128,-1,12
 14 -58 14 -58 4 -58 c 0,13,14
 -11 -58 -11 -58 -24.5 -53 c 128,-1,15
 -38 -48 -38 -48 -48 -38 c 1,16,-1
 -118 -153 l 1,17,18
 -89 -178 -89 -178 -52.5 -191 c 128,-1,19
 -16 -204 -16 -204 25 -204 c 0,0,1
EndSplineSet
EndChar

StartChar: uni0259
Encoding: 601 601 371
Width: 605
GlyphClass: 1
Flags: W
LayerCount: 2
Fore
SplineSet
300 -10 m 0,0,1
 369 -10 369 -10 421.5 12.5 c 128,-1,2
 474 35 474 35 510 72.5 c 128,-1,3
 546 110 546 110 564.5 160.5 c 128,-1,4
 583 211 583 211 583 268 c 0,5,6
 583 321 583 321 564 369.5 c 128,-1,7
 545 418 545 418 508.5 455 c 128,-1,8
 472 492 472 492 419.5 513.5 c 128,-1,9
 367 535 367 535 300 535 c 0,10,11
 253 535 253 535 213 524.5 c 128,-1,12
 173 514 173 514 141 495.5 c 128,-1,13
 109 477 109 477 84.5 451.5 c 128,-1,14
 60 426 60 426 44 394 c 1,15,-1
 188 353 l 1,16,17
 194 367 194 367 204.5 378 c 128,-1,18
 215 389 215 389 229 397 c 128,-1,19
 243 405 243 405 260 409 c 128,-1,20
 277 413 277 413 294 413 c 0,21,22
 314 413 314 413 332.5 407 c 128,-1,23
 351 401 351 401 366.5 388.5 c 128,-1,24
 382 376 382 376 391.5 357.5 c 128,-1,25
 401 339 401 339 403 315 c 1,26,-1
 21 315 l 1,27,28
 19 304 19 304 18 290 c 128,-1,29
 17 276 17 276 17 262 c 0,30,31
 17 208 17 208 35.5 158.5 c 128,-1,32
 54 109 54 109 90 72 c 128,-1,33
 126 35 126 35 179 12.5 c 128,-1,34
 232 -10 232 -10 300 -10 c 0,0,1
303 111 m 0,35,36
 281 111 281 111 263 118 c 128,-1,37
 245 125 245 125 231 138 c 128,-1,38
 217 151 217 151 208 170 c 128,-1,39
 199 189 199 189 197 212 c 1,40,-1
 406 212 l 1,41,42
 404 189 404 189 395.5 170 c 128,-1,43
 387 151 387 151 373.5 138 c 128,-1,44
 360 125 360 125 342 118 c 128,-1,45
 324 111 324 111 303 111 c 0,35,36
EndSplineSet
EndChar

StartChar: uni02BE
Encoding: 702 702 376
Width: 157
GlyphClass: 1
Flags: W
LayerCount: 2
Fore
SplineSet
22 555 m 1,0,1
 74 555 74 555 104.5 579.5 c 128,-1,2
 135 604 135 604 135 647 c 0,3,4
 135 691 135 691 104.5 715.5 c 128,-1,5
 74 740 74 740 22 740 c 1,6,-1
 22 687 l 1,7,8
 40 687 40 687 52 675.5 c 128,-1,9
 64 664 64 664 64 648 c 256,10,11
 64 632 64 632 52 620 c 128,-1,12
 40 608 40 608 22 608 c 1,13,-1
 22 555 l 1,0,1
EndSplineSet
EndChar

StartChar: uni02BF
Encoding: 703 703 377
Width: 157
GlyphClass: 1
Flags: W
LayerCount: 2
Fore
SplineSet
135 608 m 1,0,1
 117 608 117 608 105 620 c 128,-1,2
 93 632 93 632 93 648 c 256,3,4
 93 664 93 664 105 675.5 c 128,-1,5
 117 687 117 687 135 687 c 1,6,-1
 135 740 l 1,7,8
 83 740 83 740 52.5 715.5 c 128,-1,9
 22 691 22 691 22 647 c 0,10,11
 22 604 22 604 52.5 579.5 c 128,-1,12
 83 555 83 555 135 555 c 1,13,-1
 135 608 l 1,0,1
EndSplineSet
EndChar

StartChar: uni02C8
Encoding: 712 712 380
Width: 301
GlyphClass: 1
Flags: W
LayerCount: 2
Fore
SplineSet
79 775 m 1,0,-1
 79 387 l 1,1,-1
 222 387 l 1,2,-1
 222 775 l 1,3,-1
 79 775 l 1,0,-1
EndSplineSet
EndChar

StartChar: uni02C9
Encoding: 713 713 381
Width: 431
GlyphClass: 1
Flags: W
LayerCount: 2
Fore
SplineSet
369 616 m 1,0,-1
 369 718 l 1,1,-1
 62 718 l 1,2,-1
 62 616 l 1,3,-1
 369 616 l 1,0,-1
EndSplineSet
EndChar

StartChar: uni02CA
Encoding: 714 714 382
Width: 255
GlyphClass: 1
Flags: W
LayerCount: 2
Fore
SplineSet
161 497 m 1,0,-1
 199 728 l 1,1,-1
 56 728 l 1,2,-1
 56 497 l 1,3,-1
 161 497 l 1,0,-1
EndSplineSet
EndChar

StartChar: uni02CB
Encoding: 715 715 383
Width: 255
GlyphClass: 1
Flags: W
LayerCount: 2
Fore
SplineSet
199 497 m 1,0,-1
 199 728 l 1,1,-1
 56 728 l 1,2,-1
 94 497 l 1,3,-1
 199 497 l 1,0,-1
EndSplineSet
EndChar

StartChar: uni02CC
Encoding: 716 716 384
Width: 301
GlyphClass: 1
Flags: W
LayerCount: 2
Fore
SplineSet
79 258 m 1,0,-1
 79 -130 l 1,1,-1
 222 -130 l 1,2,-1
 222 258 l 1,3,-1
 79 258 l 1,0,-1
EndSplineSet
EndChar

StartChar: tilde
Encoding: 732 732 389
Width: 454
GlyphClass: 1
Flags: W
LayerCount: 2
Fore
SplineSet
295 583 m 0,0,1
 332 583 332 583 358 603 c 128,-1,2
 384 623 384 623 400 648.5 c 128,-1,3
 416 674 416 674 423 697.5 c 128,-1,4
 430 721 430 721 430 730 c 1,5,-1
 340 730 l 1,6,7
 340 729 340 729 338.5 721 c 128,-1,8
 337 713 337 713 331.5 703.5 c 128,-1,9
 326 694 326 694 316 686.5 c 128,-1,10
 306 679 306 679 289 679 c 0,11,12
 271 679 271 679 257 687 c 128,-1,13
 243 695 243 695 228.5 704 c 128,-1,14
 214 713 214 713 196 721 c 128,-1,15
 178 729 178 729 155 729 c 0,16,17
 119 729 119 729 94 710 c 128,-1,18
 69 691 69 691 53.5 667 c 128,-1,19
 38 643 38 643 31 618 c 128,-1,20
 24 593 24 593 24 582 c 1,21,-1
 115 582 l 1,22,23
 115 583 115 583 116 590.5 c 128,-1,24
 117 598 117 598 122 606.5 c 128,-1,25
 127 615 127 615 136 622.5 c 128,-1,26
 145 630 145 630 162 630 c 0,27,28
 178 630 178 630 192.5 622.5 c 128,-1,29
 207 615 207 615 222 606 c 128,-1,30
 237 597 237 597 254.5 590 c 128,-1,31
 272 583 272 583 295 583 c 0,0,1
EndSplineSet
EndChar

StartChar: gravecomb
Encoding: 768 768 391
Width: 274
GlyphClass: 1
Flags: W
LayerCount: 2
Fore
SplineSet
35 760 m 1,0,-1
 169 600 l 1,1,-1
 251 600 l 1,2,-1
 188 760 l 1,3,-1
 35 760 l 1,0,-1
EndSplineSet
EndChar

StartChar: acutecomb
Encoding: 769 769 392
Width: 274
GlyphClass: 1
Flags: W
LayerCount: 2
Fore
SplineSet
251 760 m 1,0,-1
 98 760 l 1,1,-1
 35 600 l 1,2,-1
 117 600 l 1,3,-1
 251 760 l 1,0,-1
EndSplineSet
EndChar

StartChar: uni0302
Encoding: 770 770 393
Width: 390
GlyphClass: 1
Flags: W
LayerCount: 2
Fore
SplineSet
21 600 m 1,0,-1
 103 600 l 1,1,-1
 189 682 l 1,2,-1
 275 600 l 1,3,-1
 357 600 l 1,4,-1
 266 756 l 1,5,-1
 112 756 l 1,6,-1
 21 600 l 1,0,-1
EndSplineSet
EndChar

StartChar: tildecomb
Encoding: 771 771 394
Width: 454
GlyphClass: 1
Flags: W
LayerCount: 2
Fore
SplineSet
295 615 m 0,0,1
 332 615 332 615 358 635 c 128,-1,2
 384 655 384 655 400 680.5 c 128,-1,3
 416 706 416 706 423 729.5 c 128,-1,4
 430 753 430 753 430 762 c 1,5,-1
 340 762 l 1,6,7
 340 761 340 761 338.5 753 c 128,-1,8
 337 745 337 745 331.5 735.5 c 128,-1,9
 326 726 326 726 316 718.5 c 128,-1,10
 306 711 306 711 289 711 c 0,11,12
 271 711 271 711 257 719 c 128,-1,13
 243 727 243 727 228.5 736 c 128,-1,14
 214 745 214 745 196 753 c 128,-1,15
 178 761 178 761 155 761 c 0,16,17
 119 761 119 761 94 742 c 128,-1,18
 69 723 69 723 53.5 699 c 128,-1,19
 38 675 38 675 31 650 c 128,-1,20
 24 625 24 625 24 614 c 1,21,-1
 115 614 l 1,22,23
 115 615 115 615 116 622.5 c 128,-1,24
 117 630 117 630 122 638.5 c 128,-1,25
 127 647 127 647 136 654.5 c 128,-1,26
 145 662 145 662 162 662 c 0,27,28
 178 662 178 662 192.5 654.5 c 128,-1,29
 207 647 207 647 222 638 c 128,-1,30
 237 629 237 629 254.5 622 c 128,-1,31
 272 615 272 615 295 615 c 0,0,1
EndSplineSet
EndChar

StartChar: uni0304
Encoding: 772 772 395
Width: 431
GlyphClass: 1
Flags: W
LayerCount: 2
Fore
SplineSet
369 616 m 1,0,-1
 369 718 l 1,1,-1
 62 718 l 1,2,-1
 62 616 l 1,3,-1
 369 616 l 1,0,-1
EndSplineSet
EndChar

StartChar: uni0306
Encoding: 774 774 396
Width: 354
GlyphClass: 1
Flags: W
LayerCount: 2
Fore
SplineSet
177 652 m 0,0,1
 153 652 153 652 135 675 c 128,-1,2
 117 698 117 698 117 730 c 1,3,-1
 28 730 l 1,4,5
 28 697 28 697 39 669 c 128,-1,6
 50 641 50 641 69.5 621 c 128,-1,7
 89 601 89 601 116.5 589.5 c 128,-1,8
 144 578 144 578 177 578 c 0,9,10
 209 578 209 578 236.5 589.5 c 128,-1,11
 264 601 264 601 284 621 c 128,-1,12
 304 641 304 641 315 669 c 128,-1,13
 326 697 326 697 326 730 c 1,14,-1
 237 730 l 1,15,16
 234 697 234 697 217 674.5 c 128,-1,17
 200 652 200 652 177 652 c 0,0,1
EndSplineSet
EndChar

StartChar: uni0307
Encoding: 775 775 397
Width: 252
GlyphClass: 1
Flags: W
LayerCount: 2
Fore
SplineSet
39 663 m 0,0,1
 39 627 39 627 64.5 601.5 c 128,-1,2
 90 576 90 576 125 576 c 0,3,4
 161 576 161 576 186.5 601.5 c 128,-1,5
 212 627 212 627 212 663 c 0,6,7
 212 698 212 698 186.5 723.5 c 128,-1,8
 161 749 161 749 125 749 c 0,9,10
 90 749 90 749 64.5 723.5 c 128,-1,11
 39 698 39 698 39 663 c 0,0,1
EndSplineSet
EndChar

StartChar: uni0308
Encoding: 776 776 398
Width: 526
GlyphClass: 1
Flags: W
LayerCount: 2
Fore
SplineSet
67 656 m 0,0,1
 67 620 67 620 92.5 594.5 c 128,-1,2
 118 569 118 569 153 569 c 0,3,4
 189 569 189 569 214.5 594.5 c 128,-1,5
 240 620 240 620 240 656 c 0,6,7
 240 691 240 691 214.5 716.5 c 128,-1,8
 189 742 189 742 153 742 c 0,9,10
 118 742 118 742 92.5 716.5 c 128,-1,11
 67 691 67 691 67 656 c 0,0,1
288 656 m 0,12,13
 288 620 288 620 313.5 594.5 c 128,-1,14
 339 569 339 569 374 569 c 0,15,16
 410 569 410 569 435.5 594.5 c 128,-1,17
 461 620 461 620 461 656 c 0,18,19
 461 691 461 691 435.5 716.5 c 128,-1,20
 410 742 410 742 374 742 c 0,21,22
 339 742 339 742 313.5 716.5 c 128,-1,23
 288 691 288 691 288 656 c 0,12,13
EndSplineSet
EndChar

StartChar: hookabovecomb
Encoding: 777 777 399
Width: 600
GlyphClass: 1
Flags: W
LayerCount: 2
Fore
SplineSet
255 680 m 1,0,1
 270 693 270 693 280 699.5 c 128,-1,2
 290 706 290 706 304 706 c 256,3,4
 318 706 318 706 325.5 697.5 c 128,-1,5
 333 689 333 689 333 677 c 0,6,7
 333 663 333 663 324.5 651.5 c 128,-1,8
 316 640 316 640 299 628 c 1,9,-1
 340 585 l 1,10,11
 376 614 376 614 393 639 c 128,-1,12
 410 664 410 664 410 701 c 0,13,14
 410 736 410 736 385.5 758.5 c 128,-1,15
 361 781 361 781 318 781 c 0,16,17
 289 781 289 781 262.5 768.5 c 128,-1,18
 236 756 236 756 207 727 c 1,19,-1
 255 680 l 1,0,1
EndSplineSet
EndChar

StartChar: uni030A
Encoding: 778 778 400
Width: 270
GlyphClass: 1
Flags: W
LayerCount: 2
Fore
SplineSet
22 647 m 0,0,1
 22 604 22 604 52.5 579.5 c 128,-1,2
 83 555 83 555 135 555 c 0,3,4
 186 555 186 555 216.5 579.5 c 128,-1,5
 247 604 247 604 247 647 c 0,6,7
 247 691 247 691 216.5 715.5 c 128,-1,8
 186 740 186 740 135 740 c 0,9,10
 83 740 83 740 52.5 715.5 c 128,-1,11
 22 691 22 691 22 647 c 0,0,1
135 687 m 0,12,13
 152 687 152 687 164 675.5 c 128,-1,14
 176 664 176 664 176 648 c 256,15,16
 176 632 176 632 164 620 c 128,-1,17
 152 608 152 608 135 608 c 0,18,19
 117 608 117 608 105 620 c 128,-1,20
 93 632 93 632 93 648 c 256,21,22
 93 664 93 664 105 675.5 c 128,-1,23
 117 687 117 687 135 687 c 0,12,13
EndSplineSet
EndChar

StartChar: uni030C
Encoding: 780 780 402
Width: 390
GlyphClass: 1
Flags: W
LayerCount: 2
Fore
SplineSet
21 756 m 1,0,-1
 112 600 l 1,1,-1
 266 600 l 1,2,-1
 357 756 l 1,3,-1
 275 756 l 1,4,-1
 189 674 l 1,5,-1
 103 756 l 1,6,-1
 21 756 l 1,0,-1
EndSplineSet
EndChar

StartChar: uni0311
Encoding: 785 785 404
Width: 354
GlyphClass: 1
Flags: W
LayerCount: 2
Fore
SplineSet
176 657 m 256,0,1
 200 657 200 657 217 634.5 c 128,-1,2
 234 612 234 612 237 578 c 1,3,-1
 326 578 l 1,4,5
 326 612 326 612 315 639.5 c 128,-1,6
 304 667 304 667 284 687 c 128,-1,7
 264 707 264 707 236.5 718.5 c 128,-1,8
 209 730 209 730 177 730 c 0,9,10
 144 730 144 730 116.5 718.5 c 128,-1,11
 89 707 89 707 69.5 687 c 128,-1,12
 50 667 50 667 39 639.5 c 128,-1,13
 28 612 28 612 28 578 c 1,14,-1
 117 578 l 1,15,16
 117 610 117 610 134.5 633.5 c 128,-1,17
 152 657 152 657 176 657 c 256,0,1
EndSplineSet
EndChar

StartChar: uni0312
Encoding: 786 786 405
Width: 226
GlyphClass: 1
Flags: W
LayerCount: 2
Fore
SplineSet
14 578 m 1,0,-1
 166 578 l 1,1,-1
 228 745 l 1,2,-1
 146 745 l 1,3,-1
 14 578 l 1,0,-1
EndSplineSet
EndChar

StartChar: uni031B
Encoding: 795 795 406
Width: 332
GlyphClass: 1
Flags: W
LayerCount: 2
Fore
SplineSet
50 475 m 1,0,1
 78 475 78 475 105 479 c 128,-1,2
 132 483 132 483 157 490 c 128,-1,3
 182 497 182 497 201.5 507 c 128,-1,4
 221 517 221 517 233 529 c 0,5,6
 251 545 251 545 260.5 564.5 c 128,-1,7
 270 584 270 584 274.5 604 c 128,-1,8
 279 624 279 624 280.5 644 c 128,-1,9
 282 664 282 664 282 682 c 1,10,-1
 164 682 l 1,11,12
 163 662 163 662 161.5 644.5 c 128,-1,13
 160 627 160 627 147 613 c 256,14,15
 134 599 134 599 110.5 594.5 c 128,-1,16
 87 590 87 590 52 590 c 1,17,-1
 50 475 l 1,0,1
EndSplineSet
EndChar

StartChar: dotbelowcomb
Encoding: 803 803 407
Width: 252
GlyphClass: 1
Flags: W
LayerCount: 2
Fore
SplineSet
40 -139 m 0,0,1
 40 -175 40 -175 65.5 -200.5 c 128,-1,2
 91 -226 91 -226 126 -226 c 256,3,4
 161 -226 161 -226 186.5 -200.5 c 128,-1,5
 212 -175 212 -175 212 -139 c 0,6,7
 212 -104 212 -104 186.5 -78.5 c 128,-1,8
 161 -53 161 -53 126 -53 c 256,9,10
 91 -53 91 -53 65.5 -78.5 c 128,-1,11
 40 -104 40 -104 40 -139 c 0,0,1
EndSplineSet
EndChar

StartChar: uni0324
Encoding: 804 804 408
Width: 526
GlyphClass: 1
Flags: W
LayerCount: 2
Fore
SplineSet
285 -142 m 0,0,1
 285 -178 285 -178 310.5 -203.5 c 128,-1,2
 336 -229 336 -229 371 -229 c 0,3,4
 407 -229 407 -229 432.5 -203.5 c 128,-1,5
 458 -178 458 -178 458 -142 c 0,6,7
 458 -107 458 -107 432.5 -81.5 c 128,-1,8
 407 -56 407 -56 371 -56 c 0,9,10
 336 -56 336 -56 310.5 -81.5 c 128,-1,11
 285 -107 285 -107 285 -142 c 0,0,1
68 -142 m 0,12,13
 68 -178 68 -178 93.5 -203.5 c 128,-1,14
 119 -229 119 -229 154 -229 c 0,15,16
 190 -229 190 -229 215.5 -203.5 c 128,-1,17
 241 -178 241 -178 241 -142 c 0,18,19
 241 -107 241 -107 215.5 -81.5 c 128,-1,20
 190 -56 190 -56 154 -56 c 0,21,22
 119 -56 119 -56 93.5 -81.5 c 128,-1,23
 68 -107 68 -107 68 -142 c 0,12,13
EndSplineSet
EndChar

StartChar: uni0326
Encoding: 806 806 409
Width: 226
GlyphClass: 1
Flags: W
LayerCount: 2
Fore
SplineSet
107 -281 m 1,0,-1
 216 -46 l 1,1,-1
 73 -46 l 1,2,-1
 33 -281 l 1,3,-1
 107 -281 l 1,0,-1
EndSplineSet
EndChar

StartChar: uni0327
Encoding: 807 807 410
Width: 349
GlyphClass: 1
Flags: W
LayerCount: 2
Fore
SplineSet
34 -192 m 1,0,1
 60 -203 60 -203 88.5 -207.5 c 128,-1,2
 117 -212 117 -212 145 -212 c 0,3,4
 168 -212 168 -212 193.5 -208 c 128,-1,5
 219 -204 219 -204 240 -193 c 128,-1,6
 261 -182 261 -182 275 -163 c 128,-1,7
 289 -144 289 -144 289 -115 c 0,8,9
 289 -75 289 -75 261 -57.5 c 128,-1,10
 233 -40 233 -40 198 -40 c 0,11,12
 190 -40 190 -40 183 -40 c 128,-1,13
 176 -40 176 -40 169 -42 c 1,14,-1
 205 10 l 1,15,16
 201 11 201 11 192.5 13.5 c 128,-1,17
 184 16 184 16 174 19 c 128,-1,18
 164 22 164 22 155 24.5 c 128,-1,19
 146 27 146 27 142 28 c 1,20,-1
 79 -100 l 1,21,22
 100 -97 100 -97 120.5 -93.5 c 128,-1,23
 141 -90 141 -90 162 -90 c 0,24,25
 178 -90 178 -90 195 -95.5 c 128,-1,26
 212 -101 212 -101 212 -121 c 0,27,28
 212 -131 212 -131 206 -137.5 c 128,-1,29
 200 -144 200 -144 191.5 -147.5 c 128,-1,30
 183 -151 183 -151 173.5 -152 c 128,-1,31
 164 -153 164 -153 156 -153 c 0,32,33
 136 -153 136 -153 110 -148.5 c 128,-1,34
 84 -144 84 -144 66 -133 c 1,35,36
 65 -137 65 -137 60 -145 c 128,-1,37
 55 -153 55 -153 50 -162.5 c 128,-1,38
 45 -172 45 -172 40.5 -180 c 128,-1,39
 36 -188 36 -188 34 -192 c 1,0,1
EndSplineSet
EndChar

StartChar: uni0328
Encoding: 808 808 411
Width: 317
GlyphClass: 1
Flags: W
LayerCount: 2
Fore
SplineSet
70 -113 m 0,0,1
 70 -130 70 -130 78.5 -145.5 c 128,-1,2
 87 -161 87 -161 104.5 -173.5 c 128,-1,3
 122 -186 122 -186 149 -195.5 c 128,-1,4
 176 -205 176 -205 215 -209 c 1,5,-1
 247 -118 l 1,6,7
 211 -117 211 -117 193 -107.5 c 128,-1,8
 175 -98 175 -98 175 -81 c 0,9,10
 175 -63 175 -63 193.5 -42.5 c 128,-1,11
 212 -22 212 -22 249 1 c 1,12,-1
 234 24 l 1,13,-1
 179 24 l 1,14,15
 124 -6 124 -6 97 -41.5 c 128,-1,16
 70 -77 70 -77 70 -113 c 0,0,1
EndSplineSet
EndChar

StartChar: uni032E
Encoding: 814 814 412
Width: 354
GlyphClass: 1
Flags: W
LayerCount: 2
Fore
SplineSet
177 -130 m 0,0,1
 153 -130 153 -130 135 -107 c 128,-1,2
 117 -84 117 -84 117 -52 c 1,3,-1
 28 -52 l 1,4,5
 28 -85 28 -85 39 -113 c 128,-1,6
 50 -141 50 -141 69.5 -161 c 128,-1,7
 89 -181 89 -181 116.5 -192.5 c 128,-1,8
 144 -204 144 -204 177 -204 c 0,9,10
 209 -204 209 -204 236.5 -192.5 c 128,-1,11
 264 -181 264 -181 284 -161 c 128,-1,12
 304 -141 304 -141 315 -113 c 128,-1,13
 326 -85 326 -85 326 -52 c 1,14,-1
 237 -52 l 1,15,16
 234 -85 234 -85 217 -107.5 c 128,-1,17
 200 -130 200 -130 177 -130 c 0,0,1
EndSplineSet
EndChar

StartChar: uni0331
Encoding: 817 817 413
Width: 431
GlyphClass: 1
Flags: W
LayerCount: 2
Fore
SplineSet
369 -178 m 1,0,-1
 369 -76 l 1,1,-1
 62 -76 l 1,2,-1
 62 -178 l 1,3,-1
 369 -178 l 1,0,-1
EndSplineSet
EndChar

StartChar: uni0335
Encoding: 821 821 414
Width: 423
GlyphClass: 1
Flags: W
LayerCount: 2
Fore
SplineSet
373 236 m 1,0,-1
 373 334 l 1,1,-1
 50 334 l 1,2,-1
 50 236 l 1,3,-1
 373 236 l 1,0,-1
EndSplineSet
EndChar

StartChar: tonos
Encoding: 900 900 416
Width: 224
GlyphClass: 1
Flags: W
LayerCount: 2
Fore
SplineSet
68 834 m 1,0,-1
 42 581 l 1,1,-1
 126 568 l 1,2,-1
 184 808 l 1,3,-1
 68 834 l 1,0,-1
EndSplineSet
EndChar

StartChar: dieresistonos
Encoding: 901 901 417
Width: 579
GlyphClass: 1
Flags: W
LayerCount: 2
Fore
SplineSet
37 658 m 256,0,1
 37 621 37 621 62 596 c 128,-1,2
 87 571 87 571 123 571 c 0,3,4
 161 571 161 571 185 596 c 128,-1,5
 209 621 209 621 209 657 c 0,6,7
 209 695 209 695 185 719 c 128,-1,8
 161 743 161 743 123 743 c 0,9,10
 87 743 87 743 62 719 c 128,-1,11
 37 695 37 695 37 658 c 256,0,1
370 657 m 0,12,13
 372 621 372 621 397 596 c 128,-1,14
 422 571 422 571 458 571 c 0,15,16
 495 571 495 571 519.5 596 c 128,-1,17
 544 621 544 621 544 657 c 0,18,19
 544 695 544 695 519.5 719 c 128,-1,20
 495 743 495 743 458 743 c 0,21,22
 422 743 422 743 397 719.5 c 128,-1,23
 372 696 372 696 370 657 c 0,12,13
260 838 m 1,24,-1
 234 585 l 1,25,-1
 319 573 l 1,26,-1
 376 813 l 1,27,-1
 260 838 l 1,24,-1
EndSplineSet
EndChar

StartChar: Alphatonos
Encoding: 902 902 418
Width: 669
GlyphClass: 1
Flags: W
LayerCount: 2
Fore
SplineSet
0 0 m 1,0,-1
 179 0 l 1,1,-1
 229 153 l 1,2,-1
 440 153 l 1,3,-1
 491 0 l 1,4,-1
 669 0 l 1,5,-1
 430 710 l 1,6,-1
 240 710 l 1,7,-1
 0 0 l 1,0,-1
256 271 m 1,8,-1
 335 536 l 1,9,-1
 411 271 l 1,10,-1
 256 271 l 1,8,-1
126 916 m 1,11,-1
 39 681 l 1,12,-1
 127 645 l 1,13,-1
 252 829 l 1,14,-1
 126 916 l 1,11,-1
EndSplineSet
EndChar

StartChar: Epsilontonos
Encoding: 904 904 420
Width: 702
GlyphClass: 1
Flags: W
LayerCount: 2
Fore
SplineSet
343 152 m 1,0,-1
 343 291 l 1,1,-1
 616 291 l 1,2,-1
 616 432 l 1,3,-1
 343 432 l 1,4,-1
 343 558 l 1,5,-1
 661 558 l 1,6,-1
 661 710 l 1,7,-1
 169 710 l 1,8,-1
 169 0 l 1,9,-1
 670 0 l 1,10,-1
 670 152 l 1,11,-1
 343 152 l 1,0,-1
147 986 m 1,12,-1
 60 751 l 1,13,-1
 147 715 l 1,14,-1
 272 898 l 1,15,-1
 147 986 l 1,12,-1
EndSplineSet
EndChar

StartChar: Etatonos
Encoding: 905 905 421
Width: 856
GlyphClass: 1
Flags: W
LayerCount: 2
Fore
SplineSet
611 710 m 1,0,-1
 611 439 l 1,1,-1
 343 439 l 1,2,-1
 343 710 l 1,3,-1
 169 710 l 1,4,-1
 169 0 l 1,5,-1
 343 0 l 1,6,-1
 343 287 l 1,7,-1
 611 287 l 1,8,-1
 611 0 l 1,9,-1
 785 0 l 1,10,-1
 785 710 l 1,11,-1
 611 710 l 1,0,-1
67 912 m 1,12,-1
 -20 677 l 1,13,-1
 68 641 l 1,14,-1
 193 825 l 1,15,-1
 67 912 l 1,12,-1
EndSplineSet
EndChar

StartChar: Iotatonos
Encoding: 906 906 422
Width: 425
GlyphClass: 1
Flags: W
LayerCount: 2
Fore
SplineSet
334 0 m 1,0,-1
 334 710 l 1,1,-1
 160 710 l 1,2,-1
 160 0 l 1,3,-1
 334 0 l 1,0,-1
77 908 m 1,4,-1
 -10 673 l 1,5,-1
 77 636 l 1,6,-1
 202 820 l 1,7,-1
 77 908 l 1,4,-1
EndSplineSet
EndChar

StartChar: Omicrontonos
Encoding: 908 908 423
Width: 850
GlyphClass: 1
Flags: W
LayerCount: 2
Fore
SplineSet
430 -6 m 256,0,1
 509 -6 509 -6 574.5 24 c 128,-1,2
 640 54 640 54 687 103.5 c 128,-1,3
 734 153 734 153 760.5 217.5 c 128,-1,4
 787 282 787 282 787 352 c 0,5,6
 787 420 787 420 762 485 c 128,-1,7
 737 550 737 550 690.5 601 c 128,-1,8
 644 652 644 652 579 683 c 128,-1,9
 514 714 514 714 434 714 c 0,10,11
 356 714 356 714 290.5 684.5 c 128,-1,12
 225 655 225 655 177.5 605.5 c 128,-1,13
 130 556 130 556 103 491.5 c 128,-1,14
 76 427 76 427 76 356 c 0,15,16
 76 287 76 287 102 222 c 128,-1,17
 128 157 128 157 174 106.5 c 128,-1,18
 220 56 220 56 285.5 25 c 128,-1,19
 351 -6 351 -6 430 -6 c 256,0,1
253 354 m 256,20,21
 253 393 253 393 264 429.5 c 128,-1,22
 275 466 275 466 297.5 495 c 128,-1,23
 320 524 320 524 353 541.5 c 128,-1,24
 386 559 386 559 431 559 c 0,25,26
 475 559 475 559 508.5 542 c 128,-1,27
 542 525 542 525 564.5 497 c 128,-1,28
 587 469 587 469 598.5 432 c 128,-1,29
 610 395 610 395 610 356 c 0,30,31
 610 318 610 318 599.5 280.5 c 128,-1,32
 589 243 589 243 567 214 c 128,-1,33
 545 185 545 185 511 167 c 128,-1,34
 477 149 477 149 432 149 c 0,35,36
 388 149 388 149 354.5 166.5 c 128,-1,37
 321 184 321 184 298.5 212.5 c 128,-1,38
 276 241 276 241 264.5 278 c 128,-1,39
 253 315 253 315 253 354 c 256,20,21
82 908 m 1,40,-1
 -5 673 l 1,41,-1
 82 636 l 1,42,-1
 207 820 l 1,43,-1
 82 908 l 1,40,-1
EndSplineSet
EndChar

StartChar: Upsilontonos
Encoding: 910 910 424
Width: 742
GlyphClass: 1
Flags: W
LayerCount: 2
Fore
SplineSet
335 0 m 1,0,-1
 492 0 l 1,1,-1
 492 227 l 2,2,3
 492 296 492 296 514 353 c 128,-1,4
 536 410 536 410 568.5 459 c 128,-1,5
 601 508 601 508 640.5 550 c 128,-1,6
 680 592 680 592 715 630 c 1,7,-1
 598 715 l 1,8,9
 557 675 557 675 526 641 c 128,-1,10
 495 607 495 607 473 575.5 c 128,-1,11
 451 544 451 544 436.5 513 c 128,-1,12
 422 482 422 482 414 446 c 1,13,-1
 411 446 l 1,14,15
 403 482 403 482 388.5 513.5 c 128,-1,16
 374 545 374 545 352.5 576.5 c 128,-1,17
 331 608 331 608 300.5 642 c 128,-1,18
 270 676 270 676 229 715 c 1,19,-1
 112 630 l 1,20,21
 147 592 147 592 186.5 550.5 c 128,-1,22
 226 509 226 509 259 460 c 128,-1,23
 292 411 292 411 313.5 353.5 c 128,-1,24
 335 296 335 296 335 227 c 2,25,-1
 335 0 l 1,0,-1
77 908 m 1,26,-1
 -10 673 l 1,27,-1
 78 636 l 1,28,-1
 203 820 l 1,29,-1
 77 908 l 1,26,-1
EndSplineSet
EndChar

StartChar: Omegatonos
Encoding: 911 911 425
Width: 723
GlyphClass: 1
Flags: W
LayerCount: 2
Fore
SplineSet
29 0 m 1,0,-1
 321 0 l 1,1,-1
 321 239 l 1,2,3
 295 247 295 247 274 263.5 c 128,-1,4
 253 280 253 280 237 303 c 128,-1,5
 221 326 221 326 212.5 354.5 c 128,-1,6
 204 383 204 383 204 413 c 0,7,8
 204 447 204 447 216 475.5 c 128,-1,9
 228 504 228 504 249 525 c 128,-1,10
 270 546 270 546 298.5 557.5 c 128,-1,11
 327 569 327 569 360 569 c 256,12,13
 393 569 393 569 421 557.5 c 128,-1,14
 449 546 449 546 469.5 525 c 128,-1,15
 490 504 490 504 501.5 475 c 128,-1,16
 513 446 513 446 513 412 c 0,17,18
 513 380 513 380 504 351 c 128,-1,19
 495 322 495 322 479.5 299 c 128,-1,20
 464 276 464 276 442 260 c 128,-1,21
 420 244 420 244 395 239 c 1,22,-1
 395 0 l 1,23,-1
 688 0 l 1,24,-1
 688 134 l 1,25,-1
 438 134 l 1,26,-1
 503 84 l 1,27,-1
 503 205 l 1,28,-1
 456 138 l 1,29,30
 503 149 503 149 542.5 174.5 c 128,-1,31
 582 200 582 200 611.5 237 c 128,-1,32
 641 274 641 274 657.5 320.5 c 128,-1,33
 674 367 674 367 674 419 c 0,34,35
 674 482 674 482 650 536.5 c 128,-1,36
 626 591 626 591 584 630.5 c 128,-1,37
 542 670 542 670 484 693 c 128,-1,38
 426 716 426 716 358 716 c 256,39,40
 290 716 290 716 232.5 692.5 c 128,-1,41
 175 669 175 669 133 629 c 128,-1,42
 91 589 91 589 67.5 534 c 128,-1,43
 44 479 44 479 44 416 c 0,44,45
 44 367 44 367 59 321.5 c 128,-1,46
 74 276 74 276 100.5 238.5 c 128,-1,47
 127 201 127 201 165 174.5 c 128,-1,48
 203 148 203 148 249 136 c 1,49,-1
 217 205 l 1,50,-1
 217 84 l 1,51,-1
 282 134 l 1,52,-1
 30 134 l 1,53,-1
 29 0 l 1,0,-1
54 908 m 1,54,-1
 -34 673 l 1,55,-1
 54 636 l 1,56,-1
 179 820 l 1,57,-1
 54 908 l 1,54,-1
EndSplineSet
EndChar

StartChar: iotadieresistonos
Encoding: 912 912 426
Width: 418
GlyphClass: 1
Flags: W
LayerCount: 2
Fore
SplineSet
248 -8 m 0,0,1
 276 -8 276 -8 302 -3 c 128,-1,2
 328 2 328 2 347 11 c 1,3,-1
 325 148 l 1,4,5
 317 143 317 143 304 139 c 128,-1,6
 291 135 291 135 281 134 c 0,7,8
 267 135 267 135 258.5 148.5 c 128,-1,9
 250 162 250 162 250 210 c 0,10,11
 250 233 250 233 251.5 271.5 c 128,-1,12
 253 310 253 310 255.5 353.5 c 128,-1,13
 258 397 258 397 260.5 441.5 c 128,-1,14
 263 486 263 486 264 521 c 1,15,-1
 112 521 l 1,16,17
 112 469 112 469 111 423 c 128,-1,18
 110 377 110 377 110 334 c 128,-1,19
 110 291 110 291 109.5 249 c 128,-1,20
 109 207 109 207 109 163 c 0,21,22
 109 120 109 120 118.5 88 c 128,-1,23
 128 56 128 56 146 34.5 c 128,-1,24
 164 13 164 13 189.5 2.5 c 128,-1,25
 215 -8 215 -8 248 -8 c 0,0,1
-64 668 m 0,26,27
 -64 633 -64 633 -40 608 c 128,-1,28
 -16 583 -16 583 21 583 c 256,29,30
 58 583 58 583 82 608 c 128,-1,31
 106 633 106 633 106 668 c 0,32,33
 106 706 106 706 82 730 c 128,-1,34
 58 754 58 754 21 754 c 256,35,36
 -16 754 -16 754 -40 730 c 128,-1,37
 -64 706 -64 706 -64 668 c 0,26,27
266 668 m 0,38,39
 267 633 267 633 292 608 c 128,-1,40
 317 583 317 583 353 583 c 0,41,42
 390 583 390 583 414 608 c 128,-1,43
 438 633 438 633 438 668 c 0,44,45
 438 706 438 706 414 730 c 128,-1,46
 390 754 390 754 353 754 c 0,47,48
 317 754 317 754 292 730 c 128,-1,49
 267 706 267 706 266 668 c 0,38,39
157 847 m 1,50,-1
 131 597 l 1,51,-1
 215 584 l 1,52,-1
 272 822 l 1,53,-1
 157 847 l 1,50,-1
EndSplineSet
EndChar

StartChar: Gamma
Encoding: 915 915 429
Width: 504
GlyphClass: 1
Flags: W
LayerCount: 2
Fore
SplineSet
567 708 m 1,0,-1
 567 559 l 1,1,-1
 236 559 l 1,2,-1
 236 10 l 1,3,-1
 65 10 l 1,4,-1
 65 708 l 1,5,-1
 567 708 l 1,0,-1
EndSplineSet
EndChar

StartChar: uni0394
Encoding: 916 916 430
Width: 666
GlyphClass: 1
Flags: W
LayerCount: 2
Fore
SplineSet
6 0 m 1,0,-1
 659 0 l 1,1,-1
 659 23 l 1,2,-1
 436 708 l 1,3,-1
 230 708 l 1,4,-1
 6 23 l 1,5,-1
 6 0 l 1,0,-1
192 132 m 1,6,-1
 269 360 l 1,7,-1
 332 579 l 1,8,-1
 336 579 l 1,9,-1
 399 360 l 1,10,-1
 472 132 l 1,11,-1
 192 132 l 1,6,-1
EndSplineSet
EndChar

StartChar: Theta
Encoding: 920 920 434
Width: 762
GlyphClass: 1
Flags: W
LayerCount: 2
Fore
SplineSet
260 284 m 1,0,-1
 493 284 l 1,1,-1
 493 428 l 1,2,-1
 260 428 l 1,3,-1
 260 284 l 1,0,-1
373 -6 m 0,4,5
 450 -6 450 -6 514.5 23.5 c 128,-1,6
 579 53 579 53 625.5 101.5 c 128,-1,7
 672 150 672 150 698 214 c 128,-1,8
 724 278 724 278 724 346 c 0,9,10
 724 413 724 413 699 477 c 128,-1,11
 674 541 674 541 628.5 591 c 128,-1,12
 583 641 583 641 519 671.5 c 128,-1,13
 455 702 455 702 377 702 c 0,14,15
 300 702 300 702 235.5 673 c 128,-1,16
 171 644 171 644 124.5 595.5 c 128,-1,17
 78 547 78 547 51.5 483 c 128,-1,18
 25 419 25 419 25 350 c 0,19,20
 25 283 25 283 50 218.5 c 128,-1,21
 75 154 75 154 120.5 104.5 c 128,-1,22
 166 55 166 55 230.5 24.5 c 128,-1,23
 295 -6 295 -6 373 -6 c 0,4,5
198 348 m 256,24,25
 198 386 198 386 209 422 c 128,-1,26
 220 458 220 458 242 486.5 c 128,-1,27
 264 515 264 515 297 532.5 c 128,-1,28
 330 550 330 550 374 550 c 0,29,30
 417 550 417 550 450 533.5 c 128,-1,31
 483 517 483 517 505 489 c 128,-1,32
 527 461 527 461 538.5 425 c 128,-1,33
 550 389 550 389 550 350 c 0,34,35
 550 313 550 313 539 276 c 128,-1,36
 528 239 528 239 506.5 210.5 c 128,-1,37
 485 182 485 182 452 164 c 128,-1,38
 419 146 419 146 375 146 c 0,39,40
 332 146 332 146 298.5 163 c 128,-1,41
 265 180 265 180 243 208.5 c 128,-1,42
 221 237 221 237 209.5 273.5 c 128,-1,43
 198 310 198 310 198 348 c 256,24,25
EndSplineSet
EndChar

StartChar: Lambda
Encoding: 923 923 437
Width: 691
GlyphClass: 1
Flags: W
LayerCount: 2
Fore
SplineSet
7 0 m 1,0,-1
 166 0 l 1,1,-1
 282 360 l 1,2,-1
 344 563 l 1,3,-1
 348 563 l 1,4,-1
 410 358 l 1,5,-1
 523 0 l 1,6,-1
 683 0 l 1,7,-1
 449 708 l 1,8,-1
 242 708 l 1,9,-1
 7 0 l 1,0,-1
EndSplineSet
EndChar

StartChar: Xi
Encoding: 926 926 440
Width: 659
GlyphClass: 1
Flags: W
LayerCount: 2
Fore
SplineSet
61 0 m 1,0,-1
 598 0 l 1,1,-1
 598 132 l 1,2,-1
 61 132 l 1,3,-1
 61 0 l 1,0,-1
135 286 m 1,4,-1
 523 286 l 1,5,-1
 523 416 l 1,6,-1
 135 416 l 1,7,-1
 135 286 l 1,4,-1
61 573 m 1,8,-1
 598 573 l 1,9,-1
 598 705 l 1,10,-1
 61 705 l 1,11,-1
 61 573 l 1,8,-1
EndSplineSet
EndChar

StartChar: Pi
Encoding: 928 928 442
Width: 672
GlyphClass: 1
Flags: W
LayerCount: 2
Fore
SplineSet
69 0 m 1,0,-1
 226 0 l 1,1,-1
 226 573 l 1,2,-1
 446 573 l 1,3,-1
 446 0 l 1,4,-1
 603 0 l 1,5,-1
 603 705 l 1,6,-1
 69 705 l 1,7,-1
 69 0 l 1,0,-1
EndSplineSet
EndChar

StartChar: Sigma
Encoding: 931 931 444
Width: 574
GlyphClass: 1
Flags: W
LayerCount: 2
Fore
SplineSet
50 0 m 1,0,-1
 527 0 l 1,1,-1
 527 132 l 1,2,-1
 263 132 l 1,3,-1
 433 360 l 1,4,-1
 265 573 l 1,5,-1
 511 573 l 1,6,-1
 511 705 l 1,7,-1
 52 705 l 1,8,-1
 52 610 l 1,9,-1
 268 357 l 1,10,-1
 50 94 l 1,11,-1
 50 0 l 1,0,-1
EndSplineSet
EndChar

StartChar: Upsilon
Encoding: 933 933 446
Width: 644
GlyphClass: 1
Flags: W
LayerCount: 2
Fore
SplineSet
244 0 m 1,0,-1
 401 0 l 1,1,-1
 401 227 l 2,2,3
 401 296 401 296 423 353 c 128,-1,4
 445 410 445 410 477.5 459 c 128,-1,5
 510 508 510 508 549.5 550 c 128,-1,6
 589 592 589 592 624 630 c 1,7,-1
 507 715 l 1,8,9
 466 675 466 675 435 641 c 128,-1,10
 404 607 404 607 382 575.5 c 128,-1,11
 360 544 360 544 345.5 513 c 128,-1,12
 331 482 331 482 323 446 c 1,13,-1
 320 446 l 1,14,15
 312 482 312 482 297.5 513.5 c 128,-1,16
 283 545 283 545 261.5 576.5 c 128,-1,17
 240 608 240 608 209.5 642 c 128,-1,18
 179 676 179 676 138 715 c 1,19,-1
 21 630 l 1,20,21
 56 592 56 592 95.5 550.5 c 128,-1,22
 135 509 135 509 168 460 c 128,-1,23
 201 411 201 411 222.5 353.5 c 128,-1,24
 244 296 244 296 244 227 c 2,25,-1
 244 0 l 1,0,-1
EndSplineSet
EndChar

StartChar: Phi
Encoding: 934 934 447
Width: 766
GlyphClass: 1
Flags: W
LayerCount: 2
Fore
SplineSet
357 197 m 1,0,1
 320 197 320 197 288.5 208.5 c 128,-1,2
 257 220 257 220 235 241 c 128,-1,3
 213 262 213 262 200.5 290.5 c 128,-1,4
 188 319 188 319 188 354 c 0,5,6
 188 390 188 390 200.5 419 c 128,-1,7
 213 448 213 448 235 468.5 c 128,-1,8
 257 489 257 489 288.5 500.5 c 128,-1,9
 320 512 320 512 357 512 c 1,10,-1
 357 640 l 1,11,12
 286 640 286 640 228 619.5 c 128,-1,13
 170 599 170 599 128.5 561.5 c 128,-1,14
 87 524 87 524 64.5 471.5 c 128,-1,15
 42 419 42 419 42 354 c 0,16,17
 42 290 42 290 64.5 237.5 c 128,-1,18
 87 185 87 185 128.5 147.5 c 128,-1,19
 170 110 170 110 228 89.5 c 128,-1,20
 286 69 286 69 357 69 c 1,21,-1
 357 197 l 1,0,1
457 -32 m 1,22,-1
 457 737 l 1,23,-1
 311 737 l 1,24,-1
 311 -32 l 1,25,-1
 457 -32 l 1,22,-1
415 69 m 1,26,27
 485 69 485 69 543 89.5 c 128,-1,28
 601 110 601 110 641 147.5 c 128,-1,29
 681 185 681 185 703 237.5 c 128,-1,30
 725 290 725 290 725 354 c 0,31,32
 725 419 725 419 703 471.5 c 128,-1,33
 681 524 681 524 641 561.5 c 128,-1,34
 601 599 601 599 543 619.5 c 128,-1,35
 485 640 485 640 415 640 c 1,36,-1
 415 512 l 1,37,38
 452 512 452 512 482 500.5 c 128,-1,39
 512 489 512 489 533.5 468.5 c 128,-1,40
 555 448 555 448 567 419 c 128,-1,41
 579 390 579 390 579 354 c 0,42,43
 579 319 579 319 567 290.5 c 128,-1,44
 555 262 555 262 533.5 241 c 128,-1,45
 512 220 512 220 482 208.5 c 128,-1,46
 452 197 452 197 415 197 c 1,47,-1
 415 69 l 1,26,27
EndSplineSet
EndChar

StartChar: Psi
Encoding: 936 936 449
Width: 812
GlyphClass: 1
Flags: W
LayerCount: 2
Fore
SplineSet
333 0 m 1,0,-1
 480 0 l 1,1,-1
 480 708 l 1,2,-1
 333 708 l 1,3,-1
 333 0 l 1,0,-1
75 442 m 2,4,5
 75 386 75 386 90 337.5 c 128,-1,6
 105 289 105 289 139 253 c 128,-1,7
 173 217 173 217 228.5 195.5 c 128,-1,8
 284 174 284 174 364 173 c 1,9,-1
 355 295 l 1,10,11
 314 295 314 295 288 306.5 c 128,-1,12
 262 318 262 318 247 336.5 c 128,-1,13
 232 355 232 355 226.5 379.5 c 128,-1,14
 221 404 221 404 221 430 c 0,15,16
 221 446 221 446 221.5 463.5 c 128,-1,17
 222 481 222 481 222.5 499.5 c 128,-1,18
 223 518 223 518 223.5 537 c 128,-1,19
 224 556 224 556 223 574 c 0,20,21
 225 612 225 612 223.5 649.5 c 128,-1,22
 222 687 222 687 211 708 c 1,23,-1
 61 708 l 1,24,25
 67 684 67 684 70 660 c 128,-1,26
 73 636 73 636 74 614 c 128,-1,27
 75 592 75 592 75 573 c 128,-1,28
 75 554 75 554 75 538 c 2,29,-1
 75 442 l 2,4,5
736 538 m 2,30,31
 736 556 736 556 736 576 c 128,-1,32
 736 596 736 596 737.5 617.5 c 128,-1,33
 739 639 739 639 741.5 661.5 c 128,-1,34
 744 684 744 684 749 708 c 1,35,-1
 599 708 l 1,36,37
 591 687 591 687 589.5 649 c 128,-1,38
 588 611 588 611 588 574 c 0,39,40
 588 556 588 556 588.5 537 c 128,-1,41
 589 518 589 518 589 499.5 c 128,-1,42
 589 481 589 481 589.5 463.5 c 128,-1,43
 590 446 590 446 590 430 c 0,44,45
 590 404 590 404 584.5 380 c 128,-1,46
 579 356 579 356 564.5 337 c 128,-1,47
 550 318 550 318 524 306.5 c 128,-1,48
 498 295 498 295 458 295 c 1,49,-1
 449 173 l 1,50,51
 529 174 529 174 584.5 195.5 c 128,-1,52
 640 217 640 217 673.5 253.5 c 128,-1,53
 707 290 707 290 721.5 338.5 c 128,-1,54
 736 387 736 387 736 442 c 2,55,-1
 736 538 l 2,30,31
EndSplineSet
EndChar

StartChar: uni03A9
Encoding: 937 937 450
Width: 717
GlyphClass: 1
Flags: W
LayerCount: 2
Fore
SplineSet
29 0 m 1,0,-1
 321 0 l 1,1,-1
 321 239 l 1,2,3
 295 247 295 247 274 263.5 c 128,-1,4
 253 280 253 280 237 303 c 128,-1,5
 221 326 221 326 212.5 354.5 c 128,-1,6
 204 383 204 383 204 413 c 0,7,8
 204 447 204 447 216 475.5 c 128,-1,9
 228 504 228 504 249 525 c 128,-1,10
 270 546 270 546 298.5 557.5 c 128,-1,11
 327 569 327 569 360 569 c 256,12,13
 393 569 393 569 421 557.5 c 128,-1,14
 449 546 449 546 469.5 525 c 128,-1,15
 490 504 490 504 501.5 475 c 128,-1,16
 513 446 513 446 513 412 c 0,17,18
 513 380 513 380 504 351 c 128,-1,19
 495 322 495 322 479.5 299 c 128,-1,20
 464 276 464 276 442 260 c 128,-1,21
 420 244 420 244 395 239 c 1,22,-1
 395 0 l 1,23,-1
 688 0 l 1,24,-1
 688 134 l 1,25,-1
 438 134 l 1,26,-1
 503 84 l 1,27,-1
 503 205 l 1,28,-1
 456 138 l 1,29,30
 503 149 503 149 542.5 174.5 c 128,-1,31
 582 200 582 200 611.5 237 c 128,-1,32
 641 274 641 274 657.5 320.5 c 128,-1,33
 674 367 674 367 674 419 c 0,34,35
 674 482 674 482 650 536.5 c 128,-1,36
 626 591 626 591 584 630.5 c 128,-1,37
 542 670 542 670 484 693 c 128,-1,38
 426 716 426 716 358 716 c 256,39,40
 290 716 290 716 232.5 692.5 c 128,-1,41
 175 669 175 669 133 629 c 128,-1,42
 91 589 91 589 67.5 534 c 128,-1,43
 44 479 44 479 44 416 c 0,44,45
 44 367 44 367 59 321.5 c 128,-1,46
 74 276 74 276 100.5 238.5 c 128,-1,47
 127 201 127 201 165 174.5 c 128,-1,48
 203 148 203 148 249 136 c 1,49,-1
 217 205 l 1,50,-1
 217 84 l 1,51,-1
 282 134 l 1,52,-1
 30 134 l 1,53,-1
 29 0 l 1,0,-1
EndSplineSet
EndChar

StartChar: Iotadieresis
Encoding: 938 938 451
Width: 361
GlyphClass: 1
Flags: W
LayerCount: 2
Fore
SplineSet
236 0 m 1,0,-1
 236 698 l 1,1,-1
 65 698 l 1,2,-1
 65 0 l 1,3,-1
 236 0 l 1,0,-1
12 826 m 0,4,5
 12 791 12 791 29.5 766.5 c 128,-1,6
 47 742 47 742 73 742 c 0,7,8
 98 742 98 742 116 766.5 c 128,-1,9
 134 791 134 791 134 826 c 0,10,11
 134 862 134 862 116 886.5 c 128,-1,12
 98 911 98 911 73 911 c 0,13,14
 47 911 47 911 29.5 886.5 c 128,-1,15
 12 862 12 862 12 826 c 0,4,5
166 826 m 0,16,17
 166 791 166 791 184 766.5 c 128,-1,18
 202 742 202 742 227 742 c 0,19,20
 253 742 253 742 271 766.5 c 128,-1,21
 289 791 289 791 289 826 c 0,22,23
 289 862 289 862 271 886.5 c 128,-1,24
 253 911 253 911 227 911 c 0,25,26
 202 911 202 911 184 886.5 c 128,-1,27
 166 862 166 862 166 826 c 0,16,17
EndSplineSet
EndChar

StartChar: alphatonos
Encoding: 940 940 453
Width: 659
GlyphClass: 1
Flags: W
LayerCount: 2
Fore
SplineSet
387 247 m 2,0,1
 381 228 381 228 373 207.5 c 128,-1,2
 365 187 365 187 352 169.5 c 128,-1,3
 339 152 339 152 321 141 c 128,-1,4
 303 130 303 130 275 130 c 0,5,6
 252 130 252 130 232.5 139.5 c 128,-1,7
 213 149 213 149 198.5 165.5 c 128,-1,8
 184 182 184 182 176 206.5 c 128,-1,9
 168 231 168 231 167 260 c 0,10,11
 168 291 168 291 176.5 315.5 c 128,-1,12
 185 340 185 340 199.5 357.5 c 128,-1,13
 214 375 214 375 233 384 c 128,-1,14
 252 393 252 393 272 393 c 0,15,16
 287 393 287 393 300.5 388 c 128,-1,17
 314 383 314 383 326.5 374 c 128,-1,18
 339 365 339 365 350 351 c 128,-1,19
 361 337 361 337 369.5 318.5 c 128,-1,20
 378 300 378 300 384.5 278 c 128,-1,21
 391 256 391 256 395 230 c 1,22,-1
 453 330 l 1,23,24
 443 383 443 383 422.5 421.5 c 128,-1,25
 402 460 402 460 374.5 484.5 c 128,-1,26
 347 509 347 509 314.5 521 c 128,-1,27
 282 533 282 533 250 533 c 0,28,29
 205 533 205 533 165.5 512 c 128,-1,30
 126 491 126 491 97 454 c 128,-1,31
 68 417 68 417 51.5 366.5 c 128,-1,32
 35 316 35 316 34 257 c 0,33,34
 35 200 35 200 52 151 c 128,-1,35
 69 102 69 102 100 67 c 128,-1,36
 131 32 131 32 172.5 12 c 128,-1,37
 214 -8 214 -8 262 -8 c 0,38,39
 305 -8 305 -8 341.5 7 c 128,-1,40
 378 22 378 22 408 48 c 128,-1,41
 438 74 438 74 460.5 109 c 128,-1,42
 483 144 483 144 496 183 c 2,43,-1
 612 525 l 1,44,-1
 478 525 l 1,45,-1
 387 247 l 2,0,1
628 118 m 1,46,-1
 607 126 l 2,47,48
 597 131 597 131 584.5 137.5 c 128,-1,49
 572 144 572 144 558.5 155 c 128,-1,50
 545 166 545 166 531 184 c 128,-1,51
 517 202 517 202 503 230 c 1,52,-1
 431 131 l 1,53,54
 435 98 435 98 445 74.5 c 128,-1,55
 455 51 455 51 468.5 35.5 c 128,-1,56
 482 20 482 20 499.5 10 c 128,-1,57
 517 0 517 0 536 -6 c 2,58,-1
 551 -8 l 1,59,-1
 628 118 l 1,46,-1
272 833 m 1,60,-1
 246 580 l 1,61,-1
 331 567 l 1,62,-1
 388 807 l 1,63,-1
 272 833 l 1,60,-1
EndSplineSet
EndChar

StartChar: epsilontonos
Encoding: 941 941 454
Width: 516
GlyphClass: 1
Flags: W
LayerCount: 2
Fore
SplineSet
442 153 m 1,0,1
 409 145 409 145 369 136 c 128,-1,2
 329 127 329 127 289 127 c 0,3,4
 240 127 240 127 212 140.5 c 128,-1,5
 184 154 184 154 184 173 c 0,6,7
 184 184 184 184 192.5 191 c 128,-1,8
 201 198 201 198 215 203 c 128,-1,9
 229 208 229 208 247.5 210 c 128,-1,10
 266 212 266 212 286 212 c 2,11,-1
 329 212 l 1,12,-1
 329 314 l 1,13,-1
 291 314 l 2,14,15
 273 315 273 315 256 318.5 c 128,-1,16
 239 322 239 322 226.5 327.5 c 128,-1,17
 214 333 214 333 206.5 340.5 c 128,-1,18
 199 348 199 348 199 356 c 256,19,20
 199 364 199 364 205.5 370.5 c 128,-1,21
 212 377 212 377 224.5 382 c 128,-1,22
 237 387 237 387 256.5 390 c 128,-1,23
 276 393 276 393 301 393 c 0,24,25
 320 393 320 393 338 391 c 128,-1,26
 356 389 356 389 372 386 c 128,-1,27
 388 383 388 383 402.5 379 c 128,-1,28
 417 375 417 375 428 370 c 1,29,-1
 469 506 l 1,30,31
 448 515 448 515 427 521.5 c 128,-1,32
 406 528 406 528 385 530.5 c 128,-1,33
 364 533 364 533 344.5 533.5 c 128,-1,34
 325 534 325 534 307 533 c 0,35,36
 249 534 249 534 204 523.5 c 128,-1,37
 159 513 159 513 128 493 c 128,-1,38
 97 473 97 473 81 445 c 128,-1,39
 65 417 65 417 65 383 c 0,40,41
 65 364 65 364 70.5 345.5 c 128,-1,42
 76 327 76 327 86 312 c 128,-1,43
 96 297 96 297 110 286.5 c 128,-1,44
 124 276 124 276 141 272 c 1,45,-1
 141 273 l 1,46,47
 120 267 120 267 102 254 c 128,-1,48
 84 241 84 241 71.5 224 c 128,-1,49
 59 207 59 207 52 187 c 128,-1,50
 45 167 45 167 45 146 c 0,51,52
 45 111 45 111 64 81.5 c 128,-1,53
 83 52 83 52 115.5 31 c 128,-1,54
 148 10 148 10 193.5 -1.5 c 128,-1,55
 239 -13 239 -13 291 -13 c 0,56,57
 316 -13 316 -13 341.5 -11 c 128,-1,58
 367 -9 367 -9 391 -5 c 128,-1,59
 415 -1 415 -1 438 3.5 c 128,-1,60
 461 8 461 8 480 14 c 1,61,-1
 442 153 l 1,0,1
269 879 m 1,62,-1
 243 627 l 1,63,-1
 328 614 l 1,64,-1
 385 854 l 1,65,-1
 269 879 l 1,62,-1
EndSplineSet
EndChar

StartChar: etatonos
Encoding: 942 942 455
Width: 638
GlyphClass: 1
Flags: W
LayerCount: 2
Fore
SplineSet
214 0 m 1,0,1
 225 96 225 96 232.5 175 c 128,-1,2
 240 254 240 254 238 333 c 0,3,4
 239 373 239 373 231.5 405.5 c 128,-1,5
 224 438 224 438 208.5 462 c 128,-1,6
 193 486 193 486 169.5 503.5 c 128,-1,7
 146 521 146 521 114 533 c 1,8,-1
 38 405 l 1,9,10
 55 398 55 398 65.5 386 c 128,-1,11
 76 374 76 374 82 356 c 128,-1,12
 88 338 88 338 91 313.5 c 128,-1,13
 94 289 94 289 93 257 c 0,14,15
 94 200 94 200 87 133.5 c 128,-1,16
 80 67 80 67 71 0 c 1,17,-1
 214 0 l 1,0,1
529 -205 m 1,18,19
 539 -154 539 -154 547 -91.5 c 128,-1,20
 555 -29 555 -29 561.5 35 c 128,-1,21
 568 99 568 99 571 159 c 128,-1,22
 574 219 574 219 574 265 c 0,23,24
 574 407 574 407 536 470 c 128,-1,25
 498 533 498 533 412 533 c 0,26,27
 382 533 382 533 353.5 522.5 c 128,-1,28
 325 512 325 512 300 492 c 128,-1,29
 275 472 275 472 254 443.5 c 128,-1,30
 233 415 233 415 218 378 c 1,31,-1
 234 244 l 1,32,33
 238 272 238 272 250.5 296.5 c 128,-1,34
 263 321 263 321 280 340.5 c 128,-1,35
 297 360 297 360 317 371 c 128,-1,36
 337 382 337 382 357 382 c 0,37,38
 397 382 397 382 414.5 346.5 c 128,-1,39
 432 311 432 311 432 223 c 0,40,41
 432 189 432 189 429 147.5 c 128,-1,42
 426 106 426 106 420 54.5 c 128,-1,43
 414 3 414 3 404.5 -60 c 128,-1,44
 395 -123 395 -123 382 -199 c 1,45,-1
 529 -205 l 1,18,19
331 833 m 1,46,-1
 305 580 l 1,47,-1
 389 567 l 1,48,-1
 447 807 l 1,49,-1
 331 833 l 1,46,-1
EndSplineSet
EndChar

StartChar: iotatonos
Encoding: 943 943 456
Width: 341
GlyphClass: 1
Flags: W
LayerCount: 2
Fore
SplineSet
205 -8 m 0,0,1
 233 -8 233 -8 259.5 -3 c 128,-1,2
 286 2 286 2 305 11 c 1,3,-1
 283 149 l 1,4,5
 274 144 274 144 261.5 140 c 128,-1,6
 249 136 249 136 238 135 c 0,7,8
 224 136 224 136 215.5 149.5 c 128,-1,9
 207 163 207 163 207 212 c 0,10,11
 207 235 207 235 208.5 273.5 c 128,-1,12
 210 312 210 312 212.5 356.5 c 128,-1,13
 215 401 215 401 217.5 445.5 c 128,-1,14
 220 490 220 490 221 525 c 1,15,-1
 68 525 l 1,16,17
 67 473 67 473 66.5 426.5 c 128,-1,18
 66 380 66 380 65.5 336.5 c 128,-1,19
 65 293 65 293 65 251 c 128,-1,20
 65 209 65 209 65 164 c 0,21,22
 65 121 65 121 74.5 88.5 c 128,-1,23
 84 56 84 56 102 34.5 c 128,-1,24
 120 13 120 13 146 2.5 c 128,-1,25
 172 -8 172 -8 205 -8 c 0,0,1
126 850 m 1,26,-1
 100 598 l 1,27,-1
 185 585 l 1,28,-1
 242 825 l 1,29,-1
 126 850 l 1,26,-1
EndSplineSet
EndChar

StartChar: upsilondieresistonos
Encoding: 944 944 457
Width: 600
GlyphClass: 1
Flags: W
LayerCount: 2
Fore
SplineSet
70 190 m 0,0,1
 70 141 70 141 86 104.5 c 128,-1,2
 102 68 102 68 131.5 43 c 128,-1,3
 161 18 161 18 203 5 c 128,-1,4
 245 -8 245 -8 295 -8 c 0,5,6
 357 -8 357 -8 404 11.5 c 128,-1,7
 451 31 451 31 483.5 68.5 c 128,-1,8
 516 106 516 106 532 161.5 c 128,-1,9
 548 217 548 217 548 288 c 0,10,11
 548 319 548 319 548 351.5 c 128,-1,12
 548 384 548 384 546.5 416 c 128,-1,13
 545 448 545 448 542.5 476.5 c 128,-1,14
 540 505 540 505 535 525 c 1,15,-1
 388 525 l 1,16,17
 393 489 393 489 396 457 c 128,-1,18
 399 425 399 425 400 395.5 c 128,-1,19
 401 366 401 366 401.5 339.5 c 128,-1,20
 402 313 402 313 401 290 c 0,21,22
 403 203 403 203 375.5 167.5 c 128,-1,23
 348 132 348 132 292 132 c 0,24,25
 274 132 274 132 259 136 c 128,-1,26
 244 140 244 140 234 149.5 c 128,-1,27
 224 159 224 159 218.5 174.5 c 128,-1,28
 213 190 213 190 213 212 c 0,29,30
 213 222 213 222 213.5 233.5 c 128,-1,31
 214 245 214 245 215 260.5 c 128,-1,32
 216 276 216 276 217 296 c 128,-1,33
 218 316 218 316 218 342 c 0,34,35
 218 381 218 381 216.5 408 c 128,-1,36
 215 435 215 435 211.5 456 c 128,-1,37
 208 477 208 477 204 493 c 128,-1,38
 200 509 200 509 195 525 c 1,39,-1
 52 525 l 1,40,41
 58 503 58 503 67 462 c 128,-1,42
 76 421 76 421 76 346 c 0,43,44
 76 323 76 323 75 300 c 128,-1,45
 74 277 74 277 73 256.5 c 128,-1,46
 72 236 72 236 71 219 c 128,-1,47
 70 202 70 202 70 190 c 0,0,1
31 656 m 0,48,49
 31 620 31 620 55.5 595 c 128,-1,50
 80 570 80 570 117 570 c 0,51,52
 155 570 155 570 179 595 c 128,-1,53
 203 620 203 620 203 656 c 0,54,55
 203 695 203 695 179 718.5 c 128,-1,56
 155 742 155 742 117 742 c 0,57,58
 80 742 80 742 55.5 718.5 c 128,-1,59
 31 695 31 695 31 656 c 0,48,49
364 656 m 0,60,61
 366 620 366 620 391 595 c 128,-1,62
 416 570 416 570 452 570 c 0,63,64
 489 570 489 570 513.5 595 c 128,-1,65
 538 620 538 620 538 656 c 0,66,67
 538 695 538 695 513.5 718.5 c 128,-1,68
 489 742 489 742 452 742 c 0,69,70
 416 742 416 742 391 718.5 c 128,-1,71
 366 695 366 695 364 656 c 0,60,61
254 837 m 1,72,-1
 228 584 l 1,73,-1
 313 572 l 1,74,-1
 370 812 l 1,75,-1
 254 837 l 1,72,-1
EndSplineSet
EndChar

StartChar: alpha
Encoding: 945 945 458
Width: 651
GlyphClass: 1
Flags: W
LayerCount: 2
Fore
SplineSet
387 247 m 2,0,1
 381 228 381 228 373 207.5 c 128,-1,2
 365 187 365 187 352 169.5 c 128,-1,3
 339 152 339 152 321 141 c 128,-1,4
 303 130 303 130 275 130 c 0,5,6
 252 130 252 130 232.5 139.5 c 128,-1,7
 213 149 213 149 198.5 165.5 c 128,-1,8
 184 182 184 182 176 206.5 c 128,-1,9
 168 231 168 231 167 260 c 0,10,11
 168 291 168 291 176.5 315.5 c 128,-1,12
 185 340 185 340 199.5 357.5 c 128,-1,13
 214 375 214 375 233 384 c 128,-1,14
 252 393 252 393 272 393 c 0,15,16
 287 393 287 393 300.5 388 c 128,-1,17
 314 383 314 383 326.5 374 c 128,-1,18
 339 365 339 365 350 351 c 128,-1,19
 361 337 361 337 369.5 318.5 c 128,-1,20
 378 300 378 300 384.5 278 c 128,-1,21
 391 256 391 256 395 230 c 1,22,-1
 453 330 l 1,23,24
 443 383 443 383 422.5 421.5 c 128,-1,25
 402 460 402 460 374.5 484.5 c 128,-1,26
 347 509 347 509 314.5 521 c 128,-1,27
 282 533 282 533 250 533 c 0,28,29
 205 533 205 533 165.5 512 c 128,-1,30
 126 491 126 491 97 454 c 128,-1,31
 68 417 68 417 51.5 366.5 c 128,-1,32
 35 316 35 316 34 257 c 0,33,34
 35 200 35 200 52 151 c 128,-1,35
 69 102 69 102 100 67 c 128,-1,36
 131 32 131 32 172.5 12 c 128,-1,37
 214 -8 214 -8 262 -8 c 0,38,39
 305 -8 305 -8 341.5 7 c 128,-1,40
 378 22 378 22 408 48 c 128,-1,41
 438 74 438 74 460.5 109 c 128,-1,42
 483 144 483 144 496 183 c 2,43,-1
 612 525 l 1,44,-1
 478 525 l 1,45,-1
 387 247 l 2,0,1
628 118 m 1,46,-1
 607 126 l 2,47,48
 597 131 597 131 584.5 137.5 c 128,-1,49
 572 144 572 144 558.5 155 c 128,-1,50
 545 166 545 166 531 184 c 128,-1,51
 517 202 517 202 503 230 c 1,52,-1
 431 131 l 1,53,54
 435 98 435 98 445 74.5 c 128,-1,55
 455 51 455 51 468.5 35.5 c 128,-1,56
 482 20 482 20 499.5 10 c 128,-1,57
 517 0 517 0 536 -6 c 2,58,-1
 551 -8 l 1,59,-1
 628 118 l 1,46,-1
EndSplineSet
EndChar

StartChar: beta
Encoding: 946 946 459
Width: 689
GlyphClass: 1
Flags: W
LayerCount: 2
Fore
SplineSet
200 32 m 1,0,1
 215 22 215 22 237 14.5 c 128,-1,2
 259 7 259 7 283.5 2 c 128,-1,3
 308 -3 308 -3 333.5 -5.5 c 128,-1,4
 359 -8 359 -8 382 -8 c 0,5,6
 438 -8 438 -8 485 11 c 128,-1,7
 532 30 532 30 565.5 62 c 128,-1,8
 599 94 599 94 617.5 135 c 128,-1,9
 636 176 636 176 636 221 c 0,10,11
 636 254 636 254 627 283.5 c 128,-1,12
 618 313 618 313 598.5 337.5 c 128,-1,13
 579 362 579 362 550.5 379 c 128,-1,14
 522 396 522 396 482 404 c 1,15,-1
 482 408 l 1,16,17
 505 420 505 420 522 439.5 c 128,-1,18
 539 459 539 459 550 482.5 c 128,-1,19
 561 506 561 506 567 532 c 128,-1,20
 573 558 573 558 573 584 c 0,21,22
 573 622 573 622 555 655 c 128,-1,23
 537 688 537 688 506.5 712 c 128,-1,24
 476 736 476 736 435 749.5 c 128,-1,25
 394 763 394 763 347 762 c 0,26,27
 287 763 287 763 237.5 740 c 128,-1,28
 188 717 188 717 152.5 676.5 c 128,-1,29
 117 636 117 636 97.5 580.5 c 128,-1,30
 78 525 78 525 78 460 c 2,31,-1
 78 -205 l 1,32,-1
 232 -205 l 1,33,34
 227 -105 227 -105 221 -47 c 128,-1,35
 215 11 215 11 208 38 c 1,36,-1
 210 152 l 2,37,38
 213 195 213 195 215 228.5 c 128,-1,39
 217 262 217 262 217.5 296.5 c 128,-1,40
 218 331 218 331 218 371.5 c 128,-1,41
 218 412 218 412 218 471 c 0,42,43
 218 506 218 506 227 535 c 128,-1,44
 236 564 236 564 251.5 585.5 c 128,-1,45
 267 607 267 607 289.5 618.5 c 128,-1,46
 312 630 312 630 339 629 c 0,47,48
 359 630 359 630 376.5 623.5 c 128,-1,49
 394 617 394 617 406 605.5 c 128,-1,50
 418 594 418 594 424.5 578 c 128,-1,51
 431 562 431 562 431 543 c 0,52,53
 431 523 431 523 422 505.5 c 128,-1,54
 413 488 413 488 396 474.5 c 128,-1,55
 379 461 379 461 356.5 452 c 128,-1,56
 334 443 334 443 308 440 c 1,57,-1
 308 337 l 1,58,59
 311 338 311 338 317 338.5 c 128,-1,60
 323 339 323 339 331 339.5 c 128,-1,61
 339 340 339 340 347 340.5 c 128,-1,62
 355 341 355 341 362 340 c 0,63,64
 392 341 392 341 418.5 333 c 128,-1,65
 445 325 445 325 464 310.5 c 128,-1,66
 483 296 483 296 493.5 276 c 128,-1,67
 504 256 504 256 504 233 c 256,68,69
 504 210 504 210 493.5 190 c 128,-1,70
 483 170 483 170 463.5 155 c 128,-1,71
 444 140 444 140 418 131.5 c 128,-1,72
 392 123 392 123 363 123 c 0,73,74
 345 123 345 123 323.5 126.5 c 128,-1,75
 302 130 302 130 280 136.5 c 128,-1,76
 258 143 258 143 236.5 152 c 128,-1,77
 215 161 215 161 197 173 c 1,78,-1
 200 32 l 1,0,1
EndSplineSet
EndChar

StartChar: gamma
Encoding: 947 947 460
Width: 632
GlyphClass: 1
Flags: W
LayerCount: 2
Fore
SplineSet
374 -205 m 1,0,1
 378 -97 378 -97 375 15.5 c 128,-1,2
 372 128 372 128 349 229.5 c 128,-1,3
 326 331 326 331 279 414 c 128,-1,4
 232 497 232 497 148 547 c 1,5,-1
 63 422 l 1,6,7
 102 401 102 401 130 361.5 c 128,-1,8
 158 322 158 322 176.5 271 c 128,-1,9
 195 220 195 220 206.5 159 c 128,-1,10
 218 98 218 98 224 35.5 c 128,-1,11
 230 -27 230 -27 231 -89 c 128,-1,12
 232 -151 232 -151 231 -205 c 1,13,-1
 374 -205 l 1,0,1
361 -3 m 1,14,15
 421 74 421 74 461 138.5 c 128,-1,16
 501 203 501 203 528.5 265 c 128,-1,17
 556 327 556 327 574.5 390 c 128,-1,18
 593 453 593 453 610 525 c 1,19,-1
 451 525 l 1,20,21
 446 473 446 473 434.5 421.5 c 128,-1,22
 423 370 423 370 407.5 324 c 128,-1,23
 392 278 392 278 372 238.5 c 128,-1,24
 352 199 352 199 327 168 c 1,25,-1
 361 -3 l 1,14,15
EndSplineSet
EndChar

StartChar: delta
Encoding: 948 948 461
Width: 605
GlyphClass: 1
Flags: W
LayerCount: 2
Fore
SplineSet
306 -8 m 0,0,1
 360 -8 360 -8 407 10.5 c 128,-1,2
 454 29 454 29 488.5 63 c 128,-1,3
 523 97 523 97 543 145.5 c 128,-1,4
 563 194 563 194 564 254 c 0,5,6
 563 311 563 311 546 353 c 128,-1,7
 529 395 529 395 504.5 425.5 c 128,-1,8
 480 456 480 456 450.5 477 c 128,-1,9
 421 498 421 498 396 512 c 0,10,11
 374 525 374 525 350 538 c 128,-1,12
 326 551 326 551 306.5 563.5 c 128,-1,13
 287 576 287 576 274 588.5 c 128,-1,14
 261 601 261 601 262 613 c 0,15,16
 260 626 260 626 274 633.5 c 128,-1,17
 288 641 288 641 315 641 c 0,18,19
 338 641 338 641 363.5 635 c 128,-1,20
 389 629 389 629 415.5 618 c 128,-1,21
 442 607 442 607 468 591.5 c 128,-1,22
 494 576 494 576 518 557 c 1,23,-1
 579 665 l 1,24,25
 558 682 558 682 528.5 699.5 c 128,-1,26
 499 717 499 717 464 730.5 c 128,-1,27
 429 744 429 744 389.5 752.5 c 128,-1,28
 350 761 350 761 305 760 c 0,29,30
 215 762 215 762 164.5 725.5 c 128,-1,31
 114 689 114 689 114 625 c 0,32,33
 114 588 114 588 130 561 c 128,-1,34
 146 534 146 534 171 512 c 128,-1,35
 196 490 196 490 228 471.5 c 128,-1,36
 260 453 260 453 292 434 c 0,37,38
 321 416 321 416 346.5 398.5 c 128,-1,39
 372 381 372 381 390.5 360.5 c 128,-1,40
 409 340 409 340 420 316 c 128,-1,41
 431 292 431 292 432 261 c 0,42,43
 431 229 431 229 420 204.5 c 128,-1,44
 409 180 409 180 391 163.5 c 128,-1,45
 373 147 373 147 350 138.5 c 128,-1,46
 327 130 327 130 302 130 c 0,47,48
 275 130 275 130 251.5 139.5 c 128,-1,49
 228 149 228 149 209.5 165.5 c 128,-1,50
 191 182 191 182 180 205 c 128,-1,51
 169 228 169 228 169 256 c 256,52,53
 169 284 169 284 180 309.5 c 128,-1,54
 191 335 191 335 209.5 354 c 128,-1,55
 228 373 228 373 254 383.5 c 128,-1,56
 280 394 280 394 310 394 c 0,57,58
 333 394 333 394 360 387.5 c 128,-1,59
 387 381 387 381 402 366 c 1,60,-1
 336 484 l 1,61,62
 326 489 326 489 303.5 493 c 128,-1,63
 281 497 281 497 257 497 c 0,64,65
 207 497 207 497 166.5 477.5 c 128,-1,66
 126 458 126 458 97 424.5 c 128,-1,67
 68 391 68 391 52.5 347.5 c 128,-1,68
 37 304 37 304 37 256 c 0,69,70
 37 205 37 205 57 157 c 128,-1,71
 77 109 77 109 112.5 72 c 128,-1,72
 148 35 148 35 197 13.5 c 128,-1,73
 246 -8 246 -8 306 -8 c 0,0,1
EndSplineSet
EndChar

StartChar: epsilon
Encoding: 949 949 462
Width: 513
GlyphClass: 1
Flags: W
LayerCount: 2
Fore
SplineSet
442 153 m 1,0,1
 409 145 409 145 369 136 c 128,-1,2
 329 127 329 127 289 127 c 0,3,4
 240 127 240 127 212 140.5 c 128,-1,5
 184 154 184 154 184 173 c 0,6,7
 184 184 184 184 192.5 191 c 128,-1,8
 201 198 201 198 215 203 c 128,-1,9
 229 208 229 208 247.5 210 c 128,-1,10
 266 212 266 212 286 212 c 2,11,-1
 329 212 l 1,12,-1
 329 314 l 1,13,-1
 291 314 l 2,14,15
 273 315 273 315 256 318.5 c 128,-1,16
 239 322 239 322 226.5 327.5 c 128,-1,17
 214 333 214 333 206.5 340.5 c 128,-1,18
 199 348 199 348 199 356 c 256,19,20
 199 364 199 364 205.5 370.5 c 128,-1,21
 212 377 212 377 224.5 382 c 128,-1,22
 237 387 237 387 256.5 390 c 128,-1,23
 276 393 276 393 301 393 c 0,24,25
 320 393 320 393 338 391 c 128,-1,26
 356 389 356 389 372 386 c 128,-1,27
 388 383 388 383 402.5 379 c 128,-1,28
 417 375 417 375 428 370 c 1,29,-1
 469 506 l 1,30,31
 448 515 448 515 427 521.5 c 128,-1,32
 406 528 406 528 385 530.5 c 128,-1,33
 364 533 364 533 344.5 533.5 c 128,-1,34
 325 534 325 534 307 533 c 0,35,36
 249 534 249 534 204 523.5 c 128,-1,37
 159 513 159 513 128 493 c 128,-1,38
 97 473 97 473 81 445 c 128,-1,39
 65 417 65 417 65 383 c 0,40,41
 65 364 65 364 70.5 345.5 c 128,-1,42
 76 327 76 327 86 312 c 128,-1,43
 96 297 96 297 110 286.5 c 128,-1,44
 124 276 124 276 141 272 c 1,45,-1
 141 273 l 1,46,47
 120 267 120 267 102 254 c 128,-1,48
 84 241 84 241 71.5 224 c 128,-1,49
 59 207 59 207 52 187 c 128,-1,50
 45 167 45 167 45 146 c 0,51,52
 45 111 45 111 64 81.5 c 128,-1,53
 83 52 83 52 115.5 31 c 128,-1,54
 148 10 148 10 193.5 -1.5 c 128,-1,55
 239 -13 239 -13 291 -13 c 0,56,57
 316 -13 316 -13 341.5 -11 c 128,-1,58
 367 -9 367 -9 391 -5 c 128,-1,59
 415 -1 415 -1 438 3.5 c 128,-1,60
 461 8 461 8 480 14 c 1,61,-1
 442 153 l 1,0,1
EndSplineSet
EndChar

